ISO-10303-21;
HEADER;
/* Generated by software containing ST-Developer
 * from STEP Tools, Inc. (www.steptools.com) 
 */

FILE_DESCRIPTION(
/* description */ (''),
/* implementation_level */ '2;1');

FILE_NAME(
/* name */ 'connection.step',
/* time_stamp */ '2026-08-13T17:51:52-04:00',
/* author */ (''),
/* organization */ (''),
/* preprocessor_version */ 'ST-DEVELOPER v20.1',
/* originating_system */ 'Autodesk Translation Framework v15.8.0.0',
/* authorisation */ '');

FILE_SCHEMA (('AUTOMOTIVE_DESIGN { 1 0 10303 214 3 1 1 }'));
ENDSEC;

DATA;
#10=MECHANICAL_DESIGN_GEOMETRIC_PRESENTATION_REPRESENTATION('',(#13),#899);
#11=SHAPE_REPRESENTATION_RELATIONSHIP('SRR','None',#906,#12);
#12=ADVANCED_BREP_SHAPE_REPRESENTATION('',(#14),#898);
#13=STYLED_ITEM('',(#915),#14);
#14=MANIFOLD_SOLID_BREP('connection',#551);
#15=FACE_BOUND('',#81,.T.);
#16=FACE_BOUND('',#84,.T.);
#17=FACE_BOUND('',#103,.T.);
#18=FACE_BOUND('',#105,.T.);
#19=FACE_BOUND('',#109,.T.);
#20=FACE_BOUND('',#112,.T.);
#21=FACE_BOUND('',#113,.T.);
#22=FACE_BOUND('',#116,.T.);
#23=PLANE('',#568);
#24=PLANE('',#573);
#25=PLANE('',#575);
#26=PLANE('',#576);
#27=PLANE('',#577);
#28=PLANE('',#578);
#29=PLANE('',#579);
#30=PLANE('',#580);
#31=PLANE('',#581);
#32=PLANE('',#582);
#33=PLANE('',#583);
#34=PLANE('',#584);
#35=PLANE('',#585);
#36=PLANE('',#586);
#37=PLANE('',#587);
#38=PLANE('',#588);
#39=PLANE('',#589);
#40=PLANE('',#590);
#41=PLANE('',#591);
#42=PLANE('',#592);
#43=PLANE('',#593);
#44=PLANE('',#598);
#45=PLANE('',#599);
#46=PLANE('',#600);
#47=PLANE('',#601);
#48=PLANE('',#602);
#49=FACE_OUTER_BOUND('',#79,.T.);
#50=FACE_OUTER_BOUND('',#80,.T.);
#51=FACE_OUTER_BOUND('',#82,.T.);
#52=FACE_OUTER_BOUND('',#83,.T.);
#53=FACE_OUTER_BOUND('',#85,.T.);
#54=FACE_OUTER_BOUND('',#86,.T.);
#55=FACE_OUTER_BOUND('',#87,.T.);
#56=FACE_OUTER_BOUND('',#88,.T.);
#57=FACE_OUTER_BOUND('',#89,.T.);
#58=FACE_OUTER_BOUND('',#90,.T.);
#59=FACE_OUTER_BOUND('',#91,.T.);
#60=FACE_OUTER_BOUND('',#92,.T.);
#61=FACE_OUTER_BOUND('',#93,.T.);
#62=FACE_OUTER_BOUND('',#94,.T.);
#63=FACE_OUTER_BOUND('',#95,.T.);
#64=FACE_OUTER_BOUND('',#96,.T.);
#65=FACE_OUTER_BOUND('',#97,.T.);
#66=FACE_OUTER_BOUND('',#98,.T.);
#67=FACE_OUTER_BOUND('',#99,.T.);
#68=FACE_OUTER_BOUND('',#100,.T.);
#69=FACE_OUTER_BOUND('',#101,.T.);
#70=FACE_OUTER_BOUND('',#102,.T.);
#71=FACE_OUTER_BOUND('',#104,.T.);
#72=FACE_OUTER_BOUND('',#106,.T.);
#73=FACE_OUTER_BOUND('',#107,.T.);
#74=FACE_OUTER_BOUND('',#108,.T.);
#75=FACE_OUTER_BOUND('',#110,.T.);
#76=FACE_OUTER_BOUND('',#111,.T.);
#77=FACE_OUTER_BOUND('',#114,.T.);
#78=FACE_OUTER_BOUND('',#115,.T.);
#79=EDGE_LOOP('',(#373,#374,#375,#376));
#80=EDGE_LOOP('',(#377));
#81=EDGE_LOOP('',(#378));
#82=EDGE_LOOP('',(#379,#380,#381,#382));
#83=EDGE_LOOP('',(#383));
#84=EDGE_LOOP('',(#384));
#85=EDGE_LOOP('',(#385,#386,#387,#388));
#86=EDGE_LOOP('',(#389,#390,#391,#392));
#87=EDGE_LOOP('',(#393,#394,#395,#396));
#88=EDGE_LOOP('',(#397,#398,#399,#400));
#89=EDGE_LOOP('',(#401,#402,#403,#404));
#90=EDGE_LOOP('',(#405,#406,#407,#408));
#91=EDGE_LOOP('',(#409,#410,#411,#412));
#92=EDGE_LOOP('',(#413,#414,#415,#416));
#93=EDGE_LOOP('',(#417,#418,#419,#420));
#94=EDGE_LOOP('',(#421,#422,#423,#424));
#95=EDGE_LOOP('',(#425,#426,#427,#428));
#96=EDGE_LOOP('',(#429,#430,#431,#432));
#97=EDGE_LOOP('',(#433,#434,#435,#436,#437,#438,#439,#440));
#98=EDGE_LOOP('',(#441,#442,#443,#444));
#99=EDGE_LOOP('',(#445,#446,#447,#448));
#100=EDGE_LOOP('',(#449,#450,#451,#452));
#101=EDGE_LOOP('',(#453,#454,#455,#456));
#102=EDGE_LOOP('',(#457,#458,#459,#460,#461,#462,#463,#464));
#103=EDGE_LOOP('',(#465,#466,#467,#468));
#104=EDGE_LOOP('',(#469,#470,#471,#472,#473,#474));
#105=EDGE_LOOP('',(#475));
#106=EDGE_LOOP('',(#476,#477,#478,#479));
#107=EDGE_LOOP('',(#480,#481,#482,#483));
#108=EDGE_LOOP('',(#484,#485,#486,#487,#488,#489));
#109=EDGE_LOOP('',(#490));
#110=EDGE_LOOP('',(#491,#492,#493,#494));
#111=EDGE_LOOP('',(#495,#496,#497,#498));
#112=EDGE_LOOP('',(#499));
#113=EDGE_LOOP('',(#500));
#114=EDGE_LOOP('',(#501,#502,#503,#504));
#115=EDGE_LOOP('',(#505,#506,#507,#508,#509,#510,#511,#512));
#116=EDGE_LOOP('',(#513,#514,#515,#516));
#117=LINE('',#750,#181);
#118=LINE('',#759,#182);
#119=LINE('',#767,#183);
#120=LINE('',#769,#184);
#121=LINE('',#771,#185);
#122=LINE('',#772,#186);
#123=LINE('',#775,#187);
#124=LINE('',#777,#188);
#125=LINE('',#778,#189);
#126=LINE('',#781,#190);
#127=LINE('',#783,#191);
#128=LINE('',#784,#192);
#129=LINE('',#788,#193);
#130=LINE('',#790,#194);
#131=LINE('',#792,#195);
#132=LINE('',#793,#196);
#133=LINE('',#795,#197);
#134=LINE('',#796,#198);
#135=LINE('',#799,#199);
#136=LINE('',#801,#200);
#137=LINE('',#802,#201);
#138=LINE('',#806,#202);
#139=LINE('',#808,#203);
#140=LINE('',#809,#204);
#141=LINE('',#811,#205);
#142=LINE('',#813,#206);
#143=LINE('',#817,#207);
#144=LINE('',#819,#208);
#145=LINE('',#821,#209);
#146=LINE('',#822,#210);
#147=LINE('',#826,#211);
#148=LINE('',#828,#212);
#149=LINE('',#830,#213);
#150=LINE('',#831,#214);
#151=LINE('',#833,#215);
#152=LINE('',#835,#216);
#153=LINE('',#837,#217);
#154=LINE('',#839,#218);
#155=LINE('',#841,#219);
#156=LINE('',#842,#220);
#157=LINE('',#845,#221);
#158=LINE('',#846,#222);
#159=LINE('',#850,#223);
#160=LINE('',#851,#224);
#161=LINE('',#852,#225);
#162=LINE('',#855,#226);
#163=LINE('',#856,#227);
#164=LINE('',#858,#228);
#165=LINE('',#861,#229);
#166=LINE('',#863,#230);
#167=LINE('',#865,#231);
#168=LINE('',#867,#232);
#169=LINE('',#868,#233);
#170=LINE('',#871,#234);
#171=LINE('',#872,#235);
#172=LINE('',#876,#236);
#173=LINE('',#879,#237);
#174=LINE('',#883,#238);
#175=LINE('',#884,#239);
#176=LINE('',#887,#240);
#177=LINE('',#888,#241);
#178=LINE('',#891,#242);
#179=LINE('',#892,#243);
#180=LINE('',#894,#244);
#181=VECTOR('',#609,2.5);
#182=VECTOR('',#620,2.5);
#183=VECTOR('',#629,10.);
#184=VECTOR('',#630,10.);
#185=VECTOR('',#631,10.);
#186=VECTOR('',#632,10.);
#187=VECTOR('',#635,10.);
#188=VECTOR('',#636,10.);
#189=VECTOR('',#637,10.);
#190=VECTOR('',#640,10.);
#191=VECTOR('',#641,10.);
#192=VECTOR('',#642,10.);
#193=VECTOR('',#645,10.);
#194=VECTOR('',#646,10.);
#195=VECTOR('',#647,10.);
#196=VECTOR('',#648,10.);
#197=VECTOR('',#651,10.);
#198=VECTOR('',#652,10.);
#199=VECTOR('',#655,10.);
#200=VECTOR('',#656,10.);
#201=VECTOR('',#657,10.);
#202=VECTOR('',#662,10.);
#203=VECTOR('',#663,10.);
#204=VECTOR('',#664,10.);
#205=VECTOR('',#667,10.);
#206=VECTOR('',#670,10.);
#207=VECTOR('',#673,10.);
#208=VECTOR('',#674,10.);
#209=VECTOR('',#675,10.);
#210=VECTOR('',#676,10.);
#211=VECTOR('',#679,10.);
#212=VECTOR('',#680,10.);
#213=VECTOR('',#681,10.);
#214=VECTOR('',#682,10.);
#215=VECTOR('',#685,10.);
#216=VECTOR('',#686,10.);
#217=VECTOR('',#687,10.);
#218=VECTOR('',#688,10.);
#219=VECTOR('',#689,10.);
#220=VECTOR('',#690,10.);
#221=VECTOR('',#693,10.);
#222=VECTOR('',#694,10.);
#223=VECTOR('',#697,10.);
#224=VECTOR('',#698,10.);
#225=VECTOR('',#699,10.);
#226=VECTOR('',#702,10.);
#227=VECTOR('',#703,10.);
#228=VECTOR('',#706,10.);
#229=VECTOR('',#709,10.);
#230=VECTOR('',#710,10.);
#231=VECTOR('',#711,10.);
#232=VECTOR('',#712,10.);
#233=VECTOR('',#713,10.);
#234=VECTOR('',#716,10.);
#235=VECTOR('',#717,10.);
#236=VECTOR('',#722,1.09114089619942);
#237=VECTOR('',#725,1.08533313592758);
#238=VECTOR('',#730,10.);
#239=VECTOR('',#731,10.);
#240=VECTOR('',#734,10.);
#241=VECTOR('',#735,10.);
#242=VECTOR('',#738,10.);
#243=VECTOR('',#739,10.);
#244=VECTOR('',#742,10.);
#245=CIRCLE('',#566,2.5);
#246=CIRCLE('',#567,2.5);
#247=CIRCLE('',#569,1.09114089619942);
#248=CIRCLE('',#571,2.5);
#249=CIRCLE('',#572,2.5);
#250=CIRCLE('',#574,1.08533313592758);
#251=CIRCLE('',#594,1.09114089619942);
#252=CIRCLE('',#597,1.08533313592758);
#253=VERTEX_POINT('',#747);
#254=VERTEX_POINT('',#749);
#255=VERTEX_POINT('',#753);
#256=VERTEX_POINT('',#756);
#257=VERTEX_POINT('',#758);
#258=VERTEX_POINT('',#762);
#259=VERTEX_POINT('',#765);
#260=VERTEX_POINT('',#766);
#261=VERTEX_POINT('',#768);
#262=VERTEX_POINT('',#770);
#263=VERTEX_POINT('',#774);
#264=VERTEX_POINT('',#776);
#265=VERTEX_POINT('',#780);
#266=VERTEX_POINT('',#782);
#267=VERTEX_POINT('',#786);
#268=VERTEX_POINT('',#787);
#269=VERTEX_POINT('',#789);
#270=VERTEX_POINT('',#791);
#271=VERTEX_POINT('',#798);
#272=VERTEX_POINT('',#800);
#273=VERTEX_POINT('',#805);
#274=VERTEX_POINT('',#807);
#275=VERTEX_POINT('',#815);
#276=VERTEX_POINT('',#816);
#277=VERTEX_POINT('',#818);
#278=VERTEX_POINT('',#820);
#279=VERTEX_POINT('',#824);
#280=VERTEX_POINT('',#825);
#281=VERTEX_POINT('',#827);
#282=VERTEX_POINT('',#829);
#283=VERTEX_POINT('',#834);
#284=VERTEX_POINT('',#836);
#285=VERTEX_POINT('',#838);
#286=VERTEX_POINT('',#840);
#287=VERTEX_POINT('',#844);
#288=VERTEX_POINT('',#848);
#289=VERTEX_POINT('',#849);
#290=VERTEX_POINT('',#854);
#291=VERTEX_POINT('',#860);
#292=VERTEX_POINT('',#862);
#293=VERTEX_POINT('',#864);
#294=VERTEX_POINT('',#866);
#295=VERTEX_POINT('',#870);
#296=VERTEX_POINT('',#873);
#297=VERTEX_POINT('',#878);
#298=VERTEX_POINT('',#882);
#299=VERTEX_POINT('',#886);
#300=VERTEX_POINT('',#890);
#301=EDGE_CURVE('',#253,#253,#245,.T.);
#302=EDGE_CURVE('',#253,#254,#117,.T.);
#303=EDGE_CURVE('',#254,#254,#246,.T.);
#304=EDGE_CURVE('',#255,#255,#247,.T.);
#305=EDGE_CURVE('',#256,#256,#248,.T.);
#306=EDGE_CURVE('',#256,#257,#118,.T.);
#307=EDGE_CURVE('',#257,#257,#249,.T.);
#308=EDGE_CURVE('',#258,#258,#250,.T.);
#309=EDGE_CURVE('',#259,#260,#119,.T.);
#310=EDGE_CURVE('',#259,#261,#120,.T.);
#311=EDGE_CURVE('',#261,#262,#121,.T.);
#312=EDGE_CURVE('',#260,#262,#122,.T.);
#313=EDGE_CURVE('',#263,#259,#123,.T.);
#314=EDGE_CURVE('',#264,#263,#124,.T.);
#315=EDGE_CURVE('',#261,#264,#125,.T.);
#316=EDGE_CURVE('',#260,#265,#126,.T.);
#317=EDGE_CURVE('',#262,#266,#127,.T.);
#318=EDGE_CURVE('',#266,#265,#128,.T.);
#319=EDGE_CURVE('',#267,#268,#129,.T.);
#320=EDGE_CURVE('',#267,#269,#130,.T.);
#321=EDGE_CURVE('',#269,#270,#131,.T.);
#322=EDGE_CURVE('',#270,#268,#132,.T.);
#323=EDGE_CURVE('',#265,#263,#133,.T.);
#324=EDGE_CURVE('',#264,#266,#134,.T.);
#325=EDGE_CURVE('',#271,#267,#135,.T.);
#326=EDGE_CURVE('',#271,#272,#136,.T.);
#327=EDGE_CURVE('',#272,#269,#137,.T.);
#328=EDGE_CURVE('',#268,#273,#138,.T.);
#329=EDGE_CURVE('',#274,#270,#139,.T.);
#330=EDGE_CURVE('',#274,#273,#140,.T.);
#331=EDGE_CURVE('',#272,#274,#141,.T.);
#332=EDGE_CURVE('',#273,#271,#142,.T.);
#333=EDGE_CURVE('',#275,#276,#143,.T.);
#334=EDGE_CURVE('',#277,#275,#144,.T.);
#335=EDGE_CURVE('',#277,#278,#145,.T.);
#336=EDGE_CURVE('',#276,#278,#146,.T.);
#337=EDGE_CURVE('',#279,#280,#147,.T.);
#338=EDGE_CURVE('',#281,#279,#148,.T.);
#339=EDGE_CURVE('',#281,#282,#149,.T.);
#340=EDGE_CURVE('',#280,#282,#150,.T.);
#341=EDGE_CURVE('',#278,#279,#151,.T.);
#342=EDGE_CURVE('',#283,#277,#152,.T.);
#343=EDGE_CURVE('',#283,#284,#153,.T.);
#344=EDGE_CURVE('',#285,#284,#154,.T.);
#345=EDGE_CURVE('',#286,#285,#155,.T.);
#346=EDGE_CURVE('',#281,#286,#156,.T.);
#347=EDGE_CURVE('',#282,#287,#157,.T.);
#348=EDGE_CURVE('',#286,#287,#158,.T.);
#349=EDGE_CURVE('',#288,#289,#159,.T.);
#350=EDGE_CURVE('',#284,#288,#160,.T.);
#351=EDGE_CURVE('',#283,#289,#161,.T.);
#352=EDGE_CURVE('',#290,#285,#162,.T.);
#353=EDGE_CURVE('',#287,#290,#163,.T.);
#354=EDGE_CURVE('',#289,#275,#164,.T.);
#355=EDGE_CURVE('',#280,#291,#165,.T.);
#356=EDGE_CURVE('',#291,#292,#166,.T.);
#357=EDGE_CURVE('',#292,#293,#167,.T.);
#358=EDGE_CURVE('',#293,#294,#168,.T.);
#359=EDGE_CURVE('',#294,#276,#169,.T.);
#360=EDGE_CURVE('',#295,#290,#170,.T.);
#361=EDGE_CURVE('',#295,#291,#171,.T.);
#362=EDGE_CURVE('',#296,#296,#251,.T.);
#363=EDGE_CURVE('',#255,#296,#172,.T.);
#364=EDGE_CURVE('',#258,#297,#173,.T.);
#365=EDGE_CURVE('',#297,#297,#252,.T.);
#366=EDGE_CURVE('',#298,#294,#174,.T.);
#367=EDGE_CURVE('',#288,#298,#175,.T.);
#368=EDGE_CURVE('',#299,#298,#176,.T.);
#369=EDGE_CURVE('',#299,#293,#177,.T.);
#370=EDGE_CURVE('',#300,#299,#178,.T.);
#371=EDGE_CURVE('',#300,#292,#179,.T.);
#372=EDGE_CURVE('',#295,#300,#180,.T.);
#373=ORIENTED_EDGE('',*,*,#301,.F.);
#374=ORIENTED_EDGE('',*,*,#302,.T.);
#375=ORIENTED_EDGE('',*,*,#303,.T.);
#376=ORIENTED_EDGE('',*,*,#302,.F.);
#377=ORIENTED_EDGE('',*,*,#303,.F.);
#378=ORIENTED_EDGE('',*,*,#304,.F.);
#379=ORIENTED_EDGE('',*,*,#305,.F.);
#380=ORIENTED_EDGE('',*,*,#306,.T.);
#381=ORIENTED_EDGE('',*,*,#307,.T.);
#382=ORIENTED_EDGE('',*,*,#306,.F.);
#383=ORIENTED_EDGE('',*,*,#307,.F.);
#384=ORIENTED_EDGE('',*,*,#308,.F.);
#385=ORIENTED_EDGE('',*,*,#309,.F.);
#386=ORIENTED_EDGE('',*,*,#310,.T.);
#387=ORIENTED_EDGE('',*,*,#311,.T.);
#388=ORIENTED_EDGE('',*,*,#312,.F.);
#389=ORIENTED_EDGE('',*,*,#313,.F.);
#390=ORIENTED_EDGE('',*,*,#314,.F.);
#391=ORIENTED_EDGE('',*,*,#315,.F.);
#392=ORIENTED_EDGE('',*,*,#310,.F.);
#393=ORIENTED_EDGE('',*,*,#316,.F.);
#394=ORIENTED_EDGE('',*,*,#312,.T.);
#395=ORIENTED_EDGE('',*,*,#317,.T.);
#396=ORIENTED_EDGE('',*,*,#318,.T.);
#397=ORIENTED_EDGE('',*,*,#319,.F.);
#398=ORIENTED_EDGE('',*,*,#320,.T.);
#399=ORIENTED_EDGE('',*,*,#321,.T.);
#400=ORIENTED_EDGE('',*,*,#322,.T.);
#401=ORIENTED_EDGE('',*,*,#323,.F.);
#402=ORIENTED_EDGE('',*,*,#318,.F.);
#403=ORIENTED_EDGE('',*,*,#324,.F.);
#404=ORIENTED_EDGE('',*,*,#314,.T.);
#405=ORIENTED_EDGE('',*,*,#325,.F.);
#406=ORIENTED_EDGE('',*,*,#326,.T.);
#407=ORIENTED_EDGE('',*,*,#327,.T.);
#408=ORIENTED_EDGE('',*,*,#320,.F.);
#409=ORIENTED_EDGE('',*,*,#317,.F.);
#410=ORIENTED_EDGE('',*,*,#311,.F.);
#411=ORIENTED_EDGE('',*,*,#315,.T.);
#412=ORIENTED_EDGE('',*,*,#324,.T.);
#413=ORIENTED_EDGE('',*,*,#328,.F.);
#414=ORIENTED_EDGE('',*,*,#322,.F.);
#415=ORIENTED_EDGE('',*,*,#329,.F.);
#416=ORIENTED_EDGE('',*,*,#330,.T.);
#417=ORIENTED_EDGE('',*,*,#321,.F.);
#418=ORIENTED_EDGE('',*,*,#327,.F.);
#419=ORIENTED_EDGE('',*,*,#331,.T.);
#420=ORIENTED_EDGE('',*,*,#329,.T.);
#421=ORIENTED_EDGE('',*,*,#332,.F.);
#422=ORIENTED_EDGE('',*,*,#330,.F.);
#423=ORIENTED_EDGE('',*,*,#331,.F.);
#424=ORIENTED_EDGE('',*,*,#326,.F.);
#425=ORIENTED_EDGE('',*,*,#333,.F.);
#426=ORIENTED_EDGE('',*,*,#334,.F.);
#427=ORIENTED_EDGE('',*,*,#335,.T.);
#428=ORIENTED_EDGE('',*,*,#336,.F.);
#429=ORIENTED_EDGE('',*,*,#337,.F.);
#430=ORIENTED_EDGE('',*,*,#338,.F.);
#431=ORIENTED_EDGE('',*,*,#339,.T.);
#432=ORIENTED_EDGE('',*,*,#340,.F.);
#433=ORIENTED_EDGE('',*,*,#341,.F.);
#434=ORIENTED_EDGE('',*,*,#335,.F.);
#435=ORIENTED_EDGE('',*,*,#342,.F.);
#436=ORIENTED_EDGE('',*,*,#343,.T.);
#437=ORIENTED_EDGE('',*,*,#344,.F.);
#438=ORIENTED_EDGE('',*,*,#345,.F.);
#439=ORIENTED_EDGE('',*,*,#346,.F.);
#440=ORIENTED_EDGE('',*,*,#338,.T.);
#441=ORIENTED_EDGE('',*,*,#347,.F.);
#442=ORIENTED_EDGE('',*,*,#339,.F.);
#443=ORIENTED_EDGE('',*,*,#346,.T.);
#444=ORIENTED_EDGE('',*,*,#348,.T.);
#445=ORIENTED_EDGE('',*,*,#349,.F.);
#446=ORIENTED_EDGE('',*,*,#350,.F.);
#447=ORIENTED_EDGE('',*,*,#343,.F.);
#448=ORIENTED_EDGE('',*,*,#351,.T.);
#449=ORIENTED_EDGE('',*,*,#352,.F.);
#450=ORIENTED_EDGE('',*,*,#353,.F.);
#451=ORIENTED_EDGE('',*,*,#348,.F.);
#452=ORIENTED_EDGE('',*,*,#345,.T.);
#453=ORIENTED_EDGE('',*,*,#354,.F.);
#454=ORIENTED_EDGE('',*,*,#351,.F.);
#455=ORIENTED_EDGE('',*,*,#342,.T.);
#456=ORIENTED_EDGE('',*,*,#334,.T.);
#457=ORIENTED_EDGE('',*,*,#336,.T.);
#458=ORIENTED_EDGE('',*,*,#341,.T.);
#459=ORIENTED_EDGE('',*,*,#337,.T.);
#460=ORIENTED_EDGE('',*,*,#355,.T.);
#461=ORIENTED_EDGE('',*,*,#356,.T.);
#462=ORIENTED_EDGE('',*,*,#357,.T.);
#463=ORIENTED_EDGE('',*,*,#358,.T.);
#464=ORIENTED_EDGE('',*,*,#359,.T.);
#465=ORIENTED_EDGE('',*,*,#325,.T.);
#466=ORIENTED_EDGE('',*,*,#319,.T.);
#467=ORIENTED_EDGE('',*,*,#328,.T.);
#468=ORIENTED_EDGE('',*,*,#332,.T.);
#469=ORIENTED_EDGE('',*,*,#340,.T.);
#470=ORIENTED_EDGE('',*,*,#347,.T.);
#471=ORIENTED_EDGE('',*,*,#353,.T.);
#472=ORIENTED_EDGE('',*,*,#360,.F.);
#473=ORIENTED_EDGE('',*,*,#361,.T.);
#474=ORIENTED_EDGE('',*,*,#355,.F.);
#475=ORIENTED_EDGE('',*,*,#362,.T.);
#476=ORIENTED_EDGE('',*,*,#304,.T.);
#477=ORIENTED_EDGE('',*,*,#363,.T.);
#478=ORIENTED_EDGE('',*,*,#362,.F.);
#479=ORIENTED_EDGE('',*,*,#363,.F.);
#480=ORIENTED_EDGE('',*,*,#308,.T.);
#481=ORIENTED_EDGE('',*,*,#364,.T.);
#482=ORIENTED_EDGE('',*,*,#365,.F.);
#483=ORIENTED_EDGE('',*,*,#364,.F.);
#484=ORIENTED_EDGE('',*,*,#333,.T.);
#485=ORIENTED_EDGE('',*,*,#359,.F.);
#486=ORIENTED_EDGE('',*,*,#366,.F.);
#487=ORIENTED_EDGE('',*,*,#367,.F.);
#488=ORIENTED_EDGE('',*,*,#349,.T.);
#489=ORIENTED_EDGE('',*,*,#354,.T.);
#490=ORIENTED_EDGE('',*,*,#365,.T.);
#491=ORIENTED_EDGE('',*,*,#368,.T.);
#492=ORIENTED_EDGE('',*,*,#366,.T.);
#493=ORIENTED_EDGE('',*,*,#358,.F.);
#494=ORIENTED_EDGE('',*,*,#369,.F.);
#495=ORIENTED_EDGE('',*,*,#370,.T.);
#496=ORIENTED_EDGE('',*,*,#369,.T.);
#497=ORIENTED_EDGE('',*,*,#357,.F.);
#498=ORIENTED_EDGE('',*,*,#371,.F.);
#499=ORIENTED_EDGE('',*,*,#301,.T.);
#500=ORIENTED_EDGE('',*,*,#305,.T.);
#501=ORIENTED_EDGE('',*,*,#372,.T.);
#502=ORIENTED_EDGE('',*,*,#371,.T.);
#503=ORIENTED_EDGE('',*,*,#356,.F.);
#504=ORIENTED_EDGE('',*,*,#361,.F.);
#505=ORIENTED_EDGE('',*,*,#350,.T.);
#506=ORIENTED_EDGE('',*,*,#367,.T.);
#507=ORIENTED_EDGE('',*,*,#368,.F.);
#508=ORIENTED_EDGE('',*,*,#370,.F.);
#509=ORIENTED_EDGE('',*,*,#372,.F.);
#510=ORIENTED_EDGE('',*,*,#360,.T.);
#511=ORIENTED_EDGE('',*,*,#352,.T.);
#512=ORIENTED_EDGE('',*,*,#344,.T.);
#513=ORIENTED_EDGE('',*,*,#323,.T.);
#514=ORIENTED_EDGE('',*,*,#313,.T.);
#515=ORIENTED_EDGE('',*,*,#309,.T.);
#516=ORIENTED_EDGE('',*,*,#316,.T.);
#517=CYLINDRICAL_SURFACE('',#565,2.5);
#518=CYLINDRICAL_SURFACE('',#570,2.5);
#519=CYLINDRICAL_SURFACE('',#595,1.09114089619942);
#520=CYLINDRICAL_SURFACE('',#596,1.08533313592758);
#521=ADVANCED_FACE('',(#49),#517,.F.);
#522=ADVANCED_FACE('',(#50,#15),#23,.T.);
#523=ADVANCED_FACE('',(#51),#518,.F.);
#524=ADVANCED_FACE('',(#52,#16),#24,.T.);
#525=ADVANCED_FACE('',(#53),#25,.T.);
#526=ADVANCED_FACE('',(#54),#26,.T.);
#527=ADVANCED_FACE('',(#55),#27,.F.);
#528=ADVANCED_FACE('',(#56),#28,.F.);
#529=ADVANCED_FACE('',(#57),#29,.T.);
#530=ADVANCED_FACE('',(#58),#30,.T.);
#531=ADVANCED_FACE('',(#59),#31,.T.);
#532=ADVANCED_FACE('',(#60),#32,.T.);
#533=ADVANCED_FACE('',(#61),#33,.T.);
#534=ADVANCED_FACE('',(#62),#34,.T.);
#535=ADVANCED_FACE('',(#63),#35,.F.);
#536=ADVANCED_FACE('',(#64),#36,.F.);
#537=ADVANCED_FACE('',(#65),#37,.F.);
#538=ADVANCED_FACE('',(#66),#38,.F.);
#539=ADVANCED_FACE('',(#67),#39,.F.);
#540=ADVANCED_FACE('',(#68),#40,.F.);
#541=ADVANCED_FACE('',(#69),#41,.F.);
#542=ADVANCED_FACE('',(#70,#17),#42,.T.);
#543=ADVANCED_FACE('',(#71,#18),#43,.T.);
#544=ADVANCED_FACE('',(#72),#519,.F.);
#545=ADVANCED_FACE('',(#73),#520,.F.);
#546=ADVANCED_FACE('',(#74,#19),#44,.T.);
#547=ADVANCED_FACE('',(#75),#45,.T.);
#548=ADVANCED_FACE('',(#76,#20,#21),#46,.T.);
#549=ADVANCED_FACE('',(#77),#47,.T.);
#550=ADVANCED_FACE('',(#78,#22),#48,.F.);
#551=CLOSED_SHELL('',(#521,#522,#523,#524,#525,#526,#527,#528,#529,#530,
#531,#532,#533,#534,#535,#536,#537,#538,#539,#540,#541,#542,#543,#544,#545,
#546,#547,#548,#549,#550));
#552=DERIVED_UNIT_ELEMENT(#554,1.);
#553=DERIVED_UNIT_ELEMENT(#901,-3.);
#554=(
MASS_UNIT()
NAMED_UNIT(*)
SI_UNIT(.KILO.,.GRAM.)
);
#555=DERIVED_UNIT((#552,#553));
#556=MEASURE_REPRESENTATION_ITEM('density measure',
POSITIVE_RATIO_MEASURE(900.),#555);
#557=PROPERTY_DEFINITION_REPRESENTATION(#562,#559);
#558=PROPERTY_DEFINITION_REPRESENTATION(#563,#560);
#559=REPRESENTATION('material name',(#561),#898);
#560=REPRESENTATION('density',(#556),#898);
#561=DESCRIPTIVE_REPRESENTATION_ITEM('\X2\76AE9769FF0C98CE5316\X0\',
'\X2\76AE9769FF0C98CE5316\X0\');
#562=PROPERTY_DEFINITION('material property','material name',#908);
#563=PROPERTY_DEFINITION('material property','density of part',#908);
#564=AXIS2_PLACEMENT_3D('',#745,#603,#604);
#565=AXIS2_PLACEMENT_3D('',#746,#605,#606);
#566=AXIS2_PLACEMENT_3D('',#748,#607,#608);
#567=AXIS2_PLACEMENT_3D('',#751,#610,#611);
#568=AXIS2_PLACEMENT_3D('',#752,#612,#613);
#569=AXIS2_PLACEMENT_3D('',#754,#614,#615);
#570=AXIS2_PLACEMENT_3D('',#755,#616,#617);
#571=AXIS2_PLACEMENT_3D('',#757,#618,#619);
#572=AXIS2_PLACEMENT_3D('',#760,#621,#622);
#573=AXIS2_PLACEMENT_3D('',#761,#623,#624);
#574=AXIS2_PLACEMENT_3D('',#763,#625,#626);
#575=AXIS2_PLACEMENT_3D('',#764,#627,#628);
#576=AXIS2_PLACEMENT_3D('',#773,#633,#634);
#577=AXIS2_PLACEMENT_3D('',#779,#638,#639);
#578=AXIS2_PLACEMENT_3D('',#785,#643,#644);
#579=AXIS2_PLACEMENT_3D('',#794,#649,#650);
#580=AXIS2_PLACEMENT_3D('',#797,#653,#654);
#581=AXIS2_PLACEMENT_3D('',#803,#658,#659);
#582=AXIS2_PLACEMENT_3D('',#804,#660,#661);
#583=AXIS2_PLACEMENT_3D('',#810,#665,#666);
#584=AXIS2_PLACEMENT_3D('',#812,#668,#669);
#585=AXIS2_PLACEMENT_3D('',#814,#671,#672);
#586=AXIS2_PLACEMENT_3D('',#823,#677,#678);
#587=AXIS2_PLACEMENT_3D('',#832,#683,#684);
#588=AXIS2_PLACEMENT_3D('',#843,#691,#692);
#589=AXIS2_PLACEMENT_3D('',#847,#695,#696);
#590=AXIS2_PLACEMENT_3D('',#853,#700,#701);
#591=AXIS2_PLACEMENT_3D('',#857,#704,#705);
#592=AXIS2_PLACEMENT_3D('',#859,#707,#708);
#593=AXIS2_PLACEMENT_3D('',#869,#714,#715);
#594=AXIS2_PLACEMENT_3D('',#874,#718,#719);
#595=AXIS2_PLACEMENT_3D('',#875,#720,#721);
#596=AXIS2_PLACEMENT_3D('',#877,#723,#724);
#597=AXIS2_PLACEMENT_3D('',#880,#726,#727);
#598=AXIS2_PLACEMENT_3D('',#881,#728,#729);
#599=AXIS2_PLACEMENT_3D('',#885,#732,#733);
#600=AXIS2_PLACEMENT_3D('',#889,#736,#737);
#601=AXIS2_PLACEMENT_3D('',#893,#740,#741);
#602=AXIS2_PLACEMENT_3D('',#895,#743,#744);
#603=DIRECTION('axis',(0.,0.,1.));
#604=DIRECTION('refdir',(1.,0.,0.));
#605=DIRECTION('center_axis',(0.,1.,0.));
#606=DIRECTION('ref_axis',(1.,0.,0.));
#607=DIRECTION('center_axis',(0.,1.,0.));
#608=DIRECTION('ref_axis',(1.,0.,0.));
#609=DIRECTION('',(0.,1.,0.));
#610=DIRECTION('center_axis',(0.,1.,0.));
#611=DIRECTION('ref_axis',(1.,0.,0.));
#612=DIRECTION('center_axis',(0.,-1.,0.));
#613=DIRECTION('ref_axis',(1.,0.,0.));
#614=DIRECTION('center_axis',(0.,-1.,0.));
#615=DIRECTION('ref_axis',(1.,0.,0.));
#616=DIRECTION('center_axis',(0.,1.,0.));
#617=DIRECTION('ref_axis',(1.,0.,0.));
#618=DIRECTION('center_axis',(0.,1.,0.));
#619=DIRECTION('ref_axis',(1.,0.,0.));
#620=DIRECTION('',(0.,1.,0.));
#621=DIRECTION('center_axis',(0.,1.,0.));
#622=DIRECTION('ref_axis',(1.,0.,0.));
#623=DIRECTION('center_axis',(0.,-1.,0.));
#624=DIRECTION('ref_axis',(1.,0.,0.));
#625=DIRECTION('center_axis',(0.,-1.,0.));
#626=DIRECTION('ref_axis',(1.,0.,0.));
#627=DIRECTION('center_axis',(0.,0.,-1.));
#628=DIRECTION('ref_axis',(-1.,0.,0.));
#629=DIRECTION('',(0.,1.,0.));
#630=DIRECTION('',(-1.,0.,0.));
#631=DIRECTION('',(0.,1.,0.));
#632=DIRECTION('',(-1.,0.,0.));
#633=DIRECTION('center_axis',(0.,-1.,0.));
#634=DIRECTION('ref_axis',(1.,0.,0.));
#635=DIRECTION('',(0.,0.,-1.));
#636=DIRECTION('',(1.,0.,3.70074341541719E-17));
#637=DIRECTION('',(0.,0.,1.));
#638=DIRECTION('center_axis',(0.,-1.,0.));
#639=DIRECTION('ref_axis',(0.,0.,-1.));
#640=DIRECTION('',(0.,0.,1.));
#641=DIRECTION('',(0.,0.,1.));
#642=DIRECTION('',(1.,0.,3.70074341541719E-17));
#643=DIRECTION('center_axis',(0.,-1.,0.));
#644=DIRECTION('ref_axis',(0.,0.,-1.));
#645=DIRECTION('',(0.,0.,-1.));
#646=DIRECTION('',(1.,0.,3.70074341541719E-17));
#647=DIRECTION('',(0.,0.,-1.));
#648=DIRECTION('',(-1.,0.,0.));
#649=DIRECTION('center_axis',(-3.70074341541719E-17,0.,1.));
#650=DIRECTION('ref_axis',(1.,0.,3.70074341541719E-17));
#651=DIRECTION('',(0.,-1.,0.));
#652=DIRECTION('',(0.,1.,0.));
#653=DIRECTION('center_axis',(-3.70074341541719E-17,0.,1.));
#654=DIRECTION('ref_axis',(1.,0.,3.70074341541719E-17));
#655=DIRECTION('',(0.,1.,0.));
#656=DIRECTION('',(1.,0.,3.70074341541719E-17));
#657=DIRECTION('',(0.,1.,0.));
#658=DIRECTION('center_axis',(-1.,0.,0.));
#659=DIRECTION('ref_axis',(0.,0.,1.));
#660=DIRECTION('center_axis',(0.,0.,-1.));
#661=DIRECTION('ref_axis',(-1.,0.,0.));
#662=DIRECTION('',(0.,-1.,0.));
#663=DIRECTION('',(0.,1.,0.));
#664=DIRECTION('',(-1.,0.,0.));
#665=DIRECTION('center_axis',(1.,0.,0.));
#666=DIRECTION('ref_axis',(0.,0.,-1.));
#667=DIRECTION('',(0.,0.,-1.));
#668=DIRECTION('center_axis',(0.,-1.,0.));
#669=DIRECTION('ref_axis',(1.,0.,0.));
#670=DIRECTION('',(0.,0.,1.));
#671=DIRECTION('center_axis',(-0.33978100131589,2.77067096576621E-16,-0.940504583266223));
#672=DIRECTION('ref_axis',(-0.940504583266223,7.66914198243426E-16,0.33978100131589));
#673=DIRECTION('',(0.940504583266223,0.,-0.33978100131589));
#674=DIRECTION('',(8.15428453926373E-16,1.,5.32424529308919E-29));
#675=DIRECTION('',(0.940504583266223,-7.66914198243426E-16,-0.33978100131589));
#676=DIRECTION('',(0.,-1.,-2.94594095027598E-16));
#677=DIRECTION('center_axis',(-0.339781001316013,2.77067096576622E-16,0.940504583266178));
#678=DIRECTION('ref_axis',(0.940504583266178,-7.66914198243426E-16,0.339781001316013));
#679=DIRECTION('',(0.,1.,-2.94594095027613E-16));
#680=DIRECTION('',(0.940504583266178,-7.66914198243426E-16,0.339781001316013));
#681=DIRECTION('',(8.15428453926373E-16,1.,5.32424529308919E-29));
#682=DIRECTION('',(-0.940504583266178,0.,-0.339781001316013));
#683=DIRECTION('center_axis',(-8.15428453926373E-16,-1.,-5.32424529308919E-29));
#684=DIRECTION('ref_axis',(-1.,8.15428453926373E-16,-6.5551990933272E-14));
#685=DIRECTION('',(0.,-5.32424529308919E-29,1.));
#686=DIRECTION('',(1.,-8.15428453926373E-16,6.5551990933272E-14));
#687=DIRECTION('',(-0.940504583266178,7.66914198243426E-16,-0.339781001316013));
#688=DIRECTION('',(0.,5.32424529308919E-29,-1.));
#689=DIRECTION('',(-0.940504583266223,7.66914198243426E-16,0.33978100131589));
#690=DIRECTION('',(-1.,8.15428453926373E-16,-6.5551990933272E-14));
#691=DIRECTION('center_axis',(-6.5551990933272E-14,2.10505687621744E-31,
1.));
#692=DIRECTION('ref_axis',(1.,-8.15428453926373E-16,6.5551990933272E-14));
#693=DIRECTION('',(-1.,0.,-6.5551990933272E-14));
#694=DIRECTION('',(8.15428453926373E-16,1.,5.32424529308919E-29));
#695=DIRECTION('center_axis',(0.339781001316013,-2.77067096576622E-16,-0.940504583266178));
#696=DIRECTION('ref_axis',(-0.940504583266178,7.66914198243426E-16,-0.339781001316013));
#697=DIRECTION('',(0.940504583266178,0.,0.339781001316013));
#698=DIRECTION('',(0.,1.,-2.94594095027613E-16));
#699=DIRECTION('',(8.15428453926373E-16,1.,5.32424529308919E-29));
#700=DIRECTION('center_axis',(0.33978100131589,-2.77067096576621E-16,0.940504583266223));
#701=DIRECTION('ref_axis',(0.940504583266223,-7.66914198243426E-16,-0.33978100131589));
#702=DIRECTION('',(0.,-1.,-2.94594095027598E-16));
#703=DIRECTION('',(-0.940504583266223,0.,0.33978100131589));
#704=DIRECTION('center_axis',(6.5551990933272E-14,-2.10505687621744E-31,
-1.));
#705=DIRECTION('ref_axis',(-1.,8.15428453926373E-16,-6.5551990933272E-14));
#706=DIRECTION('',(1.,0.,6.5551990933272E-14));
#707=DIRECTION('center_axis',(1.,0.,0.));
#708=DIRECTION('ref_axis',(0.,0.,-1.));
#709=DIRECTION('',(0.,0.,1.));
#710=DIRECTION('',(0.,-1.,0.));
#711=DIRECTION('',(0.,0.,-1.));
#712=DIRECTION('',(0.,1.,0.));
#713=DIRECTION('',(0.,0.,1.));
#714=DIRECTION('center_axis',(0.,1.,0.));
#715=DIRECTION('ref_axis',(0.,0.,1.));
#716=DIRECTION('',(0.,0.,-1.));
#717=DIRECTION('',(1.,0.,0.));
#718=DIRECTION('center_axis',(0.,-1.,0.));
#719=DIRECTION('ref_axis',(1.,0.,0.));
#720=DIRECTION('center_axis',(0.,1.,0.));
#721=DIRECTION('ref_axis',(1.,0.,0.));
#722=DIRECTION('',(0.,1.,0.));
#723=DIRECTION('center_axis',(0.,1.,0.));
#724=DIRECTION('ref_axis',(1.,0.,0.));
#725=DIRECTION('',(0.,1.,0.));
#726=DIRECTION('center_axis',(0.,-1.,0.));
#727=DIRECTION('ref_axis',(1.,0.,0.));
#728=DIRECTION('center_axis',(0.,1.,0.));
#729=DIRECTION('ref_axis',(0.,0.,1.));
#730=DIRECTION('',(1.,0.,0.));
#731=DIRECTION('',(0.,0.,-1.));
#732=DIRECTION('center_axis',(0.,0.,-1.));
#733=DIRECTION('ref_axis',(0.,1.,0.));
#734=DIRECTION('',(0.,1.,0.));
#735=DIRECTION('',(1.,0.,0.));
#736=DIRECTION('center_axis',(0.,-1.,0.));
#737=DIRECTION('ref_axis',(0.,0.,-1.));
#738=DIRECTION('',(0.,0.,-1.));
#739=DIRECTION('',(1.,0.,0.));
#740=DIRECTION('center_axis',(0.,0.,1.));
#741=DIRECTION('ref_axis',(0.,-1.,0.));
#742=DIRECTION('',(0.,-1.,0.));
#743=DIRECTION('center_axis',(1.,0.,0.));
#744=DIRECTION('ref_axis',(0.,1.,0.));
#745=CARTESIAN_POINT('',(0.,0.,0.));
#746=CARTESIAN_POINT('Origin',(-35.0942192139667,-35.5018238739236,13.0000401036691));
#747=CARTESIAN_POINT('',(-37.5942192139667,-35.5018238739236,13.0000401036691));
#748=CARTESIAN_POINT('Origin',(-35.0942192139667,-35.5018238739236,13.0000401036691));
#749=CARTESIAN_POINT('',(-37.5942192139667,-13.5018238739236,13.0000401036691));
#750=CARTESIAN_POINT('',(-37.5942192139667,-35.5018238739236,13.0000401036691));
#751=CARTESIAN_POINT('Origin',(-35.0942192139667,-13.5018238739236,13.0000401036691));
#752=CARTESIAN_POINT('Origin',(-35.0942192139667,-13.5018238739236,13.0000401036691));
#753=CARTESIAN_POINT('',(-36.1853601101661,-13.5018238739236,13.0000401036691));
#754=CARTESIAN_POINT('Origin',(-35.0942192139667,-13.5018238739236,13.0000401036691));
#755=CARTESIAN_POINT('Origin',(-35.0453480104884,-35.5018238739236,-0.186124559445707));
#756=CARTESIAN_POINT('',(-37.5453480104884,-35.5018238739236,-0.186124559445708));
#757=CARTESIAN_POINT('Origin',(-35.0453480104884,-35.5018238739236,-0.186124559445707));
#758=CARTESIAN_POINT('',(-37.5453480104884,-13.5018238739236,-0.186124559445708));
#759=CARTESIAN_POINT('',(-37.5453480104884,-35.5018238739236,-0.186124559445707));
#760=CARTESIAN_POINT('Origin',(-35.0453480104884,-13.5018238739236,-0.186124559445707));
#761=CARTESIAN_POINT('Origin',(-35.0453480104884,-13.5018238739236,-0.186124559445707));
#762=CARTESIAN_POINT('',(-36.130681146416,-13.5018238739236,-0.186124559445707));
#763=CARTESIAN_POINT('Origin',(-35.0453480104884,-13.5018238739236,-0.186124559445707));
#764=CARTESIAN_POINT('Origin',(-27.5453480104896,-30.5018238739236,-4.81017165397536));
#765=CARTESIAN_POINT('',(-39.95,-30.5018238739236,-4.81017165397536));
#766=CARTESIAN_POINT('',(-39.95,-20.,-4.81017165397536));
#767=CARTESIAN_POINT('',(-39.95,-26.1652877169468,-4.81017165397536));
#768=CARTESIAN_POINT('',(-42.5453480104896,-30.5018238739236,-4.81017165397536));
#769=CARTESIAN_POINT('',(-27.5453480104896,-30.5018238739236,-4.81017165397536));
#770=CARTESIAN_POINT('',(-42.5453480104896,-20.,-4.81017165397536));
#771=CARTESIAN_POINT('',(-42.5453480104896,-30.5018238739236,-4.81017165397536));
#772=CARTESIAN_POINT('',(-31.2953480104896,-20.,-4.81017165397536));
#773=CARTESIAN_POINT('Origin',(-35.0453480104896,-30.5018238739236,-2.49814810671006));
#774=CARTESIAN_POINT('',(-39.95,-30.5018238739236,-0.186124559444766));
#775=CARTESIAN_POINT('',(-39.95,-30.5018238739236,-0.129939061999018));
#776=CARTESIAN_POINT('',(-42.5453480104896,-30.5018238739236,-0.186124559444766));
#777=CARTESIAN_POINT('',(-42.5453480104896,-30.5018238739236,-0.186124559444766));
#778=CARTESIAN_POINT('',(-42.5453480104896,-30.5018238739236,-4.81017165397536));
#779=CARTESIAN_POINT('Origin',(-35.0453480104896,-20.,-2.49814810671006));
#780=CARTESIAN_POINT('',(-39.95,-20.,-0.186124559444766));
#781=CARTESIAN_POINT('',(-39.95,-20.,-0.129939061999018));
#782=CARTESIAN_POINT('',(-42.5453480104896,-20.,-0.186124559444766));
#783=CARTESIAN_POINT('',(-42.5453480104896,-20.,-3.65415988034271));
#784=CARTESIAN_POINT('',(-38.7953480104896,-20.,-0.186124559444766));
#785=CARTESIAN_POINT('Origin',(-35.0453480104896,-20.,-2.49814810671006));
#786=CARTESIAN_POINT('',(-30.05,-20.,-0.186124559444766));
#787=CARTESIAN_POINT('',(-30.05,-20.,-4.81017165397536));
#788=CARTESIAN_POINT('',(-30.05,-20.,-0.129939061999018));
#789=CARTESIAN_POINT('',(-27.5453480104896,-20.,-0.186124559444766));
#790=CARTESIAN_POINT('',(-38.7953480104896,-20.,-0.186124559444766));
#791=CARTESIAN_POINT('',(-27.5453480104896,-20.,-4.81017165397536));
#792=CARTESIAN_POINT('',(-27.5453480104896,-20.,-1.34213633307741));
#793=CARTESIAN_POINT('',(-31.2953480104896,-20.,-4.81017165397536));
#794=CARTESIAN_POINT('Origin',(-42.5453480104896,-30.5018238739236,-0.186124559444766));
#795=CARTESIAN_POINT('',(-39.95,-26.1652877169468,-0.186124559444766));
#796=CARTESIAN_POINT('',(-42.5453480104896,-30.5018238739236,-0.186124559444766));
#797=CARTESIAN_POINT('Origin',(-42.5453480104896,-30.5018238739236,-0.186124559444766));
#798=CARTESIAN_POINT('',(-30.05,-30.5018238739236,-0.186124559444766));
#799=CARTESIAN_POINT('',(-30.05,-26.1652877169468,-0.186124559444766));
#800=CARTESIAN_POINT('',(-27.5453480104896,-30.5018238739236,-0.186124559444766));
#801=CARTESIAN_POINT('',(-42.5453480104896,-30.5018238739236,-0.186124559444766));
#802=CARTESIAN_POINT('',(-27.5453480104896,-30.5018238739236,-0.186124559444766));
#803=CARTESIAN_POINT('Origin',(-42.5453480104896,-30.5018238739236,-4.81017165397536));
#804=CARTESIAN_POINT('Origin',(-27.5453480104896,-30.5018238739236,-4.81017165397536));
#805=CARTESIAN_POINT('',(-30.05,-30.5018238739236,-4.81017165397536));
#806=CARTESIAN_POINT('',(-30.05,-26.1652877169468,-4.81017165397536));
#807=CARTESIAN_POINT('',(-27.5453480104896,-30.5018238739236,-4.81017165397536));
#808=CARTESIAN_POINT('',(-27.5453480104896,-30.5018238739236,-4.81017165397536));
#809=CARTESIAN_POINT('',(-27.5453480104896,-30.5018238739236,-4.81017165397536));
#810=CARTESIAN_POINT('Origin',(-27.5453480104896,-30.5018238739236,-0.186124559444766));
#811=CARTESIAN_POINT('',(-27.5453480104896,-30.5018238739236,4.43792253508583));
#812=CARTESIAN_POINT('Origin',(-35.0453480104896,-30.5018238739236,-2.49814810671006));
#813=CARTESIAN_POINT('',(-30.05,-30.5018238739236,-0.129939061999018));
#814=CARTESIAN_POINT('Origin',(-27.2500706453665,-25.1633937148462,1.05165883108533));
#815=CARTESIAN_POINT('',(-31.931197053309,-8.15567924601645,2.74283380936478));
#816=CARTESIAN_POINT('',(-30.05,-8.15567924601645,2.06320392789622));
#817=CARTESIAN_POINT('',(-30.2185059206034,-8.15567924601645,2.12408094162798));
#818=CARTESIAN_POINT('',(-31.931197053309,-25.1633937148462,2.74283380936478));
#819=CARTESIAN_POINT('',(-31.931197053309,-25.1633937148462,2.74283380936478));
#820=CARTESIAN_POINT('',(-30.05,-25.1633937148462,2.06320392789624));
#821=CARTESIAN_POINT('',(-31.931197053309,-25.1633937148462,2.74283380936478));
#822=CARTESIAN_POINT('',(-30.05,-23.4960726374081,2.06320392789622));
#823=CARTESIAN_POINT('Origin',(-31.9311970533095,-25.1633937148462,10.3428338093648));
#824=CARTESIAN_POINT('',(-30.05,-25.1633937148462,11.0224636908337));
#825=CARTESIAN_POINT('',(-30.05,-8.15567924601645,11.0224636908337));
#826=CARTESIAN_POINT('',(-30.05,-23.4960726374081,11.0224636908337));
#827=CARTESIAN_POINT('',(-31.9311970533095,-25.1633937148462,10.3428338093648));
#828=CARTESIAN_POINT('',(-31.9311970533095,-25.1633937148462,10.3428338093648));
#829=CARTESIAN_POINT('',(-31.9311970533095,-8.15567924601645,10.3428338093648));
#830=CARTESIAN_POINT('',(-31.9311970533095,-25.1633937148462,10.3428338093648));
#831=CARTESIAN_POINT('',(-39.6106973148412,-8.15567924601645,7.56842065402628));
#832=CARTESIAN_POINT('Origin',(-35.0500706453669,-25.1633937148462,6.54283380936455));
#833=CARTESIAN_POINT('',(-30.05,-25.1633937148462,4.39055189603829));
#834=CARTESIAN_POINT('',(-38.1689442374243,-25.1633937148462,2.74283380936435));
#835=CARTESIAN_POINT('',(-38.1689442374243,-25.1633937148462,2.74283380936435));
#836=CARTESIAN_POINT('',(-39.95,-25.1633937148462,2.09938249485187));
#837=CARTESIAN_POINT('',(-38.1689442374243,-25.1633937148462,2.74283380936435));
#838=CARTESIAN_POINT('',(-39.95,-25.1633937148462,10.9862851238764));
#839=CARTESIAN_POINT('',(-39.95,-25.1633937148462,4.39055189603829));
#840=CARTESIAN_POINT('',(-38.1689442374248,-25.1633937148462,10.3428338093643));
#841=CARTESIAN_POINT('',(-38.1689442374248,-25.1633937148462,10.3428338093643));
#842=CARTESIAN_POINT('',(-31.9311970533095,-25.1633937148462,10.3428338093648));
#843=CARTESIAN_POINT('Origin',(-38.1689442374248,-25.1633937148462,10.3428338093643));
#844=CARTESIAN_POINT('',(-38.1689442374248,-8.15567924601645,10.3428338093643));
#845=CARTESIAN_POINT('',(-39.0594721187132,-8.15567924601645,10.3428338093643));
#846=CARTESIAN_POINT('',(-38.1689442374248,-25.1633937148462,10.3428338093643));
#847=CARTESIAN_POINT('Origin',(-38.1689442374243,-25.1633937148462,2.74283380936435));
#848=CARTESIAN_POINT('',(-39.95,-8.15567924601645,2.09938249485187));
#849=CARTESIAN_POINT('',(-38.1689442374243,-8.15567924601645,2.74283380936435));
#850=CARTESIAN_POINT('',(-41.8752991454895,-8.15567924601645,1.40381962027718));
#851=CARTESIAN_POINT('',(-39.95,-23.4960726374081,2.09938249485187));
#852=CARTESIAN_POINT('',(-38.1689442374243,-25.1633937148462,2.74283380936435));
#853=CARTESIAN_POINT('Origin',(-42.8500706453673,-25.1633937148462,12.0340087876438));
#854=CARTESIAN_POINT('',(-39.95,-8.15567924601645,10.9862851238764));
#855=CARTESIAN_POINT('',(-39.95,-23.4960726374081,10.9862851238764));
#856=CARTESIAN_POINT('',(-37.164234159195,-8.15567924601645,9.97985695365621));
#857=CARTESIAN_POINT('Origin',(-31.931197053309,-25.1633937148462,2.74283380936478));
#858=CARTESIAN_POINT('',(-35.9405985266551,-8.15567924601645,2.74283380936451));
#859=CARTESIAN_POINT('Origin',(-30.05,-21.82875155997,2.23826998271203));
#860=CARTESIAN_POINT('',(-30.05,-8.15567924601645,20.));
#861=CARTESIAN_POINT('',(-30.05,-8.15567924601645,20.));
#862=CARTESIAN_POINT('',(-30.05,-35.5018238739236,20.));
#863=CARTESIAN_POINT('',(-30.05,-19.5,20.));
#864=CARTESIAN_POINT('',(-30.05,-35.5018238739236,-15.5234600345759));
#865=CARTESIAN_POINT('',(-30.05,-35.5018238739236,20.));
#866=CARTESIAN_POINT('',(-30.05,-8.15567924601645,-15.5234600345759));
#867=CARTESIAN_POINT('',(-30.05,-35.5018238739236,-15.5234600345759));
#868=CARTESIAN_POINT('',(-30.05,-8.15567924601645,20.));
#869=CARTESIAN_POINT('Origin',(-39.95,-8.15567924601645,-15.5234600345759));
#870=CARTESIAN_POINT('',(-39.95,-8.15567924601645,20.));
#871=CARTESIAN_POINT('',(-39.95,-8.15567924601645,20.));
#872=CARTESIAN_POINT('',(-39.95,-8.15567924601645,20.));
#873=CARTESIAN_POINT('',(-36.1853601101661,-8.15567924601645,13.0000401036691));
#874=CARTESIAN_POINT('Origin',(-35.0942192139667,-8.15567924601645,13.0000401036691));
#875=CARTESIAN_POINT('Origin',(-35.0942192139667,-35.5018238739236,13.0000401036691));
#876=CARTESIAN_POINT('',(-36.1853601101661,-35.5018238739236,13.0000401036691));
#877=CARTESIAN_POINT('Origin',(-35.0453480104884,-35.5018238739236,-0.186124559445707));
#878=CARTESIAN_POINT('',(-36.130681146416,-8.15567924601645,-0.186124559445707));
#879=CARTESIAN_POINT('',(-36.130681146416,-35.5018238739236,-0.186124559445707));
#880=CARTESIAN_POINT('Origin',(-35.0453480104884,-8.15567924601645,-0.186124559445707));
#881=CARTESIAN_POINT('Origin',(-39.95,-8.15567924601645,-15.5234600345759));
#882=CARTESIAN_POINT('',(-39.95,-8.15567924601645,-15.5234600345759));
#883=CARTESIAN_POINT('',(-39.95,-8.15567924601645,-15.5234600345759));
#884=CARTESIAN_POINT('',(-39.95,-8.15567924601645,20.));
#885=CARTESIAN_POINT('Origin',(-39.95,-35.5018238739236,-15.5234600345759));
#886=CARTESIAN_POINT('',(-39.95,-35.5018238739236,-15.5234600345759));
#887=CARTESIAN_POINT('',(-39.95,-35.5018238739236,-15.5234600345759));
#888=CARTESIAN_POINT('',(-39.95,-35.5018238739236,-15.5234600345759));
#889=CARTESIAN_POINT('Origin',(-39.95,-35.5018238739236,20.));
#890=CARTESIAN_POINT('',(-39.95,-35.5018238739236,20.));
#891=CARTESIAN_POINT('',(-39.95,-35.5018238739236,20.));
#892=CARTESIAN_POINT('',(-39.95,-35.5018238739236,20.));
#893=CARTESIAN_POINT('Origin',(-39.95,-8.15567924601645,20.));
#894=CARTESIAN_POINT('',(-39.95,-19.5,20.));
#895=CARTESIAN_POINT('Origin',(-39.95,-21.82875155997,2.23826998271203));
#896=UNCERTAINTY_MEASURE_WITH_UNIT(LENGTH_MEASURE(0.01),#900,
'DISTANCE_ACCURACY_VALUE',
'Maximum model space distance between geometric entities at asserted c
onnectivities');
#897=UNCERTAINTY_MEASURE_WITH_UNIT(LENGTH_MEASURE(0.01),#900,
'DISTANCE_ACCURACY_VALUE',
'Maximum model space distance between geometric entities at asserted c
onnectivities');
#898=(
GEOMETRIC_REPRESENTATION_CONTEXT(3)
GLOBAL_UNCERTAINTY_ASSIGNED_CONTEXT((#896))
GLOBAL_UNIT_ASSIGNED_CONTEXT((#900,#902,#903))
REPRESENTATION_CONTEXT('','3D')
);
#899=(
GEOMETRIC_REPRESENTATION_CONTEXT(3)
GLOBAL_UNCERTAINTY_ASSIGNED_CONTEXT((#897))
GLOBAL_UNIT_ASSIGNED_CONTEXT((#900,#902,#903))
REPRESENTATION_CONTEXT('','3D')
);
#900=(
LENGTH_UNIT()
NAMED_UNIT(*)
SI_UNIT(.MILLI.,.METRE.)
);
#901=(
LENGTH_UNIT()
NAMED_UNIT(*)
SI_UNIT($,.METRE.)
);
#902=(
NAMED_UNIT(*)
PLANE_ANGLE_UNIT()
SI_UNIT($,.RADIAN.)
);
#903=(
NAMED_UNIT(*)
SI_UNIT($,.STERADIAN.)
SOLID_ANGLE_UNIT()
);
#904=SHAPE_DEFINITION_REPRESENTATION(#905,#906);
#905=PRODUCT_DEFINITION_SHAPE('',$,#908);
#906=SHAPE_REPRESENTATION('',(#564),#898);
#907=PRODUCT_DEFINITION_CONTEXT('part definition',#912,'design');
#908=PRODUCT_DEFINITION('2026-08-13-17-51-52-132',
'_export_tmp_connection',#909,#907);
#909=PRODUCT_DEFINITION_FORMATION('',$,#914);
#910=PRODUCT_RELATED_PRODUCT_CATEGORY('_export_tmp_connection',
'_export_tmp_connection',(#914));
#911=APPLICATION_PROTOCOL_DEFINITION('international standard',
'automotive_design',2009,#912);
#912=APPLICATION_CONTEXT(
'Core Data for Automotive Mechanical Design Process');
#913=PRODUCT_CONTEXT('part definition',#912,'mechanical');
#914=PRODUCT('2026-08-13-17-51-52-132','_export_tmp_connection',$,(#913));
#915=PRESENTATION_STYLE_ASSIGNMENT((#916));
#916=SURFACE_STYLE_USAGE(.BOTH.,#917);
#917=SURFACE_SIDE_STYLE('',(#918));
#918=SURFACE_STYLE_FILL_AREA(#919);
#919=FILL_AREA_STYLE('\X2\76AE9769\X0\ - \X2\98CE5316\X0\',(#920));
#920=FILL_AREA_STYLE_COLOUR('\X2\76AE9769\X0\ - \X2\98CE5316\X0\',#921);
#921=COLOUR_RGB('\X2\76AE9769\X0\ - \X2\98CE5316\X0\',0.,0.,0.);
ENDSEC;
END-ISO-10303-21;
