ISO-10303-21;
HEADER;
/* Generated by software containing ST-Developer
 * from STEP Tools, Inc. (www.steptools.com) 
 */

FILE_DESCRIPTION(
/* description */ (''),
/* implementation_level */ '2;1');

FILE_NAME(
/* name */ 'eyeball_r2.step',
/* time_stamp */ '2026-08-13T17:51:44-04:00',
/* author */ (''),
/* organization */ (''),
/* preprocessor_version */ 'ST-DEVELOPER v20.1',
/* originating_system */ 'Autodesk Translation Framework v15.8.0.0',
/* authorisation */ '');

FILE_SCHEMA (('AUTOMOTIVE_DESIGN { 1 0 10303 214 3 1 1 }'));
ENDSEC;

DATA;
#10=MECHANICAL_DESIGN_GEOMETRIC_PRESENTATION_REPRESENTATION('',(#13),#558);
#11=SHAPE_REPRESENTATION_RELATIONSHIP('SRR','None',#565,#12);
#12=ADVANCED_BREP_SHAPE_REPRESENTATION('',(#14),#557);
#13=STYLED_ITEM('',(#575),#14);
#14=MANIFOLD_SOLID_BREP('eyeball_r2',#302);
#15=SPHERICAL_SURFACE('',#321,14.);
#16=SPHERICAL_SURFACE('',#357,11.);
#17=PLANE('',#320);
#18=PLANE('',#336);
#19=PLANE('',#339);
#20=PLANE('',#344);
#21=PLANE('',#345);
#22=PLANE('',#348);
#23=PLANE('',#350);
#24=PLANE('',#352);
#25=FACE_OUTER_BOUND('',#40,.T.);
#26=FACE_OUTER_BOUND('',#41,.T.);
#27=FACE_OUTER_BOUND('',#42,.T.);
#28=FACE_OUTER_BOUND('',#43,.T.);
#29=FACE_OUTER_BOUND('',#44,.T.);
#30=FACE_OUTER_BOUND('',#45,.T.);
#31=FACE_OUTER_BOUND('',#46,.T.);
#32=FACE_OUTER_BOUND('',#47,.T.);
#33=FACE_OUTER_BOUND('',#48,.T.);
#34=FACE_OUTER_BOUND('',#49,.T.);
#35=FACE_OUTER_BOUND('',#50,.T.);
#36=FACE_OUTER_BOUND('',#51,.T.);
#37=FACE_OUTER_BOUND('',#52,.T.);
#38=FACE_OUTER_BOUND('',#53,.T.);
#39=FACE_OUTER_BOUND('',#54,.T.);
#40=EDGE_LOOP('',(#192,#193,#194,#195,#196));
#41=EDGE_LOOP('',(#197,#198));
#42=EDGE_LOOP('',(#199,#200,#201,#202,#203,#204,#205,#206,#207,#208,#209,
#210,#211,#212,#213,#214,#215));
#43=EDGE_LOOP('',(#216,#217));
#44=EDGE_LOOP('',(#218,#219,#220,#221));
#45=EDGE_LOOP('',(#222,#223,#224,#225,#226,#227,#228,#229,#230,#231,#232,
#233,#234,#235,#236,#237,#238));
#46=EDGE_LOOP('',(#239,#240,#241,#242));
#47=EDGE_LOOP('',(#243,#244));
#48=EDGE_LOOP('',(#245,#246));
#49=EDGE_LOOP('',(#247,#248,#249,#250));
#50=EDGE_LOOP('',(#251,#252,#253,#254));
#51=EDGE_LOOP('',(#255,#256,#257,#258));
#52=EDGE_LOOP('',(#259,#260,#261,#262,#263,#264,#265,#266));
#53=EDGE_LOOP('',(#267,#268,#269,#270,#271,#272));
#54=EDGE_LOOP('',(#273,#274,#275,#276,#277,#278,#279,#280,#281));
#55=CIRCLE('',#317,0.5);
#56=CIRCLE('',#318,0.5);
#57=CIRCLE('',#319,0.5);
#58=CIRCLE('',#322,2.);
#59=CIRCLE('',#323,14.);
#60=CIRCLE('',#324,14.);
#61=CIRCLE('',#325,0.5);
#62=CIRCLE('',#326,14.);
#63=CIRCLE('',#327,12.3995967676372);
#64=CIRCLE('',#328,13.9977676791694);
#65=CIRCLE('',#329,0.5);
#66=CIRCLE('',#330,13.9977676791694);
#67=CIRCLE('',#331,12.3995967676372);
#68=CIRCLE('',#332,14.);
#69=CIRCLE('',#333,0.5);
#70=CIRCLE('',#334,14.);
#71=CIRCLE('',#335,2.);
#72=CIRCLE('',#337,0.5);
#73=CIRCLE('',#340,11.);
#74=CIRCLE('',#341,11.);
#75=CIRCLE('',#343,0.5);
#76=CIRCLE('',#346,0.5);
#77=CIRCLE('',#349,8.87411967464942);
#78=CIRCLE('',#351,8.87411967464942);
#79=CIRCLE('',#353,10.9971587239614);
#80=CIRCLE('',#355,2.);
#81=CIRCLE('',#356,2.);
#82=CIRCLE('',#358,11.);
#83=LINE('',#468,#100);
#84=LINE('',#472,#101);
#85=LINE('',#477,#102);
#86=LINE('',#508,#103);
#87=LINE('',#511,#104);
#88=LINE('',#512,#105);
#89=LINE('',#515,#106);
#90=LINE('',#520,#107);
#91=LINE('',#522,#108);
#92=LINE('',#524,#109);
#93=LINE('',#525,#110);
#94=LINE('',#528,#111);
#95=LINE('',#531,#112);
#96=LINE('',#533,#113);
#97=LINE('',#540,#114);
#98=LINE('',#544,#115);
#99=LINE('',#551,#116);
#100=VECTOR('',#363,10.);
#101=VECTOR('',#366,10.);
#102=VECTOR('',#373,10.);
#103=VECTOR('',#406,10.);
#104=VECTOR('',#411,10.);
#105=VECTOR('',#412,10.);
#106=VECTOR('',#415,10.);
#107=VECTOR('',#420,10.);
#108=VECTOR('',#421,10.);
#109=VECTOR('',#422,10.);
#110=VECTOR('',#423,10.);
#111=VECTOR('',#426,10.);
#112=VECTOR('',#429,10.);
#113=VECTOR('',#432,10.);
#114=VECTOR('',#443,10.);
#115=VECTOR('',#448,10.);
#116=VECTOR('',#457,2.);
#117=VERTEX_POINT('',#466);
#118=VERTEX_POINT('',#467);
#119=VERTEX_POINT('',#469);
#120=VERTEX_POINT('',#471);
#121=VERTEX_POINT('',#473);
#122=VERTEX_POINT('',#479);
#123=VERTEX_POINT('',#480);
#124=VERTEX_POINT('',#483);
#125=VERTEX_POINT('',#485);
#126=VERTEX_POINT('',#487);
#127=VERTEX_POINT('',#489);
#128=VERTEX_POINT('',#491);
#129=VERTEX_POINT('',#493);
#130=VERTEX_POINT('',#495);
#131=VERTEX_POINT('',#497);
#132=VERTEX_POINT('',#499);
#133=VERTEX_POINT('',#501);
#134=VERTEX_POINT('',#506);
#135=VERTEX_POINT('',#507);
#136=VERTEX_POINT('',#514);
#137=VERTEX_POINT('',#516);
#138=VERTEX_POINT('',#518);
#139=VERTEX_POINT('',#521);
#140=VERTEX_POINT('',#523);
#141=VERTEX_POINT('',#527);
#142=VERTEX_POINT('',#529);
#143=VERTEX_POINT('',#538);
#144=VERTEX_POINT('',#542);
#145=VERTEX_POINT('',#548);
#146=VERTEX_POINT('',#549);
#147=EDGE_CURVE('',#117,#118,#83,.T.);
#148=EDGE_CURVE('',#119,#117,#55,.T.);
#149=EDGE_CURVE('',#120,#119,#84,.T.);
#150=EDGE_CURVE('',#121,#120,#56,.T.);
#151=EDGE_CURVE('',#118,#121,#57,.T.);
#152=EDGE_CURVE('',#119,#117,#85,.T.);
#153=EDGE_CURVE('',#122,#123,#58,.T.);
#154=EDGE_CURVE('',#123,#121,#59,.T.);
#155=EDGE_CURVE('',#120,#124,#60,.T.);
#156=EDGE_CURVE('',#124,#125,#61,.T.);
#157=EDGE_CURVE('',#125,#126,#62,.T.);
#158=EDGE_CURVE('',#126,#127,#63,.T.);
#159=EDGE_CURVE('',#127,#128,#64,.T.);
#160=EDGE_CURVE('',#128,#129,#65,.T.);
#161=EDGE_CURVE('',#129,#130,#66,.T.);
#162=EDGE_CURVE('',#130,#131,#67,.T.);
#163=EDGE_CURVE('',#131,#132,#68,.T.);
#164=EDGE_CURVE('',#132,#133,#69,.T.);
#165=EDGE_CURVE('',#133,#118,#70,.T.);
#166=EDGE_CURVE('',#123,#122,#71,.T.);
#167=EDGE_CURVE('',#134,#135,#86,.T.);
#168=EDGE_CURVE('',#134,#135,#72,.T.);
#169=EDGE_CURVE('',#133,#134,#87,.T.);
#170=EDGE_CURVE('',#135,#132,#88,.T.);
#171=EDGE_CURVE('',#131,#136,#89,.T.);
#172=EDGE_CURVE('',#137,#136,#73,.T.);
#173=EDGE_CURVE('',#138,#137,#74,.T.);
#174=EDGE_CURVE('',#138,#126,#90,.T.);
#175=EDGE_CURVE('',#125,#139,#91,.T.);
#176=EDGE_CURVE('',#139,#140,#92,.T.);
#177=EDGE_CURVE('',#140,#124,#93,.T.);
#178=EDGE_CURVE('',#141,#128,#94,.T.);
#179=EDGE_CURVE('',#142,#141,#75,.T.);
#180=EDGE_CURVE('',#129,#142,#95,.T.);
#181=EDGE_CURVE('',#142,#141,#96,.T.);
#182=EDGE_CURVE('',#139,#140,#76,.T.);
#183=EDGE_CURVE('',#143,#138,#77,.T.);
#184=EDGE_CURVE('',#143,#127,#97,.T.);
#185=EDGE_CURVE('',#136,#144,#78,.T.);
#186=EDGE_CURVE('',#130,#144,#98,.T.);
#187=EDGE_CURVE('',#144,#143,#79,.T.);
#188=EDGE_CURVE('',#145,#146,#80,.T.);
#189=EDGE_CURVE('',#145,#122,#99,.T.);
#190=EDGE_CURVE('',#146,#145,#81,.T.);
#191=EDGE_CURVE('',#137,#146,#82,.T.);
#192=ORIENTED_EDGE('',*,*,#147,.F.);
#193=ORIENTED_EDGE('',*,*,#148,.F.);
#194=ORIENTED_EDGE('',*,*,#149,.F.);
#195=ORIENTED_EDGE('',*,*,#150,.F.);
#196=ORIENTED_EDGE('',*,*,#151,.F.);
#197=ORIENTED_EDGE('',*,*,#152,.F.);
#198=ORIENTED_EDGE('',*,*,#148,.T.);
#199=ORIENTED_EDGE('',*,*,#153,.T.);
#200=ORIENTED_EDGE('',*,*,#154,.T.);
#201=ORIENTED_EDGE('',*,*,#150,.T.);
#202=ORIENTED_EDGE('',*,*,#155,.T.);
#203=ORIENTED_EDGE('',*,*,#156,.T.);
#204=ORIENTED_EDGE('',*,*,#157,.T.);
#205=ORIENTED_EDGE('',*,*,#158,.T.);
#206=ORIENTED_EDGE('',*,*,#159,.T.);
#207=ORIENTED_EDGE('',*,*,#160,.T.);
#208=ORIENTED_EDGE('',*,*,#161,.T.);
#209=ORIENTED_EDGE('',*,*,#162,.T.);
#210=ORIENTED_EDGE('',*,*,#163,.T.);
#211=ORIENTED_EDGE('',*,*,#164,.T.);
#212=ORIENTED_EDGE('',*,*,#165,.T.);
#213=ORIENTED_EDGE('',*,*,#151,.T.);
#214=ORIENTED_EDGE('',*,*,#154,.F.);
#215=ORIENTED_EDGE('',*,*,#166,.T.);
#216=ORIENTED_EDGE('',*,*,#167,.F.);
#217=ORIENTED_EDGE('',*,*,#168,.T.);
#218=ORIENTED_EDGE('',*,*,#169,.F.);
#219=ORIENTED_EDGE('',*,*,#164,.F.);
#220=ORIENTED_EDGE('',*,*,#170,.F.);
#221=ORIENTED_EDGE('',*,*,#168,.F.);
#222=ORIENTED_EDGE('',*,*,#147,.T.);
#223=ORIENTED_EDGE('',*,*,#165,.F.);
#224=ORIENTED_EDGE('',*,*,#169,.T.);
#225=ORIENTED_EDGE('',*,*,#167,.T.);
#226=ORIENTED_EDGE('',*,*,#170,.T.);
#227=ORIENTED_EDGE('',*,*,#163,.F.);
#228=ORIENTED_EDGE('',*,*,#171,.T.);
#229=ORIENTED_EDGE('',*,*,#172,.F.);
#230=ORIENTED_EDGE('',*,*,#173,.F.);
#231=ORIENTED_EDGE('',*,*,#174,.T.);
#232=ORIENTED_EDGE('',*,*,#157,.F.);
#233=ORIENTED_EDGE('',*,*,#175,.T.);
#234=ORIENTED_EDGE('',*,*,#176,.T.);
#235=ORIENTED_EDGE('',*,*,#177,.T.);
#236=ORIENTED_EDGE('',*,*,#155,.F.);
#237=ORIENTED_EDGE('',*,*,#149,.T.);
#238=ORIENTED_EDGE('',*,*,#152,.T.);
#239=ORIENTED_EDGE('',*,*,#178,.F.);
#240=ORIENTED_EDGE('',*,*,#179,.F.);
#241=ORIENTED_EDGE('',*,*,#180,.F.);
#242=ORIENTED_EDGE('',*,*,#160,.F.);
#243=ORIENTED_EDGE('',*,*,#181,.F.);
#244=ORIENTED_EDGE('',*,*,#179,.T.);
#245=ORIENTED_EDGE('',*,*,#176,.F.);
#246=ORIENTED_EDGE('',*,*,#182,.T.);
#247=ORIENTED_EDGE('',*,*,#175,.F.);
#248=ORIENTED_EDGE('',*,*,#156,.F.);
#249=ORIENTED_EDGE('',*,*,#177,.F.);
#250=ORIENTED_EDGE('',*,*,#182,.F.);
#251=ORIENTED_EDGE('',*,*,#183,.F.);
#252=ORIENTED_EDGE('',*,*,#184,.T.);
#253=ORIENTED_EDGE('',*,*,#158,.F.);
#254=ORIENTED_EDGE('',*,*,#174,.F.);
#255=ORIENTED_EDGE('',*,*,#185,.F.);
#256=ORIENTED_EDGE('',*,*,#171,.F.);
#257=ORIENTED_EDGE('',*,*,#162,.F.);
#258=ORIENTED_EDGE('',*,*,#186,.T.);
#259=ORIENTED_EDGE('',*,*,#178,.T.);
#260=ORIENTED_EDGE('',*,*,#159,.F.);
#261=ORIENTED_EDGE('',*,*,#184,.F.);
#262=ORIENTED_EDGE('',*,*,#187,.F.);
#263=ORIENTED_EDGE('',*,*,#186,.F.);
#264=ORIENTED_EDGE('',*,*,#161,.F.);
#265=ORIENTED_EDGE('',*,*,#180,.T.);
#266=ORIENTED_EDGE('',*,*,#181,.T.);
#267=ORIENTED_EDGE('',*,*,#188,.F.);
#268=ORIENTED_EDGE('',*,*,#189,.T.);
#269=ORIENTED_EDGE('',*,*,#166,.F.);
#270=ORIENTED_EDGE('',*,*,#153,.F.);
#271=ORIENTED_EDGE('',*,*,#189,.F.);
#272=ORIENTED_EDGE('',*,*,#190,.F.);
#273=ORIENTED_EDGE('',*,*,#183,.T.);
#274=ORIENTED_EDGE('',*,*,#173,.T.);
#275=ORIENTED_EDGE('',*,*,#191,.T.);
#276=ORIENTED_EDGE('',*,*,#190,.T.);
#277=ORIENTED_EDGE('',*,*,#188,.T.);
#278=ORIENTED_EDGE('',*,*,#191,.F.);
#279=ORIENTED_EDGE('',*,*,#172,.T.);
#280=ORIENTED_EDGE('',*,*,#185,.T.);
#281=ORIENTED_EDGE('',*,*,#187,.T.);
#282=CYLINDRICAL_SURFACE('',#316,0.5);
#283=CYLINDRICAL_SURFACE('',#338,0.5);
#284=CYLINDRICAL_SURFACE('',#342,0.5);
#285=CYLINDRICAL_SURFACE('',#347,0.5);
#286=CYLINDRICAL_SURFACE('',#354,2.);
#287=ADVANCED_FACE('',(#25),#282,.F.);
#288=ADVANCED_FACE('',(#26),#17,.T.);
#289=ADVANCED_FACE('',(#27),#15,.T.);
#290=ADVANCED_FACE('',(#28),#18,.T.);
#291=ADVANCED_FACE('',(#29),#283,.F.);
#292=ADVANCED_FACE('',(#30),#19,.F.);
#293=ADVANCED_FACE('',(#31),#284,.F.);
#294=ADVANCED_FACE('',(#32),#20,.T.);
#295=ADVANCED_FACE('',(#33),#21,.T.);
#296=ADVANCED_FACE('',(#34),#285,.F.);
#297=ADVANCED_FACE('',(#35),#22,.F.);
#298=ADVANCED_FACE('',(#36),#23,.F.);
#299=ADVANCED_FACE('',(#37),#24,.F.);
#300=ADVANCED_FACE('',(#38),#286,.F.);
#301=ADVANCED_FACE('',(#39),#16,.F.);
#302=CLOSED_SHELL('',(#287,#288,#289,#290,#291,#292,#293,#294,#295,#296,
#297,#298,#299,#300,#301));
#303=DERIVED_UNIT_ELEMENT(#305,1.);
#304=DERIVED_UNIT_ELEMENT(#560,-3.);
#305=(
MASS_UNIT()
NAMED_UNIT(*)
SI_UNIT(.KILO.,.GRAM.)
);
#306=DERIVED_UNIT((#303,#304));
#307=MEASURE_REPRESENTATION_ITEM('density measure',
POSITIVE_RATIO_MEASURE(900.),#306);
#308=PROPERTY_DEFINITION_REPRESENTATION(#313,#310);
#309=PROPERTY_DEFINITION_REPRESENTATION(#314,#311);
#310=REPRESENTATION('material name',(#312),#557);
#311=REPRESENTATION('density',(#307),#557);
#312=DESCRIPTIVE_REPRESENTATION_ITEM('\X2\76AE9769FF0C98CE5316\X0\',
'\X2\76AE9769FF0C98CE5316\X0\');
#313=PROPERTY_DEFINITION('material property','material name',#567);
#314=PROPERTY_DEFINITION('material property','density of part',#567);
#315=AXIS2_PLACEMENT_3D('',#464,#359,#360);
#316=AXIS2_PLACEMENT_3D('',#465,#361,#362);
#317=AXIS2_PLACEMENT_3D('',#470,#364,#365);
#318=AXIS2_PLACEMENT_3D('',#474,#367,#368);
#319=AXIS2_PLACEMENT_3D('',#475,#369,#370);
#320=AXIS2_PLACEMENT_3D('',#476,#371,#372);
#321=AXIS2_PLACEMENT_3D('',#478,#374,#375);
#322=AXIS2_PLACEMENT_3D('',#481,#376,#377);
#323=AXIS2_PLACEMENT_3D('',#482,#378,#379);
#324=AXIS2_PLACEMENT_3D('',#484,#380,#381);
#325=AXIS2_PLACEMENT_3D('',#486,#382,#383);
#326=AXIS2_PLACEMENT_3D('',#488,#384,#385);
#327=AXIS2_PLACEMENT_3D('',#490,#386,#387);
#328=AXIS2_PLACEMENT_3D('',#492,#388,#389);
#329=AXIS2_PLACEMENT_3D('',#494,#390,#391);
#330=AXIS2_PLACEMENT_3D('',#496,#392,#393);
#331=AXIS2_PLACEMENT_3D('',#498,#394,#395);
#332=AXIS2_PLACEMENT_3D('',#500,#396,#397);
#333=AXIS2_PLACEMENT_3D('',#502,#398,#399);
#334=AXIS2_PLACEMENT_3D('',#503,#400,#401);
#335=AXIS2_PLACEMENT_3D('',#504,#402,#403);
#336=AXIS2_PLACEMENT_3D('',#505,#404,#405);
#337=AXIS2_PLACEMENT_3D('',#509,#407,#408);
#338=AXIS2_PLACEMENT_3D('',#510,#409,#410);
#339=AXIS2_PLACEMENT_3D('',#513,#413,#414);
#340=AXIS2_PLACEMENT_3D('',#517,#416,#417);
#341=AXIS2_PLACEMENT_3D('',#519,#418,#419);
#342=AXIS2_PLACEMENT_3D('',#526,#424,#425);
#343=AXIS2_PLACEMENT_3D('',#530,#427,#428);
#344=AXIS2_PLACEMENT_3D('',#532,#430,#431);
#345=AXIS2_PLACEMENT_3D('',#534,#433,#434);
#346=AXIS2_PLACEMENT_3D('',#535,#435,#436);
#347=AXIS2_PLACEMENT_3D('',#536,#437,#438);
#348=AXIS2_PLACEMENT_3D('',#537,#439,#440);
#349=AXIS2_PLACEMENT_3D('',#539,#441,#442);
#350=AXIS2_PLACEMENT_3D('',#541,#444,#445);
#351=AXIS2_PLACEMENT_3D('',#543,#446,#447);
#352=AXIS2_PLACEMENT_3D('',#545,#449,#450);
#353=AXIS2_PLACEMENT_3D('',#546,#451,#452);
#354=AXIS2_PLACEMENT_3D('',#547,#453,#454);
#355=AXIS2_PLACEMENT_3D('',#550,#455,#456);
#356=AXIS2_PLACEMENT_3D('',#552,#458,#459);
#357=AXIS2_PLACEMENT_3D('',#553,#460,#461);
#358=AXIS2_PLACEMENT_3D('',#554,#462,#463);
#359=DIRECTION('axis',(0.,0.,1.));
#360=DIRECTION('refdir',(1.,0.,0.));
#361=DIRECTION('center_axis',(-1.83697019872103E-16,0.,1.));
#362=DIRECTION('ref_axis',(0.,1.,0.));
#363=DIRECTION('',(-1.83697019872103E-16,0.,1.));
#364=DIRECTION('center_axis',(-1.83697019872103E-16,0.,1.));
#365=DIRECTION('ref_axis',(0.,1.,0.));
#366=DIRECTION('',(1.83697019872103E-16,0.,-1.));
#367=DIRECTION('center_axis',(1.83697019872103E-16,0.,-1.));
#368=DIRECTION('ref_axis',(0.,1.,0.));
#369=DIRECTION('center_axis',(1.83697019872103E-16,0.,-1.));
#370=DIRECTION('ref_axis',(0.,1.,0.));
#371=DIRECTION('center_axis',(-1.83697019872103E-16,0.,1.));
#372=DIRECTION('ref_axis',(0.,1.,0.));
#373=DIRECTION('',(-1.,0.,-1.83697019872103E-16));
#374=DIRECTION('center_axis',(0.,1.,-6.12323399573677E-17));
#375=DIRECTION('ref_axis',(0.,0.,-1.));
#376=DIRECTION('center_axis',(0.,-1.,0.));
#377=DIRECTION('ref_axis',(1.,0.,0.));
#378=DIRECTION('center_axis',(1.,0.,-1.22464679914735E-16));
#379=DIRECTION('ref_axis',(1.22464679914735E-16,0.,1.));
#380=DIRECTION('center_axis',(0.,1.,0.));
#381=DIRECTION('ref_axis',(0.,0.,-1.));
#382=DIRECTION('center_axis',(-1.,0.,0.));
#383=DIRECTION('ref_axis',(0.,1.,0.));
#384=DIRECTION('center_axis',(0.,1.,0.));
#385=DIRECTION('ref_axis',(0.,0.,-1.));
#386=DIRECTION('center_axis',(1.,0.,0.));
#387=DIRECTION('ref_axis',(0.,0.,1.));
#388=DIRECTION('center_axis',(0.,1.,0.));
#389=DIRECTION('ref_axis',(0.,0.,-1.));
#390=DIRECTION('center_axis',(-6.12323399573677E-17,0.,1.));
#391=DIRECTION('ref_axis',(0.,1.,0.));
#392=DIRECTION('center_axis',(0.,1.,0.));
#393=DIRECTION('ref_axis',(0.,0.,-1.));
#394=DIRECTION('center_axis',(-1.,0.,8.32667268468868E-17));
#395=DIRECTION('ref_axis',(-8.32667268468868E-17,0.,-1.));
#396=DIRECTION('center_axis',(0.,1.,0.));
#397=DIRECTION('ref_axis',(0.,0.,-1.));
#398=DIRECTION('center_axis',(1.,0.,1.22464679914735E-16));
#399=DIRECTION('ref_axis',(0.,1.,0.));
#400=DIRECTION('center_axis',(0.,1.,0.));
#401=DIRECTION('ref_axis',(0.,0.,-1.));
#402=DIRECTION('center_axis',(0.,-1.,0.));
#403=DIRECTION('ref_axis',(1.,0.,0.));
#404=DIRECTION('center_axis',(-1.,0.,-1.22464679914735E-16));
#405=DIRECTION('ref_axis',(0.,1.,0.));
#406=DIRECTION('',(1.22464679914735E-16,0.,-1.));
#407=DIRECTION('center_axis',(-1.,0.,-1.22464679914735E-16));
#408=DIRECTION('ref_axis',(0.,1.,0.));
#409=DIRECTION('center_axis',(-1.,0.,-1.22464679914735E-16));
#410=DIRECTION('ref_axis',(0.,1.,0.));
#411=DIRECTION('',(1.,0.,1.22464679914735E-16));
#412=DIRECTION('',(-1.,0.,-1.22464679914735E-16));
#413=DIRECTION('center_axis',(0.,1.,0.));
#414=DIRECTION('ref_axis',(0.,0.,1.));
#415=DIRECTION('',(8.32667268468868E-17,0.,1.));
#416=DIRECTION('center_axis',(0.,-1.,0.));
#417=DIRECTION('ref_axis',(0.,0.,-1.));
#418=DIRECTION('center_axis',(0.,-1.,0.));
#419=DIRECTION('ref_axis',(0.,0.,-1.));
#420=DIRECTION('',(0.,0.,-1.));
#421=DIRECTION('',(-1.,0.,0.));
#422=DIRECTION('',(0.,0.,1.));
#423=DIRECTION('',(1.,0.,0.));
#424=DIRECTION('center_axis',(6.12323399573677E-17,0.,-1.));
#425=DIRECTION('ref_axis',(0.,1.,0.));
#426=DIRECTION('',(6.12323399573677E-17,0.,-1.));
#427=DIRECTION('center_axis',(6.12323399573677E-17,0.,-1.));
#428=DIRECTION('ref_axis',(0.,1.,0.));
#429=DIRECTION('',(-6.12323399573677E-17,0.,1.));
#430=DIRECTION('center_axis',(6.12323399573677E-17,0.,-1.));
#431=DIRECTION('ref_axis',(0.,1.,0.));
#432=DIRECTION('',(1.,0.,6.12323399573677E-17));
#433=DIRECTION('center_axis',(1.,0.,0.));
#434=DIRECTION('ref_axis',(0.,1.,0.));
#435=DIRECTION('center_axis',(1.,0.,0.));
#436=DIRECTION('ref_axis',(0.,1.,0.));
#437=DIRECTION('center_axis',(1.,0.,0.));
#438=DIRECTION('ref_axis',(0.,1.,0.));
#439=DIRECTION('center_axis',(1.,0.,0.));
#440=DIRECTION('ref_axis',(0.,0.,-1.));
#441=DIRECTION('center_axis',(-1.,0.,0.));
#442=DIRECTION('ref_axis',(0.,0.,1.));
#443=DIRECTION('',(0.,0.,-1.));
#444=DIRECTION('center_axis',(-1.,0.,8.32667268468868E-17));
#445=DIRECTION('ref_axis',(8.32667268468868E-17,0.,1.));
#446=DIRECTION('center_axis',(1.,0.,-8.32667268468868E-17));
#447=DIRECTION('ref_axis',(-8.32667268468868E-17,0.,-1.));
#448=DIRECTION('',(8.32667268468868E-17,0.,1.));
#449=DIRECTION('center_axis',(0.,1.,0.));
#450=DIRECTION('ref_axis',(0.,0.,1.));
#451=DIRECTION('center_axis',(0.,-1.,0.));
#452=DIRECTION('ref_axis',(0.,0.,-1.));
#453=DIRECTION('center_axis',(0.,1.,0.));
#454=DIRECTION('ref_axis',(1.,0.,0.));
#455=DIRECTION('center_axis',(0.,1.,0.));
#456=DIRECTION('ref_axis',(1.,0.,0.));
#457=DIRECTION('',(0.,1.,0.));
#458=DIRECTION('center_axis',(0.,1.,0.));
#459=DIRECTION('ref_axis',(1.,0.,0.));
#460=DIRECTION('center_axis',(0.,1.,-6.12323399573677E-17));
#461=DIRECTION('ref_axis',(0.,0.,-1.));
#462=DIRECTION('center_axis',(-1.,0.,1.22464679914735E-16));
#463=DIRECTION('ref_axis',(1.22464679914735E-16,0.,1.));
#464=CARTESIAN_POINT('',(0.,0.,0.));
#465=CARTESIAN_POINT('Origin',(-2.47990976827339E-15,0.,13.5));
#466=CARTESIAN_POINT('',(-0.500000000000003,0.,13.5));
#467=CARTESIAN_POINT('',(-0.500000000000006,0.,13.9910685796332));
#468=CARTESIAN_POINT('',(-0.500000000000003,0.,13.5));
#469=CARTESIAN_POINT('',(0.499999999999998,0.,13.5));
#470=CARTESIAN_POINT('Origin',(-2.47990976827339E-15,0.,13.5));
#471=CARTESIAN_POINT('',(0.500000000000001,0.,13.9910685796332));
#472=CARTESIAN_POINT('',(0.499999999999998,0.,13.5));
#473=CARTESIAN_POINT('',(1.71341173526989E-15,0.5,13.9910685796332));
#474=CARTESIAN_POINT('Origin',(-2.57011760290484E-15,0.,13.9910685796332));
#475=CARTESIAN_POINT('Origin',(-2.57011760290484E-15,0.,13.9910685796332));
#476=CARTESIAN_POINT('Origin',(-2.47990976827339E-15,0.,13.5));
#477=CARTESIAN_POINT('',(-2.47990976827339E-15,0.,13.5));
#478=CARTESIAN_POINT('Origin',(0.,0.,0.));
#479=CARTESIAN_POINT('',(-2.,13.856406460551,-2.44929359829471E-16));
#480=CARTESIAN_POINT('',(2.44929359829471E-16,13.856406460551,2.));
#481=CARTESIAN_POINT('Origin',(0.,13.856406460551,0.));
#482=CARTESIAN_POINT('Origin',(0.,0.,0.));
#483=CARTESIAN_POINT('',(13.9910685796332,0.,0.5));
#484=CARTESIAN_POINT('Origin',(0.,0.,0.));
#485=CARTESIAN_POINT('',(13.9910685796332,0.,-0.5));
#486=CARTESIAN_POINT('Origin',(13.9910685796332,0.,0.));
#487=CARTESIAN_POINT('',(6.5,0.,-12.3995967676372));
#488=CARTESIAN_POINT('Origin',(0.,0.,0.));
#489=CARTESIAN_POINT('',(6.5,0.25,-12.3970762682174));
#490=CARTESIAN_POINT('Origin',(6.5,0.,0.));
#491=CARTESIAN_POINT('',(0.433012701892203,0.25,-13.9910685796332));
#492=CARTESIAN_POINT('Origin',(0.,0.25,0.));
#493=CARTESIAN_POINT('',(-0.433012701892208,0.25,-13.9910685796332));
#494=CARTESIAN_POINT('Origin',(8.56705867634947E-16,0.,-13.9910685796332));
#495=CARTESIAN_POINT('',(-6.5,0.25,-12.3970762682174));
#496=CARTESIAN_POINT('Origin',(0.,0.25,0.));
#497=CARTESIAN_POINT('',(-6.5,0.,-12.3995967676372));
#498=CARTESIAN_POINT('Origin',(-6.5,0.,5.41233724504764E-16));
#499=CARTESIAN_POINT('',(-13.9910685796332,0.,-0.500000000000002));
#500=CARTESIAN_POINT('Origin',(0.,0.,0.));
#501=CARTESIAN_POINT('',(-13.9910685796332,0.,0.499999999999998));
#502=CARTESIAN_POINT('Origin',(-13.9910685796332,0.,-1.71341173526989E-15));
#503=CARTESIAN_POINT('Origin',(0.,0.,0.));
#504=CARTESIAN_POINT('Origin',(0.,13.856406460551,0.));
#505=CARTESIAN_POINT('Origin',(-13.5,0.,-1.65327317884893E-15));
#506=CARTESIAN_POINT('',(-13.5,0.,0.499999999999998));
#507=CARTESIAN_POINT('',(-13.5,0.,-0.500000000000002));
#508=CARTESIAN_POINT('',(-13.5,0.,-1.65327317884893E-15));
#509=CARTESIAN_POINT('Origin',(-13.5,0.,-1.65327317884893E-15));
#510=CARTESIAN_POINT('Origin',(-13.5,0.,-1.65327317884893E-15));
#511=CARTESIAN_POINT('',(-13.5,0.,0.499999999999998));
#512=CARTESIAN_POINT('',(-13.5,0.,-0.500000000000002));
#513=CARTESIAN_POINT('Origin',(0.,0.,0.));
#514=CARTESIAN_POINT('',(-6.5,0.,-8.87411967464942));
#515=CARTESIAN_POINT('',(-6.5,0.,-23.5000002011657));
#516=CARTESIAN_POINT('',(1.34711147906209E-15,0.,11.));
#517=CARTESIAN_POINT('Origin',(0.,0.,0.));
#518=CARTESIAN_POINT('',(6.5,0.,-8.87411967464942));
#519=CARTESIAN_POINT('Origin',(0.,0.,0.));
#520=CARTESIAN_POINT('',(6.5,0.,-3.50000020116568));
#521=CARTESIAN_POINT('',(13.5,0.,-0.5));
#522=CARTESIAN_POINT('',(13.5,0.,-0.5));
#523=CARTESIAN_POINT('',(13.5,0.,0.5));
#524=CARTESIAN_POINT('',(13.5,0.,0.));
#525=CARTESIAN_POINT('',(13.5,0.,0.5));
#526=CARTESIAN_POINT('Origin',(8.26636589424463E-16,0.,-13.5));
#527=CARTESIAN_POINT('',(0.43301270189222,0.25,-13.5));
#528=CARTESIAN_POINT('',(0.43301270189222,0.25,-13.5));
#529=CARTESIAN_POINT('',(-0.433012701892219,0.25,-13.5));
#530=CARTESIAN_POINT('Origin',(8.26636589424463E-16,0.,-13.5));
#531=CARTESIAN_POINT('',(-0.433012701892219,0.25,-13.5));
#532=CARTESIAN_POINT('Origin',(8.26636589424463E-16,0.,-13.5));
#533=CARTESIAN_POINT('',(-1.66533454925558E-15,0.25,-13.5));
#534=CARTESIAN_POINT('Origin',(13.5,0.,0.));
#535=CARTESIAN_POINT('Origin',(13.5,0.,0.));
#536=CARTESIAN_POINT('Origin',(13.5,0.,0.));
#537=CARTESIAN_POINT('Origin',(6.5,0.,-7.00000040233135));
#538=CARTESIAN_POINT('',(6.5,0.25,-8.87059749960509));
#539=CARTESIAN_POINT('Origin',(6.5,0.,0.));
#540=CARTESIAN_POINT('',(6.5,0.25,-47.0000004023314));
#541=CARTESIAN_POINT('Origin',(-6.5,0.,-47.0000004023314));
#542=CARTESIAN_POINT('',(-6.5,0.25,-8.87059749960509));
#543=CARTESIAN_POINT('Origin',(-6.5,0.,5.41233724504764E-16));
#544=CARTESIAN_POINT('',(-6.5,0.25,-7.00000040233136));
#545=CARTESIAN_POINT('Origin',(-3.33066907387547E-15,0.25,-27.0000004023314));
#546=CARTESIAN_POINT('Origin',(0.,0.25,0.));
#547=CARTESIAN_POINT('Origin',(0.,0.,0.));
#548=CARTESIAN_POINT('',(-2.,10.816653826392,2.44929359829471E-16));
#549=CARTESIAN_POINT('',(2.44929359829471E-16,10.816653826392,2.));
#550=CARTESIAN_POINT('Origin',(0.,10.816653826392,0.));
#551=CARTESIAN_POINT('',(-2.,0.,2.44929359829471E-16));
#552=CARTESIAN_POINT('Origin',(0.,10.816653826392,0.));
#553=CARTESIAN_POINT('Origin',(0.,0.,0.));
#554=CARTESIAN_POINT('Origin',(0.,0.,0.));
#555=UNCERTAINTY_MEASURE_WITH_UNIT(LENGTH_MEASURE(0.01),#559,
'DISTANCE_ACCURACY_VALUE',
'Maximum model space distance between geometric entities at asserted c
onnectivities');
#556=UNCERTAINTY_MEASURE_WITH_UNIT(LENGTH_MEASURE(0.01),#559,
'DISTANCE_ACCURACY_VALUE',
'Maximum model space distance between geometric entities at asserted c
onnectivities');
#557=(
GEOMETRIC_REPRESENTATION_CONTEXT(3)
GLOBAL_UNCERTAINTY_ASSIGNED_CONTEXT((#555))
GLOBAL_UNIT_ASSIGNED_CONTEXT((#559,#561,#562))
REPRESENTATION_CONTEXT('','3D')
);
#558=(
GEOMETRIC_REPRESENTATION_CONTEXT(3)
GLOBAL_UNCERTAINTY_ASSIGNED_CONTEXT((#556))
GLOBAL_UNIT_ASSIGNED_CONTEXT((#559,#561,#562))
REPRESENTATION_CONTEXT('','3D')
);
#559=(
LENGTH_UNIT()
NAMED_UNIT(*)
SI_UNIT(.MILLI.,.METRE.)
);
#560=(
LENGTH_UNIT()
NAMED_UNIT(*)
SI_UNIT($,.METRE.)
);
#561=(
NAMED_UNIT(*)
PLANE_ANGLE_UNIT()
SI_UNIT($,.RADIAN.)
);
#562=(
NAMED_UNIT(*)
SI_UNIT($,.STERADIAN.)
SOLID_ANGLE_UNIT()
);
#563=SHAPE_DEFINITION_REPRESENTATION(#564,#565);
#564=PRODUCT_DEFINITION_SHAPE('',$,#567);
#565=SHAPE_REPRESENTATION('',(#315),#557);
#566=PRODUCT_DEFINITION_CONTEXT('part definition',#571,'design');
#567=PRODUCT_DEFINITION('2026-08-13-17-51-44-691',
'_export_tmp_eyeball_r2',#568,#566);
#568=PRODUCT_DEFINITION_FORMATION('',$,#573);
#569=PRODUCT_RELATED_PRODUCT_CATEGORY('_export_tmp_eyeball_r2',
'_export_tmp_eyeball_r2',(#573));
#570=APPLICATION_PROTOCOL_DEFINITION('international standard',
'automotive_design',2009,#571);
#571=APPLICATION_CONTEXT(
'Core Data for Automotive Mechanical Design Process');
#572=PRODUCT_CONTEXT('part definition',#571,'mechanical');
#573=PRODUCT('2026-08-13-17-51-44-691','_export_tmp_eyeball_r2',$,(#572));
#574=PRESENTATION_STYLE_ASSIGNMENT((#576));
#575=PRESENTATION_STYLE_ASSIGNMENT((#577));
#576=SURFACE_STYLE_USAGE(.BOTH.,#578);
#577=SURFACE_STYLE_USAGE(.BOTH.,#579);
#578=SURFACE_SIDE_STYLE('',(#580));
#579=SURFACE_SIDE_STYLE('',(#581));
#580=SURFACE_STYLE_FILL_AREA(#582);
#581=SURFACE_STYLE_FILL_AREA(#583);
#582=FILL_AREA_STYLE('\X2\76AE9769\X0\ - \X2\98CE5316\X0\',(#584));
#583=FILL_AREA_STYLE('\X2\94A2\X0\ - \X2\7F0E5149\X0\',(#585));
#584=FILL_AREA_STYLE_COLOUR('\X2\76AE9769\X0\ - \X2\98CE5316\X0\',#586);
#585=FILL_AREA_STYLE_COLOUR('\X2\94A2\X0\ - \X2\7F0E5149\X0\',#587);
#586=COLOUR_RGB('\X2\76AE9769\X0\ - \X2\98CE5316\X0\',0.,0.,0.);
#587=COLOUR_RGB('\X2\94A2\X0\ - \X2\7F0E5149\X0\',0.627450980392157,0.627450980392157,
0.627450980392157);
ENDSEC;
END-ISO-10303-21;
