ISO-10303-21;
HEADER;
/* Generated by software containing ST-Developer
 * from STEP Tools, Inc. (www.steptools.com) 
 */

FILE_DESCRIPTION(
/* description */ (''),
/* implementation_level */ '2;1');

FILE_NAME(
/* name */ 'main_base_right_eye.step',
/* time_stamp */ '2026-08-13T17:51:46-04:00',
/* author */ (''),
/* organization */ (''),
/* preprocessor_version */ 'ST-DEVELOPER v20.1',
/* originating_system */ 'Autodesk Translation Framework v15.8.0.0',
/* authorisation */ '');

FILE_SCHEMA (('AUTOMOTIVE_DESIGN { 1 0 10303 214 3 1 1 }'));
ENDSEC;

DATA;
#10=MECHANICAL_DESIGN_GEOMETRIC_PRESENTATION_REPRESENTATION('',(#13),#1777);
#11=SHAPE_REPRESENTATION_RELATIONSHIP('SRR','None',#1784,#12);
#12=ADVANCED_BREP_SHAPE_REPRESENTATION('',(#14),#1776);
#13=STYLED_ITEM('',(#1794),#14);
#14=MANIFOLD_SOLID_BREP('Main base of right eye',#1062);
#15=SPHERICAL_SURFACE('',#1158,0.499999999999998);
#16=SPHERICAL_SURFACE('',#1162,0.499999999999998);
#17=CIRCLE('',#1143,0.499999999999998);
#18=CIRCLE('',#1147,0.499999999999998);
#19=CIRCLE('',#1159,0.499999999999999);
#20=CIRCLE('',#1160,0.499999999999998);
#21=CIRCLE('',#1163,0.499999999999998);
#22=CIRCLE('',#1164,0.5);
#23=CYLINDRICAL_SURFACE('',#1142,0.5);
#24=CYLINDRICAL_SURFACE('',#1146,0.5);
#25=CYLINDRICAL_SURFACE('',#1150,0.5);
#26=CYLINDRICAL_SURFACE('',#1152,0.5);
#27=CYLINDRICAL_SURFACE('',#1154,0.5);
#28=CYLINDRICAL_SURFACE('',#1156,0.5);
#29=CYLINDRICAL_SURFACE('',#1161,0.5);
#30=CYLINDRICAL_SURFACE('',#1165,0.5);
#31=CYLINDRICAL_SURFACE('',#1166,0.5);
#32=CYLINDRICAL_SURFACE('',#1167,0.5);
#33=(
BOUNDED_CURVE()
B_SPLINE_CURVE(2,(#1616,#1617,#1618),.UNSPECIFIED.,.F.,.F.)
B_SPLINE_CURVE_WITH_KNOTS((3,3),(0.247892167732407,0.266984824895493),
 .UNSPECIFIED.)
CURVE()
GEOMETRIC_REPRESENTATION_ITEM()
RATIONAL_B_SPLINE_CURVE((0.999976633800377,0.999985899727846,0.999996731589173))
REPRESENTATION_ITEM('')
);
#34=FACE_OUTER_BOUND('',#100,.T.);
#35=FACE_OUTER_BOUND('',#101,.T.);
#36=FACE_OUTER_BOUND('',#102,.T.);
#37=FACE_OUTER_BOUND('',#103,.T.);
#38=FACE_OUTER_BOUND('',#104,.T.);
#39=FACE_OUTER_BOUND('',#105,.T.);
#40=FACE_OUTER_BOUND('',#106,.T.);
#41=FACE_OUTER_BOUND('',#107,.T.);
#42=FACE_OUTER_BOUND('',#108,.T.);
#43=FACE_OUTER_BOUND('',#109,.T.);
#44=FACE_OUTER_BOUND('',#110,.T.);
#45=FACE_OUTER_BOUND('',#111,.T.);
#46=FACE_OUTER_BOUND('',#112,.T.);
#47=FACE_OUTER_BOUND('',#113,.T.);
#48=FACE_OUTER_BOUND('',#114,.T.);
#49=FACE_OUTER_BOUND('',#115,.T.);
#50=FACE_OUTER_BOUND('',#116,.T.);
#51=FACE_OUTER_BOUND('',#117,.T.);
#52=FACE_OUTER_BOUND('',#118,.T.);
#53=FACE_OUTER_BOUND('',#119,.T.);
#54=FACE_OUTER_BOUND('',#120,.T.);
#55=FACE_OUTER_BOUND('',#121,.T.);
#56=FACE_OUTER_BOUND('',#122,.T.);
#57=FACE_OUTER_BOUND('',#123,.T.);
#58=FACE_OUTER_BOUND('',#124,.T.);
#59=FACE_OUTER_BOUND('',#125,.T.);
#60=FACE_OUTER_BOUND('',#126,.T.);
#61=FACE_OUTER_BOUND('',#127,.T.);
#62=FACE_OUTER_BOUND('',#128,.T.);
#63=FACE_OUTER_BOUND('',#129,.T.);
#64=FACE_OUTER_BOUND('',#130,.T.);
#65=FACE_OUTER_BOUND('',#131,.T.);
#66=FACE_OUTER_BOUND('',#132,.T.);
#67=FACE_OUTER_BOUND('',#133,.T.);
#68=FACE_OUTER_BOUND('',#134,.T.);
#69=FACE_OUTER_BOUND('',#135,.T.);
#70=FACE_OUTER_BOUND('',#136,.T.);
#71=FACE_OUTER_BOUND('',#137,.T.);
#72=FACE_OUTER_BOUND('',#138,.T.);
#73=FACE_OUTER_BOUND('',#139,.T.);
#74=FACE_OUTER_BOUND('',#140,.T.);
#75=FACE_OUTER_BOUND('',#141,.T.);
#76=FACE_OUTER_BOUND('',#142,.T.);
#77=FACE_OUTER_BOUND('',#143,.T.);
#78=FACE_OUTER_BOUND('',#144,.T.);
#79=FACE_OUTER_BOUND('',#145,.T.);
#80=FACE_OUTER_BOUND('',#146,.T.);
#81=FACE_OUTER_BOUND('',#147,.T.);
#82=FACE_OUTER_BOUND('',#148,.T.);
#83=FACE_OUTER_BOUND('',#149,.T.);
#84=FACE_OUTER_BOUND('',#150,.T.);
#85=FACE_OUTER_BOUND('',#151,.T.);
#86=FACE_OUTER_BOUND('',#152,.T.);
#87=FACE_OUTER_BOUND('',#153,.T.);
#88=FACE_OUTER_BOUND('',#154,.T.);
#89=FACE_OUTER_BOUND('',#155,.T.);
#90=FACE_OUTER_BOUND('',#156,.T.);
#91=FACE_OUTER_BOUND('',#157,.T.);
#92=FACE_OUTER_BOUND('',#158,.T.);
#93=FACE_OUTER_BOUND('',#159,.T.);
#94=FACE_OUTER_BOUND('',#160,.T.);
#95=FACE_OUTER_BOUND('',#161,.T.);
#96=FACE_OUTER_BOUND('',#162,.T.);
#97=FACE_OUTER_BOUND('',#163,.T.);
#98=FACE_OUTER_BOUND('',#164,.T.);
#99=FACE_OUTER_BOUND('',#165,.T.);
#100=EDGE_LOOP('',(#650,#651,#652,#653,#654));
#101=EDGE_LOOP('',(#655,#656,#657,#658,#659,#660));
#102=EDGE_LOOP('',(#661,#662,#663,#664));
#103=EDGE_LOOP('',(#665,#666,#667));
#104=EDGE_LOOP('',(#668,#669,#670,#671,#672));
#105=EDGE_LOOP('',(#673,#674,#675));
#106=EDGE_LOOP('',(#676,#677,#678));
#107=EDGE_LOOP('',(#679,#680,#681));
#108=EDGE_LOOP('',(#682,#683,#684,#685,#686));
#109=EDGE_LOOP('',(#687,#688,#689,#690,#691));
#110=EDGE_LOOP('',(#692,#693,#694));
#111=EDGE_LOOP('',(#695,#696,#697,#698,#699,#700,#701));
#112=EDGE_LOOP('',(#702,#703,#704,#705));
#113=EDGE_LOOP('',(#706,#707,#708,#709));
#114=EDGE_LOOP('',(#710,#711,#712));
#115=EDGE_LOOP('',(#713,#714,#715,#716));
#116=EDGE_LOOP('',(#717,#718,#719));
#117=EDGE_LOOP('',(#720,#721,#722,#723));
#118=EDGE_LOOP('',(#724,#725,#726,#727));
#119=EDGE_LOOP('',(#728,#729,#730));
#120=EDGE_LOOP('',(#731,#732,#733));
#121=EDGE_LOOP('',(#734,#735,#736,#737));
#122=EDGE_LOOP('',(#738,#739,#740));
#123=EDGE_LOOP('',(#741,#742,#743,#744));
#124=EDGE_LOOP('',(#745,#746,#747));
#125=EDGE_LOOP('',(#748,#749,#750));
#126=EDGE_LOOP('',(#751,#752,#753));
#127=EDGE_LOOP('',(#754,#755,#756));
#128=EDGE_LOOP('',(#757,#758,#759));
#129=EDGE_LOOP('',(#760,#761,#762));
#130=EDGE_LOOP('',(#763,#764,#765));
#131=EDGE_LOOP('',(#766,#767,#768,#769));
#132=EDGE_LOOP('',(#770,#771,#772,#773));
#133=EDGE_LOOP('',(#774,#775,#776,#777));
#134=EDGE_LOOP('',(#778,#779,#780));
#135=EDGE_LOOP('',(#781,#782,#783));
#136=EDGE_LOOP('',(#784,#785,#786));
#137=EDGE_LOOP('',(#787,#788,#789,#790));
#138=EDGE_LOOP('',(#791,#792,#793,#794));
#139=EDGE_LOOP('',(#795,#796,#797));
#140=EDGE_LOOP('',(#798,#799,#800));
#141=EDGE_LOOP('',(#801,#802,#803));
#142=EDGE_LOOP('',(#804,#805,#806,#807));
#143=EDGE_LOOP('',(#808,#809,#810,#811));
#144=EDGE_LOOP('',(#812,#813,#814,#815,#816));
#145=EDGE_LOOP('',(#817,#818,#819,#820,#821));
#146=EDGE_LOOP('',(#822,#823,#824,#825,#826,#827,#828));
#147=EDGE_LOOP('',(#829,#830,#831,#832,#833,#834));
#148=EDGE_LOOP('',(#835,#836,#837,#838));
#149=EDGE_LOOP('',(#839,#840,#841,#842,#843));
#150=EDGE_LOOP('',(#844,#845,#846,#847,#848,#849,#850,#851,#852));
#151=EDGE_LOOP('',(#853,#854,#855,#856,#857));
#152=EDGE_LOOP('',(#858,#859,#860,#861,#862,#863,#864,#865,#866,#867,#868,
#869,#870));
#153=EDGE_LOOP('',(#871,#872,#873));
#154=EDGE_LOOP('',(#874,#875,#876,#877));
#155=EDGE_LOOP('',(#878,#879,#880,#881,#882));
#156=EDGE_LOOP('',(#883,#884,#885,#886));
#157=EDGE_LOOP('',(#887,#888,#889,#890));
#158=EDGE_LOOP('',(#891,#892,#893));
#159=EDGE_LOOP('',(#894,#895,#896,#897));
#160=EDGE_LOOP('',(#898,#899,#900));
#161=EDGE_LOOP('',(#901,#902,#903,#904,#905));
#162=EDGE_LOOP('',(#906,#907,#908,#909));
#163=EDGE_LOOP('',(#910,#911,#912,#913,#914,#915,#916,#917,#918,#919,#920,
#921,#922));
#164=EDGE_LOOP('',(#923,#924,#925,#926,#927,#928,#929,#930));
#165=EDGE_LOOP('',(#931,#932,#933,#934,#935,#936,#937,#938,#939,#940,#941));
#166=ELLIPSE('',#1077,0.840327450084622,0.5);
#167=ELLIPSE('',#1079,2.86881131469661,0.5);
#168=ELLIPSE('',#1083,4.14173953338517,0.5);
#169=ELLIPSE('',#1089,0.798446043738092,0.5);
#170=ELLIPSE('',#1099,0.699101106330507,0.5);
#171=ELLIPSE('',#1103,6.96203802411062,0.5);
#172=ELLIPSE('',#1104,0.609203644953336,0.5);
#173=ELLIPSE('',#1106,4.82500610713547,0.5);
#174=ELLIPSE('',#1116,30.7767291962967,0.5);
#175=ELLIPSE('',#1118,6.99094591129625,0.5);
#176=ELLIPSE('',#1120,13.5541625392115,0.5);
#177=ELLIPSE('',#1124,8.32184972151121,0.5);
#178=ELLIPSE('',#1126,5.74882809086278,0.5);
#179=ELLIPSE('',#1131,4.50520958975825,0.5);
#180=ELLIPSE('',#1133,0.898199758136617,0.5);
#181=ELLIPSE('',#1136,3.61801424966,0.5);
#182=ELLIPSE('',#1137,0.945349837208989,0.5);
#183=ELLIPSE('',#1139,0.675968916815154,0.5);
#184=ELLIPSE('',#1151,0.777861913430204,0.5);
#185=ELLIPSE('',#1153,0.777861913430205,0.5);
#186=ELLIPSE('',#1155,0.777861913430207,0.5);
#187=ELLIPSE('',#1157,0.777861913430206,0.5);
#188=LINE('',#1481,#305);
#189=LINE('',#1483,#306);
#190=LINE('',#1487,#307);
#191=LINE('',#1488,#308);
#192=LINE('',#1491,#309);
#193=LINE('',#1493,#310);
#194=LINE('',#1497,#311);
#195=LINE('',#1498,#312);
#196=LINE('',#1502,#313);
#197=LINE('',#1504,#314);
#198=LINE('',#1506,#315);
#199=LINE('',#1507,#316);
#200=LINE('',#1510,#317);
#201=LINE('',#1511,#318);
#202=LINE('',#1513,#319);
#203=LINE('',#1516,#320);
#204=LINE('',#1520,#321);
#205=LINE('',#1522,#322);
#206=LINE('',#1523,#323);
#207=LINE('',#1526,#324);
#208=LINE('',#1527,#325);
#209=LINE('',#1531,#326);
#210=LINE('',#1533,#327);
#211=LINE('',#1534,#328);
#212=LINE('',#1536,#329);
#213=LINE('',#1538,#330);
#214=LINE('',#1539,#331);
#215=LINE('',#1542,#332);
#216=LINE('',#1544,#333);
#217=LINE('',#1546,#334);
#218=LINE('',#1550,#335);
#219=LINE('',#1551,#336);
#220=LINE('',#1554,#337);
#221=LINE('',#1556,#338);
#222=LINE('',#1557,#339);
#223=LINE('',#1558,#340);
#224=LINE('',#1561,#341);
#225=LINE('',#1563,#342);
#226=LINE('',#1564,#343);
#227=LINE('',#1567,#344);
#228=LINE('',#1569,#345);
#229=LINE('',#1570,#346);
#230=LINE('',#1573,#347);
#231=LINE('',#1574,#348);
#232=LINE('',#1577,#349);
#233=LINE('',#1579,#350);
#234=LINE('',#1580,#351);
#235=LINE('',#1583,#352);
#236=LINE('',#1584,#353);
#237=LINE('',#1587,#354);
#238=LINE('',#1589,#355);
#239=LINE('',#1590,#356);
#240=LINE('',#1593,#357);
#241=LINE('',#1595,#358);
#242=LINE('',#1598,#359);
#243=LINE('',#1601,#360);
#244=LINE('',#1602,#361);
#245=LINE('',#1605,#362);
#246=LINE('',#1613,#363);
#247=LINE('',#1614,#364);
#248=LINE('',#1621,#365);
#249=LINE('',#1623,#366);
#250=LINE('',#1624,#367);
#251=LINE('',#1627,#368);
#252=LINE('',#1628,#369);
#253=LINE('',#1629,#370);
#254=LINE('',#1631,#371);
#255=LINE('',#1633,#372);
#256=LINE('',#1636,#373);
#257=LINE('',#1639,#374);
#258=LINE('',#1640,#375);
#259=LINE('',#1644,#376);
#260=LINE('',#1649,#377);
#261=LINE('',#1650,#378);
#262=LINE('',#1653,#379);
#263=LINE('',#1656,#380);
#264=LINE('',#1658,#381);
#265=LINE('',#1661,#382);
#266=LINE('',#1662,#383);
#267=LINE('',#1666,#384);
#268=LINE('',#1670,#385);
#269=LINE('',#1674,#386);
#270=LINE('',#1675,#387);
#271=LINE('',#1676,#388);
#272=LINE('',#1679,#389);
#273=LINE('',#1680,#390);
#274=LINE('',#1683,#391);
#275=LINE('',#1684,#392);
#276=LINE('',#1688,#393);
#277=LINE('',#1694,#394);
#278=LINE('',#1695,#395);
#279=LINE('',#1696,#396);
#280=LINE('',#1698,#397);
#281=LINE('',#1703,#398);
#282=LINE('',#1707,#399);
#283=LINE('',#1711,#400);
#284=LINE('',#1713,#401);
#285=LINE('',#1714,#402);
#286=LINE('',#1717,#403);
#287=LINE('',#1718,#404);
#288=LINE('',#1721,#405);
#289=LINE('',#1725,#406);
#290=LINE('',#1726,#407);
#291=LINE('',#1728,#408);
#292=LINE('',#1731,#409);
#293=LINE('',#1734,#410);
#294=LINE('',#1736,#411);
#295=LINE('',#1738,#412);
#296=LINE('',#1742,#413);
#297=LINE('',#1746,#414);
#298=LINE('',#1750,#415);
#299=LINE('',#1754,#416);
#300=LINE('',#1760,#417);
#301=LINE('',#1766,#418);
#302=LINE('',#1767,#419);
#303=LINE('',#1769,#420);
#304=LINE('',#1771,#421);
#305=VECTOR('',#1174,10.);
#306=VECTOR('',#1175,10.);
#307=VECTOR('',#1178,10.);
#308=VECTOR('',#1179,10.);
#309=VECTOR('',#1182,10.);
#310=VECTOR('',#1183,10.);
#311=VECTOR('',#1186,10.);
#312=VECTOR('',#1187,10.);
#313=VECTOR('',#1190,10.);
#314=VECTOR('',#1191,10.);
#315=VECTOR('',#1192,10.);
#316=VECTOR('',#1193,10.);
#317=VECTOR('',#1196,10.);
#318=VECTOR('',#1197,10.);
#319=VECTOR('',#1200,10.);
#320=VECTOR('',#1203,10.);
#321=VECTOR('',#1206,10.);
#322=VECTOR('',#1207,10.);
#323=VECTOR('',#1208,10.);
#324=VECTOR('',#1211,10.);
#325=VECTOR('',#1212,10.);
#326=VECTOR('',#1215,10.);
#327=VECTOR('',#1216,10.);
#328=VECTOR('',#1217,10.);
#329=VECTOR('',#1220,10.);
#330=VECTOR('',#1221,10.);
#331=VECTOR('',#1222,10.);
#332=VECTOR('',#1225,10.);
#333=VECTOR('',#1226,10.);
#334=VECTOR('',#1227,10.);
#335=VECTOR('',#1232,10.);
#336=VECTOR('',#1233,10.);
#337=VECTOR('',#1236,10.);
#338=VECTOR('',#1237,10.);
#339=VECTOR('',#1238,10.);
#340=VECTOR('',#1239,10.);
#341=VECTOR('',#1242,10.);
#342=VECTOR('',#1243,10.);
#343=VECTOR('',#1244,10.);
#344=VECTOR('',#1247,10.);
#345=VECTOR('',#1248,10.);
#346=VECTOR('',#1249,10.);
#347=VECTOR('',#1252,10.);
#348=VECTOR('',#1253,10.);
#349=VECTOR('',#1256,10.);
#350=VECTOR('',#1257,10.);
#351=VECTOR('',#1258,10.);
#352=VECTOR('',#1261,10.);
#353=VECTOR('',#1262,10.);
#354=VECTOR('',#1265,10.);
#355=VECTOR('',#1266,10.);
#356=VECTOR('',#1267,10.);
#357=VECTOR('',#1270,10.);
#358=VECTOR('',#1271,10.);
#359=VECTOR('',#1276,10.);
#360=VECTOR('',#1279,10.);
#361=VECTOR('',#1280,10.);
#362=VECTOR('',#1283,10.);
#363=VECTOR('',#1292,10.);
#364=VECTOR('',#1293,10.);
#365=VECTOR('',#1298,10.);
#366=VECTOR('',#1299,10.);
#367=VECTOR('',#1300,10.);
#368=VECTOR('',#1303,10.);
#369=VECTOR('',#1304,10.);
#370=VECTOR('',#1305,10.);
#371=VECTOR('',#1308,10.);
#372=VECTOR('',#1311,10.);
#373=VECTOR('',#1316,10.);
#374=VECTOR('',#1319,10.);
#375=VECTOR('',#1320,10.);
#376=VECTOR('',#1325,10.);
#377=VECTOR('',#1330,10.);
#378=VECTOR('',#1331,10.);
#379=VECTOR('',#1334,10.);
#380=VECTOR('',#1337,10.);
#381=VECTOR('',#1340,10.);
#382=VECTOR('',#1343,10.);
#383=VECTOR('',#1344,10.);
#384=VECTOR('',#1349,10.);
#385=VECTOR('',#1354,10.);
#386=VECTOR('',#1357,10.);
#387=VECTOR('',#1358,10.);
#388=VECTOR('',#1359,10.);
#389=VECTOR('',#1362,10.);
#390=VECTOR('',#1363,10.);
#391=VECTOR('',#1366,10.);
#392=VECTOR('',#1367,10.);
#393=VECTOR('',#1372,10.);
#394=VECTOR('',#1377,10.);
#395=VECTOR('',#1378,10.);
#396=VECTOR('',#1379,10.);
#397=VECTOR('',#1382,10.);
#398=VECTOR('',#1387,10.);
#399=VECTOR('',#1392,10.);
#400=VECTOR('',#1397,10.);
#401=VECTOR('',#1398,10.);
#402=VECTOR('',#1399,10.);
#403=VECTOR('',#1402,10.);
#404=VECTOR('',#1403,10.);
#405=VECTOR('',#1406,10.);
#406=VECTOR('',#1411,10.);
#407=VECTOR('',#1412,10.);
#408=VECTOR('',#1415,10.);
#409=VECTOR('',#1418,10.);
#410=VECTOR('',#1421,10.);
#411=VECTOR('',#1424,10.);
#412=VECTOR('',#1427,10.);
#413=VECTOR('',#1432,10.);
#414=VECTOR('',#1437,10.);
#415=VECTOR('',#1442,10.);
#416=VECTOR('',#1447,10.);
#417=VECTOR('',#1456,10.);
#418=VECTOR('',#1465,10.);
#419=VECTOR('',#1466,10.);
#420=VECTOR('',#1469,10.);
#421=VECTOR('',#1472,10.);
#422=VERTEX_POINT('',#1479);
#423=VERTEX_POINT('',#1480);
#424=VERTEX_POINT('',#1482);
#425=VERTEX_POINT('',#1484);
#426=VERTEX_POINT('',#1486);
#427=VERTEX_POINT('',#1490);
#428=VERTEX_POINT('',#1492);
#429=VERTEX_POINT('',#1494);
#430=VERTEX_POINT('',#1496);
#431=VERTEX_POINT('',#1500);
#432=VERTEX_POINT('',#1501);
#433=VERTEX_POINT('',#1503);
#434=VERTEX_POINT('',#1505);
#435=VERTEX_POINT('',#1509);
#436=VERTEX_POINT('',#1514);
#437=VERTEX_POINT('',#1518);
#438=VERTEX_POINT('',#1519);
#439=VERTEX_POINT('',#1521);
#440=VERTEX_POINT('',#1525);
#441=VERTEX_POINT('',#1529);
#442=VERTEX_POINT('',#1530);
#443=VERTEX_POINT('',#1532);
#444=VERTEX_POINT('',#1537);
#445=VERTEX_POINT('',#1541);
#446=VERTEX_POINT('',#1543);
#447=VERTEX_POINT('',#1545);
#448=VERTEX_POINT('',#1549);
#449=VERTEX_POINT('',#1553);
#450=VERTEX_POINT('',#1555);
#451=VERTEX_POINT('',#1560);
#452=VERTEX_POINT('',#1562);
#453=VERTEX_POINT('',#1566);
#454=VERTEX_POINT('',#1568);
#455=VERTEX_POINT('',#1572);
#456=VERTEX_POINT('',#1576);
#457=VERTEX_POINT('',#1578);
#458=VERTEX_POINT('',#1582);
#459=VERTEX_POINT('',#1586);
#460=VERTEX_POINT('',#1588);
#461=VERTEX_POINT('',#1592);
#462=VERTEX_POINT('',#1594);
#463=VERTEX_POINT('',#1600);
#464=VERTEX_POINT('',#1604);
#465=VERTEX_POINT('',#1606);
#466=VERTEX_POINT('',#1610);
#467=VERTEX_POINT('',#1611);
#468=VERTEX_POINT('',#1620);
#469=VERTEX_POINT('',#1622);
#470=VERTEX_POINT('',#1626);
#471=VERTEX_POINT('',#1638);
#472=VERTEX_POINT('',#1642);
#473=VERTEX_POINT('',#1646);
#474=VERTEX_POINT('',#1648);
#475=VERTEX_POINT('',#1652);
#476=VERTEX_POINT('',#1654);
#477=VERTEX_POINT('',#1660);
#478=VERTEX_POINT('',#1664);
#479=VERTEX_POINT('',#1668);
#480=VERTEX_POINT('',#1672);
#481=VERTEX_POINT('',#1673);
#482=VERTEX_POINT('',#1678);
#483=VERTEX_POINT('',#1682);
#484=VERTEX_POINT('',#1686);
#485=VERTEX_POINT('',#1690);
#486=VERTEX_POINT('',#1691);
#487=VERTEX_POINT('',#1693);
#488=VERTEX_POINT('',#1700);
#489=VERTEX_POINT('',#1702);
#490=VERTEX_POINT('',#1706);
#491=VERTEX_POINT('',#1710);
#492=VERTEX_POINT('',#1712);
#493=VERTEX_POINT('',#1716);
#494=VERTEX_POINT('',#1720);
#495=VERTEX_POINT('',#1724);
#496=VERTEX_POINT('',#1730);
#497=VERTEX_POINT('',#1732);
#498=VERTEX_POINT('',#1740);
#499=VERTEX_POINT('',#1744);
#500=VERTEX_POINT('',#1748);
#501=VERTEX_POINT('',#1752);
#502=VERTEX_POINT('',#1756);
#503=VERTEX_POINT('',#1762);
#504=EDGE_CURVE('',#422,#423,#188,.T.);
#505=EDGE_CURVE('',#422,#424,#189,.T.);
#506=EDGE_CURVE('',#425,#424,#166,.T.);
#507=EDGE_CURVE('',#426,#425,#190,.T.);
#508=EDGE_CURVE('',#423,#426,#191,.T.);
#509=EDGE_CURVE('',#423,#427,#192,.T.);
#510=EDGE_CURVE('',#428,#426,#193,.T.);
#511=EDGE_CURVE('',#429,#428,#167,.T.);
#512=EDGE_CURVE('',#430,#429,#194,.T.);
#513=EDGE_CURVE('',#427,#430,#195,.T.);
#514=EDGE_CURVE('',#431,#432,#196,.T.);
#515=EDGE_CURVE('',#433,#431,#197,.T.);
#516=EDGE_CURVE('',#434,#433,#198,.T.);
#517=EDGE_CURVE('',#434,#432,#199,.T.);
#518=EDGE_CURVE('',#432,#435,#200,.T.);
#519=EDGE_CURVE('',#434,#435,#201,.T.);
#520=EDGE_CURVE('',#430,#431,#202,.T.);
#521=EDGE_CURVE('',#436,#429,#168,.T.);
#522=EDGE_CURVE('',#433,#436,#203,.T.);
#523=EDGE_CURVE('',#437,#438,#204,.T.);
#524=EDGE_CURVE('',#439,#437,#205,.T.);
#525=EDGE_CURVE('',#439,#438,#206,.T.);
#526=EDGE_CURVE('',#435,#440,#207,.T.);
#527=EDGE_CURVE('',#440,#434,#208,.T.);
#528=EDGE_CURVE('',#441,#442,#209,.T.);
#529=EDGE_CURVE('',#443,#441,#210,.T.);
#530=EDGE_CURVE('',#442,#443,#211,.T.);
#531=EDGE_CURVE('',#438,#441,#212,.T.);
#532=EDGE_CURVE('',#439,#444,#213,.T.);
#533=EDGE_CURVE('',#443,#444,#214,.T.);
#534=EDGE_CURVE('',#444,#445,#215,.T.);
#535=EDGE_CURVE('',#446,#439,#216,.T.);
#536=EDGE_CURVE('',#447,#446,#217,.T.);
#537=EDGE_CURVE('',#445,#447,#169,.T.);
#538=EDGE_CURVE('',#446,#448,#218,.T.);
#539=EDGE_CURVE('',#448,#439,#219,.T.);
#540=EDGE_CURVE('',#440,#449,#220,.T.);
#541=EDGE_CURVE('',#450,#434,#221,.T.);
#542=EDGE_CURVE('',#448,#450,#222,.T.);
#543=EDGE_CURVE('',#449,#437,#223,.T.);
#544=EDGE_CURVE('',#450,#451,#224,.T.);
#545=EDGE_CURVE('',#452,#434,#225,.T.);
#546=EDGE_CURVE('',#451,#452,#226,.T.);
#547=EDGE_CURVE('',#451,#453,#227,.T.);
#548=EDGE_CURVE('',#454,#452,#228,.T.);
#549=EDGE_CURVE('',#453,#454,#229,.T.);
#550=EDGE_CURVE('',#453,#455,#230,.T.);
#551=EDGE_CURVE('',#455,#454,#231,.T.);
#552=EDGE_CURVE('',#455,#456,#232,.T.);
#553=EDGE_CURVE('',#457,#454,#233,.T.);
#554=EDGE_CURVE('',#456,#457,#234,.T.);
#555=EDGE_CURVE('',#456,#458,#235,.T.);
#556=EDGE_CURVE('',#458,#457,#236,.T.);
#557=EDGE_CURVE('',#458,#459,#237,.T.);
#558=EDGE_CURVE('',#460,#457,#238,.T.);
#559=EDGE_CURVE('',#459,#460,#239,.T.);
#560=EDGE_CURVE('',#459,#461,#240,.T.);
#561=EDGE_CURVE('',#460,#462,#241,.T.);
#562=EDGE_CURVE('',#461,#462,#170,.T.);
#563=EDGE_CURVE('',#452,#433,#242,.T.);
#564=EDGE_CURVE('',#463,#433,#243,.T.);
#565=EDGE_CURVE('',#452,#463,#244,.T.);
#566=EDGE_CURVE('',#464,#422,#245,.T.);
#567=EDGE_CURVE('',#465,#464,#171,.T.);
#568=EDGE_CURVE('',#424,#465,#172,.T.);
#569=EDGE_CURVE('',#466,#467,#173,.T.);
#570=EDGE_CURVE('',#463,#466,#246,.T.);
#571=EDGE_CURVE('',#463,#467,#247,.T.);
#572=EDGE_CURVE('',#467,#436,#33,.T.);
#573=EDGE_CURVE('',#460,#468,#248,.T.);
#574=EDGE_CURVE('',#469,#468,#249,.T.);
#575=EDGE_CURVE('',#460,#469,#250,.T.);
#576=EDGE_CURVE('',#468,#470,#251,.T.);
#577=EDGE_CURVE('',#454,#468,#252,.T.);
#578=EDGE_CURVE('',#454,#470,#253,.T.);
#579=EDGE_CURVE('',#457,#468,#254,.T.);
#580=EDGE_CURVE('',#454,#463,#255,.T.);
#581=EDGE_CURVE('',#470,#463,#256,.T.);
#582=EDGE_CURVE('',#463,#471,#257,.T.);
#583=EDGE_CURVE('',#470,#471,#258,.T.);
#584=EDGE_CURVE('',#472,#466,#174,.T.);
#585=EDGE_CURVE('',#471,#472,#259,.T.);
#586=EDGE_CURVE('',#473,#472,#175,.T.);
#587=EDGE_CURVE('',#474,#473,#260,.T.);
#588=EDGE_CURVE('',#471,#474,#261,.T.);
#589=EDGE_CURVE('',#475,#474,#262,.T.);
#590=EDGE_CURVE('',#476,#475,#176,.T.);
#591=EDGE_CURVE('',#471,#476,#263,.T.);
#592=EDGE_CURVE('',#468,#471,#264,.T.);
#593=EDGE_CURVE('',#468,#477,#265,.T.);
#594=EDGE_CURVE('',#477,#471,#266,.T.);
#595=EDGE_CURVE('',#478,#476,#177,.T.);
#596=EDGE_CURVE('',#471,#478,#267,.T.);
#597=EDGE_CURVE('',#479,#478,#178,.T.);
#598=EDGE_CURVE('',#477,#479,#268,.T.);
#599=EDGE_CURVE('',#480,#481,#269,.T.);
#600=EDGE_CURVE('',#469,#480,#270,.T.);
#601=EDGE_CURVE('',#468,#481,#271,.T.);
#602=EDGE_CURVE('',#482,#480,#272,.T.);
#603=EDGE_CURVE('',#469,#482,#273,.T.);
#604=EDGE_CURVE('',#483,#482,#274,.T.);
#605=EDGE_CURVE('',#483,#469,#275,.T.);
#606=EDGE_CURVE('',#484,#479,#179,.T.);
#607=EDGE_CURVE('',#477,#484,#276,.T.);
#608=EDGE_CURVE('',#485,#486,#180,.T.);
#609=EDGE_CURVE('',#487,#485,#277,.T.);
#610=EDGE_CURVE('',#487,#477,#278,.T.);
#611=EDGE_CURVE('',#477,#486,#279,.T.);
#612=EDGE_CURVE('',#481,#487,#280,.T.);
#613=EDGE_CURVE('',#488,#484,#181,.T.);
#614=EDGE_CURVE('',#489,#488,#281,.T.);
#615=EDGE_CURVE('',#486,#489,#182,.T.);
#616=EDGE_CURVE('',#490,#483,#282,.T.);
#617=EDGE_CURVE('',#462,#490,#183,.T.);
#618=EDGE_CURVE('',#491,#442,#283,.T.);
#619=EDGE_CURVE('',#492,#491,#284,.T.);
#620=EDGE_CURVE('',#492,#449,#285,.T.);
#621=EDGE_CURVE('',#493,#445,#286,.T.);
#622=EDGE_CURVE('',#491,#493,#287,.T.);
#623=EDGE_CURVE('',#447,#494,#288,.T.);
#624=EDGE_CURVE('',#494,#493,#17,.F.);
#625=EDGE_CURVE('',#495,#427,#289,.T.);
#626=EDGE_CURVE('',#464,#495,#290,.T.);
#627=EDGE_CURVE('',#495,#492,#291,.T.);
#628=EDGE_CURVE('',#490,#496,#292,.F.);
#629=EDGE_CURVE('',#496,#497,#18,.F.);
#630=EDGE_CURVE('',#497,#461,#293,.T.);
#631=EDGE_CURVE('',#494,#497,#294,.T.);
#632=EDGE_CURVE('',#475,#473,#295,.T.);
#633=EDGE_CURVE('',#465,#498,#184,.T.);
#634=EDGE_CURVE('',#498,#425,#296,.T.);
#635=EDGE_CURVE('',#495,#499,#185,.T.);
#636=EDGE_CURVE('',#499,#498,#297,.T.);
#637=EDGE_CURVE('',#492,#500,#186,.T.);
#638=EDGE_CURVE('',#500,#499,#298,.T.);
#639=EDGE_CURVE('',#491,#501,#187,.T.);
#640=EDGE_CURVE('',#501,#500,#299,.T.);
#641=EDGE_CURVE('',#502,#494,#19,.F.);
#642=EDGE_CURVE('',#493,#502,#20,.F.);
#643=EDGE_CURVE('',#502,#501,#300,.T.);
#644=EDGE_CURVE('',#497,#503,#21,.F.);
#645=EDGE_CURVE('',#503,#496,#22,.F.);
#646=EDGE_CURVE('',#489,#503,#301,.T.);
#647=EDGE_CURVE('',#496,#485,#302,.T.);
#648=EDGE_CURVE('',#503,#502,#303,.T.);
#649=EDGE_CURVE('',#428,#488,#304,.T.);
#650=ORIENTED_EDGE('',*,*,#504,.F.);
#651=ORIENTED_EDGE('',*,*,#505,.T.);
#652=ORIENTED_EDGE('',*,*,#506,.F.);
#653=ORIENTED_EDGE('',*,*,#507,.F.);
#654=ORIENTED_EDGE('',*,*,#508,.F.);
#655=ORIENTED_EDGE('',*,*,#509,.F.);
#656=ORIENTED_EDGE('',*,*,#508,.T.);
#657=ORIENTED_EDGE('',*,*,#510,.F.);
#658=ORIENTED_EDGE('',*,*,#511,.F.);
#659=ORIENTED_EDGE('',*,*,#512,.F.);
#660=ORIENTED_EDGE('',*,*,#513,.F.);
#661=ORIENTED_EDGE('',*,*,#514,.F.);
#662=ORIENTED_EDGE('',*,*,#515,.F.);
#663=ORIENTED_EDGE('',*,*,#516,.F.);
#664=ORIENTED_EDGE('',*,*,#517,.T.);
#665=ORIENTED_EDGE('',*,*,#518,.F.);
#666=ORIENTED_EDGE('',*,*,#517,.F.);
#667=ORIENTED_EDGE('',*,*,#519,.T.);
#668=ORIENTED_EDGE('',*,*,#520,.F.);
#669=ORIENTED_EDGE('',*,*,#512,.T.);
#670=ORIENTED_EDGE('',*,*,#521,.F.);
#671=ORIENTED_EDGE('',*,*,#522,.F.);
#672=ORIENTED_EDGE('',*,*,#515,.T.);
#673=ORIENTED_EDGE('',*,*,#523,.F.);
#674=ORIENTED_EDGE('',*,*,#524,.F.);
#675=ORIENTED_EDGE('',*,*,#525,.T.);
#676=ORIENTED_EDGE('',*,*,#526,.F.);
#677=ORIENTED_EDGE('',*,*,#519,.F.);
#678=ORIENTED_EDGE('',*,*,#527,.F.);
#679=ORIENTED_EDGE('',*,*,#528,.F.);
#680=ORIENTED_EDGE('',*,*,#529,.F.);
#681=ORIENTED_EDGE('',*,*,#530,.F.);
#682=ORIENTED_EDGE('',*,*,#531,.F.);
#683=ORIENTED_EDGE('',*,*,#525,.F.);
#684=ORIENTED_EDGE('',*,*,#532,.T.);
#685=ORIENTED_EDGE('',*,*,#533,.F.);
#686=ORIENTED_EDGE('',*,*,#529,.T.);
#687=ORIENTED_EDGE('',*,*,#534,.F.);
#688=ORIENTED_EDGE('',*,*,#532,.F.);
#689=ORIENTED_EDGE('',*,*,#535,.F.);
#690=ORIENTED_EDGE('',*,*,#536,.F.);
#691=ORIENTED_EDGE('',*,*,#537,.F.);
#692=ORIENTED_EDGE('',*,*,#538,.F.);
#693=ORIENTED_EDGE('',*,*,#535,.T.);
#694=ORIENTED_EDGE('',*,*,#539,.F.);
#695=ORIENTED_EDGE('',*,*,#540,.F.);
#696=ORIENTED_EDGE('',*,*,#527,.T.);
#697=ORIENTED_EDGE('',*,*,#541,.F.);
#698=ORIENTED_EDGE('',*,*,#542,.F.);
#699=ORIENTED_EDGE('',*,*,#539,.T.);
#700=ORIENTED_EDGE('',*,*,#524,.T.);
#701=ORIENTED_EDGE('',*,*,#543,.F.);
#702=ORIENTED_EDGE('',*,*,#544,.F.);
#703=ORIENTED_EDGE('',*,*,#541,.T.);
#704=ORIENTED_EDGE('',*,*,#545,.F.);
#705=ORIENTED_EDGE('',*,*,#546,.F.);
#706=ORIENTED_EDGE('',*,*,#547,.F.);
#707=ORIENTED_EDGE('',*,*,#546,.T.);
#708=ORIENTED_EDGE('',*,*,#548,.F.);
#709=ORIENTED_EDGE('',*,*,#549,.F.);
#710=ORIENTED_EDGE('',*,*,#550,.F.);
#711=ORIENTED_EDGE('',*,*,#549,.T.);
#712=ORIENTED_EDGE('',*,*,#551,.F.);
#713=ORIENTED_EDGE('',*,*,#552,.F.);
#714=ORIENTED_EDGE('',*,*,#551,.T.);
#715=ORIENTED_EDGE('',*,*,#553,.F.);
#716=ORIENTED_EDGE('',*,*,#554,.F.);
#717=ORIENTED_EDGE('',*,*,#555,.F.);
#718=ORIENTED_EDGE('',*,*,#554,.T.);
#719=ORIENTED_EDGE('',*,*,#556,.F.);
#720=ORIENTED_EDGE('',*,*,#557,.F.);
#721=ORIENTED_EDGE('',*,*,#556,.T.);
#722=ORIENTED_EDGE('',*,*,#558,.F.);
#723=ORIENTED_EDGE('',*,*,#559,.F.);
#724=ORIENTED_EDGE('',*,*,#560,.F.);
#725=ORIENTED_EDGE('',*,*,#559,.T.);
#726=ORIENTED_EDGE('',*,*,#561,.T.);
#727=ORIENTED_EDGE('',*,*,#562,.F.);
#728=ORIENTED_EDGE('',*,*,#563,.F.);
#729=ORIENTED_EDGE('',*,*,#545,.T.);
#730=ORIENTED_EDGE('',*,*,#516,.T.);
#731=ORIENTED_EDGE('',*,*,#564,.F.);
#732=ORIENTED_EDGE('',*,*,#565,.F.);
#733=ORIENTED_EDGE('',*,*,#563,.T.);
#734=ORIENTED_EDGE('',*,*,#566,.F.);
#735=ORIENTED_EDGE('',*,*,#567,.F.);
#736=ORIENTED_EDGE('',*,*,#568,.F.);
#737=ORIENTED_EDGE('',*,*,#505,.F.);
#738=ORIENTED_EDGE('',*,*,#569,.F.);
#739=ORIENTED_EDGE('',*,*,#570,.F.);
#740=ORIENTED_EDGE('',*,*,#571,.T.);
#741=ORIENTED_EDGE('',*,*,#572,.F.);
#742=ORIENTED_EDGE('',*,*,#571,.F.);
#743=ORIENTED_EDGE('',*,*,#564,.T.);
#744=ORIENTED_EDGE('',*,*,#522,.T.);
#745=ORIENTED_EDGE('',*,*,#573,.T.);
#746=ORIENTED_EDGE('',*,*,#574,.F.);
#747=ORIENTED_EDGE('',*,*,#575,.F.);
#748=ORIENTED_EDGE('',*,*,#576,.F.);
#749=ORIENTED_EDGE('',*,*,#577,.F.);
#750=ORIENTED_EDGE('',*,*,#578,.T.);
#751=ORIENTED_EDGE('',*,*,#577,.T.);
#752=ORIENTED_EDGE('',*,*,#579,.F.);
#753=ORIENTED_EDGE('',*,*,#553,.T.);
#754=ORIENTED_EDGE('',*,*,#565,.T.);
#755=ORIENTED_EDGE('',*,*,#580,.F.);
#756=ORIENTED_EDGE('',*,*,#548,.T.);
#757=ORIENTED_EDGE('',*,*,#579,.T.);
#758=ORIENTED_EDGE('',*,*,#573,.F.);
#759=ORIENTED_EDGE('',*,*,#558,.T.);
#760=ORIENTED_EDGE('',*,*,#580,.T.);
#761=ORIENTED_EDGE('',*,*,#581,.F.);
#762=ORIENTED_EDGE('',*,*,#578,.F.);
#763=ORIENTED_EDGE('',*,*,#582,.T.);
#764=ORIENTED_EDGE('',*,*,#583,.F.);
#765=ORIENTED_EDGE('',*,*,#581,.T.);
#766=ORIENTED_EDGE('',*,*,#584,.F.);
#767=ORIENTED_EDGE('',*,*,#585,.F.);
#768=ORIENTED_EDGE('',*,*,#582,.F.);
#769=ORIENTED_EDGE('',*,*,#570,.T.);
#770=ORIENTED_EDGE('',*,*,#586,.F.);
#771=ORIENTED_EDGE('',*,*,#587,.F.);
#772=ORIENTED_EDGE('',*,*,#588,.F.);
#773=ORIENTED_EDGE('',*,*,#585,.T.);
#774=ORIENTED_EDGE('',*,*,#589,.F.);
#775=ORIENTED_EDGE('',*,*,#590,.F.);
#776=ORIENTED_EDGE('',*,*,#591,.F.);
#777=ORIENTED_EDGE('',*,*,#588,.T.);
#778=ORIENTED_EDGE('',*,*,#583,.T.);
#779=ORIENTED_EDGE('',*,*,#592,.F.);
#780=ORIENTED_EDGE('',*,*,#576,.T.);
#781=ORIENTED_EDGE('',*,*,#593,.F.);
#782=ORIENTED_EDGE('',*,*,#592,.T.);
#783=ORIENTED_EDGE('',*,*,#594,.F.);
#784=ORIENTED_EDGE('',*,*,#595,.F.);
#785=ORIENTED_EDGE('',*,*,#596,.F.);
#786=ORIENTED_EDGE('',*,*,#591,.T.);
#787=ORIENTED_EDGE('',*,*,#597,.F.);
#788=ORIENTED_EDGE('',*,*,#598,.F.);
#789=ORIENTED_EDGE('',*,*,#594,.T.);
#790=ORIENTED_EDGE('',*,*,#596,.T.);
#791=ORIENTED_EDGE('',*,*,#599,.F.);
#792=ORIENTED_EDGE('',*,*,#600,.F.);
#793=ORIENTED_EDGE('',*,*,#574,.T.);
#794=ORIENTED_EDGE('',*,*,#601,.T.);
#795=ORIENTED_EDGE('',*,*,#602,.F.);
#796=ORIENTED_EDGE('',*,*,#603,.F.);
#797=ORIENTED_EDGE('',*,*,#600,.T.);
#798=ORIENTED_EDGE('',*,*,#604,.F.);
#799=ORIENTED_EDGE('',*,*,#605,.T.);
#800=ORIENTED_EDGE('',*,*,#603,.T.);
#801=ORIENTED_EDGE('',*,*,#606,.F.);
#802=ORIENTED_EDGE('',*,*,#607,.F.);
#803=ORIENTED_EDGE('',*,*,#598,.T.);
#804=ORIENTED_EDGE('',*,*,#608,.F.);
#805=ORIENTED_EDGE('',*,*,#609,.F.);
#806=ORIENTED_EDGE('',*,*,#610,.T.);
#807=ORIENTED_EDGE('',*,*,#611,.T.);
#808=ORIENTED_EDGE('',*,*,#612,.F.);
#809=ORIENTED_EDGE('',*,*,#601,.F.);
#810=ORIENTED_EDGE('',*,*,#593,.T.);
#811=ORIENTED_EDGE('',*,*,#610,.F.);
#812=ORIENTED_EDGE('',*,*,#613,.F.);
#813=ORIENTED_EDGE('',*,*,#614,.F.);
#814=ORIENTED_EDGE('',*,*,#615,.F.);
#815=ORIENTED_EDGE('',*,*,#611,.F.);
#816=ORIENTED_EDGE('',*,*,#607,.T.);
#817=ORIENTED_EDGE('',*,*,#616,.F.);
#818=ORIENTED_EDGE('',*,*,#617,.F.);
#819=ORIENTED_EDGE('',*,*,#561,.F.);
#820=ORIENTED_EDGE('',*,*,#575,.T.);
#821=ORIENTED_EDGE('',*,*,#605,.F.);
#822=ORIENTED_EDGE('',*,*,#543,.T.);
#823=ORIENTED_EDGE('',*,*,#523,.T.);
#824=ORIENTED_EDGE('',*,*,#531,.T.);
#825=ORIENTED_EDGE('',*,*,#528,.T.);
#826=ORIENTED_EDGE('',*,*,#618,.F.);
#827=ORIENTED_EDGE('',*,*,#619,.F.);
#828=ORIENTED_EDGE('',*,*,#620,.T.);
#829=ORIENTED_EDGE('',*,*,#530,.T.);
#830=ORIENTED_EDGE('',*,*,#533,.T.);
#831=ORIENTED_EDGE('',*,*,#534,.T.);
#832=ORIENTED_EDGE('',*,*,#621,.F.);
#833=ORIENTED_EDGE('',*,*,#622,.F.);
#834=ORIENTED_EDGE('',*,*,#618,.T.);
#835=ORIENTED_EDGE('',*,*,#537,.T.);
#836=ORIENTED_EDGE('',*,*,#623,.T.);
#837=ORIENTED_EDGE('',*,*,#624,.T.);
#838=ORIENTED_EDGE('',*,*,#621,.T.);
#839=ORIENTED_EDGE('',*,*,#566,.T.);
#840=ORIENTED_EDGE('',*,*,#504,.T.);
#841=ORIENTED_EDGE('',*,*,#509,.T.);
#842=ORIENTED_EDGE('',*,*,#625,.F.);
#843=ORIENTED_EDGE('',*,*,#626,.F.);
#844=ORIENTED_EDGE('',*,*,#513,.T.);
#845=ORIENTED_EDGE('',*,*,#520,.T.);
#846=ORIENTED_EDGE('',*,*,#514,.T.);
#847=ORIENTED_EDGE('',*,*,#518,.T.);
#848=ORIENTED_EDGE('',*,*,#526,.T.);
#849=ORIENTED_EDGE('',*,*,#540,.T.);
#850=ORIENTED_EDGE('',*,*,#620,.F.);
#851=ORIENTED_EDGE('',*,*,#627,.F.);
#852=ORIENTED_EDGE('',*,*,#625,.T.);
#853=ORIENTED_EDGE('',*,*,#562,.T.);
#854=ORIENTED_EDGE('',*,*,#617,.T.);
#855=ORIENTED_EDGE('',*,*,#628,.T.);
#856=ORIENTED_EDGE('',*,*,#629,.T.);
#857=ORIENTED_EDGE('',*,*,#630,.T.);
#858=ORIENTED_EDGE('',*,*,#536,.T.);
#859=ORIENTED_EDGE('',*,*,#538,.T.);
#860=ORIENTED_EDGE('',*,*,#542,.T.);
#861=ORIENTED_EDGE('',*,*,#544,.T.);
#862=ORIENTED_EDGE('',*,*,#547,.T.);
#863=ORIENTED_EDGE('',*,*,#550,.T.);
#864=ORIENTED_EDGE('',*,*,#552,.T.);
#865=ORIENTED_EDGE('',*,*,#555,.T.);
#866=ORIENTED_EDGE('',*,*,#557,.T.);
#867=ORIENTED_EDGE('',*,*,#560,.T.);
#868=ORIENTED_EDGE('',*,*,#630,.F.);
#869=ORIENTED_EDGE('',*,*,#631,.F.);
#870=ORIENTED_EDGE('',*,*,#623,.F.);
#871=ORIENTED_EDGE('',*,*,#587,.T.);
#872=ORIENTED_EDGE('',*,*,#632,.F.);
#873=ORIENTED_EDGE('',*,*,#589,.T.);
#874=ORIENTED_EDGE('',*,*,#568,.T.);
#875=ORIENTED_EDGE('',*,*,#633,.T.);
#876=ORIENTED_EDGE('',*,*,#634,.T.);
#877=ORIENTED_EDGE('',*,*,#506,.T.);
#878=ORIENTED_EDGE('',*,*,#567,.T.);
#879=ORIENTED_EDGE('',*,*,#626,.T.);
#880=ORIENTED_EDGE('',*,*,#635,.T.);
#881=ORIENTED_EDGE('',*,*,#636,.T.);
#882=ORIENTED_EDGE('',*,*,#633,.F.);
#883=ORIENTED_EDGE('',*,*,#627,.T.);
#884=ORIENTED_EDGE('',*,*,#637,.T.);
#885=ORIENTED_EDGE('',*,*,#638,.T.);
#886=ORIENTED_EDGE('',*,*,#635,.F.);
#887=ORIENTED_EDGE('',*,*,#619,.T.);
#888=ORIENTED_EDGE('',*,*,#639,.T.);
#889=ORIENTED_EDGE('',*,*,#640,.T.);
#890=ORIENTED_EDGE('',*,*,#637,.F.);
#891=ORIENTED_EDGE('',*,*,#641,.F.);
#892=ORIENTED_EDGE('',*,*,#642,.F.);
#893=ORIENTED_EDGE('',*,*,#624,.F.);
#894=ORIENTED_EDGE('',*,*,#622,.T.);
#895=ORIENTED_EDGE('',*,*,#642,.T.);
#896=ORIENTED_EDGE('',*,*,#643,.T.);
#897=ORIENTED_EDGE('',*,*,#639,.F.);
#898=ORIENTED_EDGE('',*,*,#644,.F.);
#899=ORIENTED_EDGE('',*,*,#629,.F.);
#900=ORIENTED_EDGE('',*,*,#645,.F.);
#901=ORIENTED_EDGE('',*,*,#615,.T.);
#902=ORIENTED_EDGE('',*,*,#646,.T.);
#903=ORIENTED_EDGE('',*,*,#645,.T.);
#904=ORIENTED_EDGE('',*,*,#647,.T.);
#905=ORIENTED_EDGE('',*,*,#608,.T.);
#906=ORIENTED_EDGE('',*,*,#641,.T.);
#907=ORIENTED_EDGE('',*,*,#631,.T.);
#908=ORIENTED_EDGE('',*,*,#644,.T.);
#909=ORIENTED_EDGE('',*,*,#648,.T.);
#910=ORIENTED_EDGE('',*,*,#511,.T.);
#911=ORIENTED_EDGE('',*,*,#649,.T.);
#912=ORIENTED_EDGE('',*,*,#613,.T.);
#913=ORIENTED_EDGE('',*,*,#606,.T.);
#914=ORIENTED_EDGE('',*,*,#597,.T.);
#915=ORIENTED_EDGE('',*,*,#595,.T.);
#916=ORIENTED_EDGE('',*,*,#590,.T.);
#917=ORIENTED_EDGE('',*,*,#632,.T.);
#918=ORIENTED_EDGE('',*,*,#586,.T.);
#919=ORIENTED_EDGE('',*,*,#584,.T.);
#920=ORIENTED_EDGE('',*,*,#569,.T.);
#921=ORIENTED_EDGE('',*,*,#572,.T.);
#922=ORIENTED_EDGE('',*,*,#521,.T.);
#923=ORIENTED_EDGE('',*,*,#609,.T.);
#924=ORIENTED_EDGE('',*,*,#647,.F.);
#925=ORIENTED_EDGE('',*,*,#628,.F.);
#926=ORIENTED_EDGE('',*,*,#616,.T.);
#927=ORIENTED_EDGE('',*,*,#604,.T.);
#928=ORIENTED_EDGE('',*,*,#602,.T.);
#929=ORIENTED_EDGE('',*,*,#599,.T.);
#930=ORIENTED_EDGE('',*,*,#612,.T.);
#931=ORIENTED_EDGE('',*,*,#507,.T.);
#932=ORIENTED_EDGE('',*,*,#634,.F.);
#933=ORIENTED_EDGE('',*,*,#636,.F.);
#934=ORIENTED_EDGE('',*,*,#638,.F.);
#935=ORIENTED_EDGE('',*,*,#640,.F.);
#936=ORIENTED_EDGE('',*,*,#643,.F.);
#937=ORIENTED_EDGE('',*,*,#648,.F.);
#938=ORIENTED_EDGE('',*,*,#646,.F.);
#939=ORIENTED_EDGE('',*,*,#614,.T.);
#940=ORIENTED_EDGE('',*,*,#649,.F.);
#941=ORIENTED_EDGE('',*,*,#510,.T.);
#942=PLANE('',#1076);
#943=PLANE('',#1078);
#944=PLANE('',#1080);
#945=PLANE('',#1081);
#946=PLANE('',#1082);
#947=PLANE('',#1084);
#948=PLANE('',#1085);
#949=PLANE('',#1086);
#950=PLANE('',#1087);
#951=PLANE('',#1088);
#952=PLANE('',#1090);
#953=PLANE('',#1091);
#954=PLANE('',#1092);
#955=PLANE('',#1093);
#956=PLANE('',#1094);
#957=PLANE('',#1095);
#958=PLANE('',#1096);
#959=PLANE('',#1097);
#960=PLANE('',#1098);
#961=PLANE('',#1100);
#962=PLANE('',#1101);
#963=PLANE('',#1102);
#964=PLANE('',#1105);
#965=PLANE('',#1107);
#966=PLANE('',#1108);
#967=PLANE('',#1109);
#968=PLANE('',#1110);
#969=PLANE('',#1111);
#970=PLANE('',#1112);
#971=PLANE('',#1113);
#972=PLANE('',#1114);
#973=PLANE('',#1115);
#974=PLANE('',#1117);
#975=PLANE('',#1119);
#976=PLANE('',#1121);
#977=PLANE('',#1122);
#978=PLANE('',#1123);
#979=PLANE('',#1125);
#980=PLANE('',#1127);
#981=PLANE('',#1128);
#982=PLANE('',#1129);
#983=PLANE('',#1130);
#984=PLANE('',#1132);
#985=PLANE('',#1134);
#986=PLANE('',#1135);
#987=PLANE('',#1138);
#988=PLANE('',#1140);
#989=PLANE('',#1141);
#990=PLANE('',#1144);
#991=PLANE('',#1145);
#992=PLANE('',#1148);
#993=PLANE('',#1149);
#994=PLANE('',#1168);
#995=PLANE('',#1169);
#996=ADVANCED_FACE('',(#34),#942,.F.);
#997=ADVANCED_FACE('',(#35),#943,.F.);
#998=ADVANCED_FACE('',(#36),#944,.F.);
#999=ADVANCED_FACE('',(#37),#945,.F.);
#1000=ADVANCED_FACE('',(#38),#946,.F.);
#1001=ADVANCED_FACE('',(#39),#947,.F.);
#1002=ADVANCED_FACE('',(#40),#948,.F.);
#1003=ADVANCED_FACE('',(#41),#949,.F.);
#1004=ADVANCED_FACE('',(#42),#950,.F.);
#1005=ADVANCED_FACE('',(#43),#951,.F.);
#1006=ADVANCED_FACE('',(#44),#952,.F.);
#1007=ADVANCED_FACE('',(#45),#953,.F.);
#1008=ADVANCED_FACE('',(#46),#954,.F.);
#1009=ADVANCED_FACE('',(#47),#955,.F.);
#1010=ADVANCED_FACE('',(#48),#956,.F.);
#1011=ADVANCED_FACE('',(#49),#957,.F.);
#1012=ADVANCED_FACE('',(#50),#958,.F.);
#1013=ADVANCED_FACE('',(#51),#959,.F.);
#1014=ADVANCED_FACE('',(#52),#960,.F.);
#1015=ADVANCED_FACE('',(#53),#961,.F.);
#1016=ADVANCED_FACE('',(#54),#962,.F.);
#1017=ADVANCED_FACE('',(#55),#963,.F.);
#1018=ADVANCED_FACE('',(#56),#964,.F.);
#1019=ADVANCED_FACE('',(#57),#965,.F.);
#1020=ADVANCED_FACE('',(#58),#966,.F.);
#1021=ADVANCED_FACE('',(#59),#967,.F.);
#1022=ADVANCED_FACE('',(#60),#968,.F.);
#1023=ADVANCED_FACE('',(#61),#969,.F.);
#1024=ADVANCED_FACE('',(#62),#970,.F.);
#1025=ADVANCED_FACE('',(#63),#971,.F.);
#1026=ADVANCED_FACE('',(#64),#972,.F.);
#1027=ADVANCED_FACE('',(#65),#973,.F.);
#1028=ADVANCED_FACE('',(#66),#974,.F.);
#1029=ADVANCED_FACE('',(#67),#975,.F.);
#1030=ADVANCED_FACE('',(#68),#976,.F.);
#1031=ADVANCED_FACE('',(#69),#977,.F.);
#1032=ADVANCED_FACE('',(#70),#978,.F.);
#1033=ADVANCED_FACE('',(#71),#979,.F.);
#1034=ADVANCED_FACE('',(#72),#980,.F.);
#1035=ADVANCED_FACE('',(#73),#981,.F.);
#1036=ADVANCED_FACE('',(#74),#982,.F.);
#1037=ADVANCED_FACE('',(#75),#983,.F.);
#1038=ADVANCED_FACE('',(#76),#984,.F.);
#1039=ADVANCED_FACE('',(#77),#985,.F.);
#1040=ADVANCED_FACE('',(#78),#986,.F.);
#1041=ADVANCED_FACE('',(#79),#987,.F.);
#1042=ADVANCED_FACE('',(#80),#988,.T.);
#1043=ADVANCED_FACE('',(#81),#989,.T.);
#1044=ADVANCED_FACE('',(#82),#23,.T.);
#1045=ADVANCED_FACE('',(#83),#990,.T.);
#1046=ADVANCED_FACE('',(#84),#991,.T.);
#1047=ADVANCED_FACE('',(#85),#24,.T.);
#1048=ADVANCED_FACE('',(#86),#992,.F.);
#1049=ADVANCED_FACE('',(#87),#993,.T.);
#1050=ADVANCED_FACE('',(#88),#25,.T.);
#1051=ADVANCED_FACE('',(#89),#26,.T.);
#1052=ADVANCED_FACE('',(#90),#27,.T.);
#1053=ADVANCED_FACE('',(#91),#28,.T.);
#1054=ADVANCED_FACE('',(#92),#15,.T.);
#1055=ADVANCED_FACE('',(#93),#29,.T.);
#1056=ADVANCED_FACE('',(#94),#16,.T.);
#1057=ADVANCED_FACE('',(#95),#30,.T.);
#1058=ADVANCED_FACE('',(#96),#31,.T.);
#1059=ADVANCED_FACE('',(#97),#32,.T.);
#1060=ADVANCED_FACE('',(#98),#994,.F.);
#1061=ADVANCED_FACE('',(#99),#995,.T.);
#1062=CLOSED_SHELL('',(#996,#997,#998,#999,#1000,#1001,#1002,#1003,#1004,
#1005,#1006,#1007,#1008,#1009,#1010,#1011,#1012,#1013,#1014,#1015,#1016,
#1017,#1018,#1019,#1020,#1021,#1022,#1023,#1024,#1025,#1026,#1027,#1028,
#1029,#1030,#1031,#1032,#1033,#1034,#1035,#1036,#1037,#1038,#1039,#1040,
#1041,#1042,#1043,#1044,#1045,#1046,#1047,#1048,#1049,#1050,#1051,#1052,
#1053,#1054,#1055,#1056,#1057,#1058,#1059,#1060,#1061));
#1063=DERIVED_UNIT_ELEMENT(#1065,1.);
#1064=DERIVED_UNIT_ELEMENT(#1779,-3.);
#1065=(
MASS_UNIT()
NAMED_UNIT(*)
SI_UNIT(.KILO.,.GRAM.)
);
#1066=DERIVED_UNIT((#1063,#1064));
#1067=MEASURE_REPRESENTATION_ITEM('density measure',
POSITIVE_RATIO_MEASURE(900.),#1066);
#1068=PROPERTY_DEFINITION_REPRESENTATION(#1073,#1070);
#1069=PROPERTY_DEFINITION_REPRESENTATION(#1074,#1071);
#1070=REPRESENTATION('material name',(#1072),#1776);
#1071=REPRESENTATION('density',(#1067),#1776);
#1072=DESCRIPTIVE_REPRESENTATION_ITEM('\X2\76AE9769FF0C98CE5316\X0\',
'\X2\76AE9769FF0C98CE5316\X0\');
#1073=PROPERTY_DEFINITION('material property','material name',#1786);
#1074=PROPERTY_DEFINITION('material property','density of part',#1786);
#1075=AXIS2_PLACEMENT_3D('',#1477,#1170,#1171);
#1076=AXIS2_PLACEMENT_3D('',#1478,#1172,#1173);
#1077=AXIS2_PLACEMENT_3D('',#1485,#1176,#1177);
#1078=AXIS2_PLACEMENT_3D('',#1489,#1180,#1181);
#1079=AXIS2_PLACEMENT_3D('',#1495,#1184,#1185);
#1080=AXIS2_PLACEMENT_3D('',#1499,#1188,#1189);
#1081=AXIS2_PLACEMENT_3D('',#1508,#1194,#1195);
#1082=AXIS2_PLACEMENT_3D('',#1512,#1198,#1199);
#1083=AXIS2_PLACEMENT_3D('',#1515,#1201,#1202);
#1084=AXIS2_PLACEMENT_3D('',#1517,#1204,#1205);
#1085=AXIS2_PLACEMENT_3D('',#1524,#1209,#1210);
#1086=AXIS2_PLACEMENT_3D('',#1528,#1213,#1214);
#1087=AXIS2_PLACEMENT_3D('',#1535,#1218,#1219);
#1088=AXIS2_PLACEMENT_3D('',#1540,#1223,#1224);
#1089=AXIS2_PLACEMENT_3D('',#1547,#1228,#1229);
#1090=AXIS2_PLACEMENT_3D('',#1548,#1230,#1231);
#1091=AXIS2_PLACEMENT_3D('',#1552,#1234,#1235);
#1092=AXIS2_PLACEMENT_3D('',#1559,#1240,#1241);
#1093=AXIS2_PLACEMENT_3D('',#1565,#1245,#1246);
#1094=AXIS2_PLACEMENT_3D('',#1571,#1250,#1251);
#1095=AXIS2_PLACEMENT_3D('',#1575,#1254,#1255);
#1096=AXIS2_PLACEMENT_3D('',#1581,#1259,#1260);
#1097=AXIS2_PLACEMENT_3D('',#1585,#1263,#1264);
#1098=AXIS2_PLACEMENT_3D('',#1591,#1268,#1269);
#1099=AXIS2_PLACEMENT_3D('',#1596,#1272,#1273);
#1100=AXIS2_PLACEMENT_3D('',#1597,#1274,#1275);
#1101=AXIS2_PLACEMENT_3D('',#1599,#1277,#1278);
#1102=AXIS2_PLACEMENT_3D('',#1603,#1281,#1282);
#1103=AXIS2_PLACEMENT_3D('',#1607,#1284,#1285);
#1104=AXIS2_PLACEMENT_3D('',#1608,#1286,#1287);
#1105=AXIS2_PLACEMENT_3D('',#1609,#1288,#1289);
#1106=AXIS2_PLACEMENT_3D('',#1612,#1290,#1291);
#1107=AXIS2_PLACEMENT_3D('',#1615,#1294,#1295);
#1108=AXIS2_PLACEMENT_3D('',#1619,#1296,#1297);
#1109=AXIS2_PLACEMENT_3D('',#1625,#1301,#1302);
#1110=AXIS2_PLACEMENT_3D('',#1630,#1306,#1307);
#1111=AXIS2_PLACEMENT_3D('',#1632,#1309,#1310);
#1112=AXIS2_PLACEMENT_3D('',#1634,#1312,#1313);
#1113=AXIS2_PLACEMENT_3D('',#1635,#1314,#1315);
#1114=AXIS2_PLACEMENT_3D('',#1637,#1317,#1318);
#1115=AXIS2_PLACEMENT_3D('',#1641,#1321,#1322);
#1116=AXIS2_PLACEMENT_3D('',#1643,#1323,#1324);
#1117=AXIS2_PLACEMENT_3D('',#1645,#1326,#1327);
#1118=AXIS2_PLACEMENT_3D('',#1647,#1328,#1329);
#1119=AXIS2_PLACEMENT_3D('',#1651,#1332,#1333);
#1120=AXIS2_PLACEMENT_3D('',#1655,#1335,#1336);
#1121=AXIS2_PLACEMENT_3D('',#1657,#1338,#1339);
#1122=AXIS2_PLACEMENT_3D('',#1659,#1341,#1342);
#1123=AXIS2_PLACEMENT_3D('',#1663,#1345,#1346);
#1124=AXIS2_PLACEMENT_3D('',#1665,#1347,#1348);
#1125=AXIS2_PLACEMENT_3D('',#1667,#1350,#1351);
#1126=AXIS2_PLACEMENT_3D('',#1669,#1352,#1353);
#1127=AXIS2_PLACEMENT_3D('',#1671,#1355,#1356);
#1128=AXIS2_PLACEMENT_3D('',#1677,#1360,#1361);
#1129=AXIS2_PLACEMENT_3D('',#1681,#1364,#1365);
#1130=AXIS2_PLACEMENT_3D('',#1685,#1368,#1369);
#1131=AXIS2_PLACEMENT_3D('',#1687,#1370,#1371);
#1132=AXIS2_PLACEMENT_3D('',#1689,#1373,#1374);
#1133=AXIS2_PLACEMENT_3D('',#1692,#1375,#1376);
#1134=AXIS2_PLACEMENT_3D('',#1697,#1380,#1381);
#1135=AXIS2_PLACEMENT_3D('',#1699,#1383,#1384);
#1136=AXIS2_PLACEMENT_3D('',#1701,#1385,#1386);
#1137=AXIS2_PLACEMENT_3D('',#1704,#1388,#1389);
#1138=AXIS2_PLACEMENT_3D('',#1705,#1390,#1391);
#1139=AXIS2_PLACEMENT_3D('',#1708,#1393,#1394);
#1140=AXIS2_PLACEMENT_3D('',#1709,#1395,#1396);
#1141=AXIS2_PLACEMENT_3D('',#1715,#1400,#1401);
#1142=AXIS2_PLACEMENT_3D('',#1719,#1404,#1405);
#1143=AXIS2_PLACEMENT_3D('',#1722,#1407,#1408);
#1144=AXIS2_PLACEMENT_3D('',#1723,#1409,#1410);
#1145=AXIS2_PLACEMENT_3D('',#1727,#1413,#1414);
#1146=AXIS2_PLACEMENT_3D('',#1729,#1416,#1417);
#1147=AXIS2_PLACEMENT_3D('',#1733,#1419,#1420);
#1148=AXIS2_PLACEMENT_3D('',#1735,#1422,#1423);
#1149=AXIS2_PLACEMENT_3D('',#1737,#1425,#1426);
#1150=AXIS2_PLACEMENT_3D('',#1739,#1428,#1429);
#1151=AXIS2_PLACEMENT_3D('',#1741,#1430,#1431);
#1152=AXIS2_PLACEMENT_3D('',#1743,#1433,#1434);
#1153=AXIS2_PLACEMENT_3D('',#1745,#1435,#1436);
#1154=AXIS2_PLACEMENT_3D('',#1747,#1438,#1439);
#1155=AXIS2_PLACEMENT_3D('',#1749,#1440,#1441);
#1156=AXIS2_PLACEMENT_3D('',#1751,#1443,#1444);
#1157=AXIS2_PLACEMENT_3D('',#1753,#1445,#1446);
#1158=AXIS2_PLACEMENT_3D('',#1755,#1448,#1449);
#1159=AXIS2_PLACEMENT_3D('',#1757,#1450,#1451);
#1160=AXIS2_PLACEMENT_3D('',#1758,#1452,#1453);
#1161=AXIS2_PLACEMENT_3D('',#1759,#1454,#1455);
#1162=AXIS2_PLACEMENT_3D('',#1761,#1457,#1458);
#1163=AXIS2_PLACEMENT_3D('',#1763,#1459,#1460);
#1164=AXIS2_PLACEMENT_3D('',#1764,#1461,#1462);
#1165=AXIS2_PLACEMENT_3D('',#1765,#1463,#1464);
#1166=AXIS2_PLACEMENT_3D('',#1768,#1467,#1468);
#1167=AXIS2_PLACEMENT_3D('',#1770,#1470,#1471);
#1168=AXIS2_PLACEMENT_3D('',#1772,#1473,#1474);
#1169=AXIS2_PLACEMENT_3D('',#1773,#1475,#1476);
#1170=DIRECTION('axis',(0.,0.,1.));
#1171=DIRECTION('refdir',(1.,0.,0.));
#1172=DIRECTION('center_axis',(0.59500614903113,0.721400845692764,-0.354328241111133));
#1173=DIRECTION('ref_axis',(-0.511652223164506,4.17215781283058E-16,-0.8591926457616));
#1174=DIRECTION('',(-0.164381236458525,-0.322311068739032,-0.932252317813514));
#1175=DIRECTION('',(-0.0934518005524588,0.499967026349452,0.860987650048937));
#1176=DIRECTION('center_axis',(0.59500614903113,0.721400845692764,-0.354328241111133));
#1177=DIRECTION('ref_axis',(-0.803721147298704,0.534063263790078,-0.2623142155026));
#1178=DIRECTION('',(0.511652223164506,0.,0.8591926457616));
#1179=DIRECTION('',(-0.708020861956578,0.679108118173708,0.193697245372333));
#1180=DIRECTION('center_axis',(0.656372932751681,0.734028740345457,-0.174288213880974));
#1181=DIRECTION('ref_axis',(-0.256638919714266,2.09270677519983E-16,-0.966507353768141));
#1182=DIRECTION('',(-0.173114848339956,-0.0783148093154834,-0.98178309209627));
#1183=DIRECTION('',(0.256638919714266,0.,0.966507353768141));
#1184=DIRECTION('center_axis',(0.656372932751681,0.734028740345457,-0.174288213880974));
#1185=DIRECTION('ref_axis',(0.116176179355338,0.129921040821786,0.984694682885096));
#1186=DIRECTION('',(-0.705728868158482,0.51572502014208,-0.48577203320817));
#1187=DIRECTION('',(0.745437903853402,-0.666575075665634,-1.44013202057211E-16));
#1188=DIRECTION('center_axis',(0.698561945393218,0.710760951346429,-0.0826442889107386));
#1189=DIRECTION('ref_axis',(-0.117486974654415,9.58022220989862E-17,-0.993074423588964));
#1190=DIRECTION('',(0.713200732951712,-0.700959852286236,-1.37785214208969E-16));
#1191=DIRECTION('',(-0.265974955775457,0.365145050785221,0.89214708136456));
#1192=DIRECTION('',(-0.672731022334895,0.613010801635437,-0.414307529097077));
#1193=DIRECTION('',(-0.705492537805318,0.70343063134639,0.0864038539917748));
#1194=DIRECTION('center_axis',(0.696512203116881,0.710699389263595,-0.0988793659446748));
#1195=DIRECTION('ref_axis',(-0.140554303522868,1.14611978414399E-16,-0.990072970927498));
#1196=DIRECTION('',(0.714199374943757,-0.699942321073635,-1.3797814460631E-16));
#1197=DIRECTION('',(-0.43017177118338,0.523871878071569,0.735194193830937));
#1198=DIRECTION('center_axis',(0.638531108650511,0.760068528730705,-0.120722222141124));
#1199=DIRECTION('ref_axis',(-0.185771386991014,1.51483274877888E-16,-0.982592993958045));
#1200=DIRECTION('',(0.76566837637271,-0.64323552251316,-1.4792158277085E-16));
#1201=DIRECTION('center_axis',(0.638531108650511,0.760068528730705,-0.120722222141124));
#1202=DIRECTION('ref_axis',(0.0776528216378957,0.0924331878189001,0.992686327638952));
#1203=DIRECTION('',(-0.760112833580107,0.647404952741409,0.0556354868111635));
#1204=DIRECTION('center_axis',(0.734621278800284,0.676467232905439,-0.0521886916783167));
#1205=DIRECTION('ref_axis',(-0.0708630333687915,5.7783733740498E-17,-0.997486055291889));
#1206=DIRECTION('',(-0.16787294584703,0.255754489522558,0.952054785787927));
#1207=DIRECTION('',(-0.612068275724227,0.627563428381678,-0.481182469765686));
#1208=DIRECTION('',(-0.67055515053741,0.73561274074326,0.0960712534733457));
#1209=DIRECTION('center_axis',(0.734621278800284,0.676467232905439,-0.0521886916783167));
#1210=DIRECTION('ref_axis',(-0.0708630333687915,5.7783733740498E-17,-0.997486055291889));
#1211=DIRECTION('',(0.677390352247016,-0.73562375619787,-1.30866908115984E-16));
#1212=DIRECTION('',(-0.612068275724227,0.627563428381678,-0.481182469765686));
#1213=DIRECTION('center_axis',(0.747690557042232,0.647818717277063,-0.14591004233903));
#1214=DIRECTION('ref_axis',(-0.191534641086896,1.56182796254878E-16,-0.981485853827611));
#1215=DIRECTION('',(-0.159972866375694,0.388978053777229,0.907251208708604));
#1216=DIRECTION('',(-0.625401166872818,0.613101647140595,-0.482679760035168));
#1217=DIRECTION('',(0.654826763739236,-0.755779008368715,0.));
#1218=DIRECTION('center_axis',(0.730628250943448,0.677291023384861,-0.0863668256080245));
#1219=DIRECTION('ref_axis',(-0.117391654380152,9.57244952351166E-17,-0.993085695940633));
#1220=DIRECTION('',(-0.165724642338123,0.298626124357484,0.939871151154843));
#1221=DIRECTION('',(-0.27865831086302,0.411272422442554,0.867873573929523));
#1222=DIRECTION('',(0.679831277779751,-0.733368552470278,0.));
#1223=DIRECTION('center_axis',(0.778238800754258,0.62621639110283,-0.0468764388016201));
#1224=DIRECTION('ref_axis',(-0.0601250315769262,4.90276615410989E-17,-0.998190853783921));
#1225=DIRECTION('',(0.626905551191656,-0.779095263677739,0.));
#1226=DIRECTION('',(-0.596515479379481,0.713868230861209,-0.366826160228187));
#1227=DIRECTION('',(0.,-0.0746477615402166,-0.997209963697232));
#1228=DIRECTION('center_axis',(0.778238800754258,0.62621639110283,-0.0468764388016201));
#1229=DIRECTION('ref_axis',(0.62508347408842,-0.779649300335829,-0.0376512802890464));
#1230=DIRECTION('center_axis',(0.763068551678696,0.646106883239265,0.0165009354225864));
#1231=DIRECTION('ref_axis',(0.0216193927561278,-1.76290680099026E-17,-0.999766273614416));
#1232=DIRECTION('',(0.,0.025530693426255,-0.99967403872121));
#1233=DIRECTION('',(-0.330605819385819,0.368261561040295,0.86895524329415));
#1234=DIRECTION('center_axis',(0.722610507085645,0.691022915946662,-0.0179272051920959));
#1235=DIRECTION('ref_axis',(-0.0248013149676945,2.02236979195007E-17,-0.999692400079081));
#1236=DIRECTION('',(0.691133984810683,-0.722726653057507,-1.33522078349695E-16));
#1237=DIRECTION('',(-0.673924611718151,0.710027474995788,0.20417297194204));
#1238=DIRECTION('',(0.,-0.0259342707271836,-0.999663650235343));
#1239=DIRECTION('',(-0.170038747458618,0.202829256952259,0.964337657092628));
#1240=DIRECTION('center_axis',(0.725554392571774,0.688162631433322,0.00173669760448979));
#1241=DIRECTION('ref_axis',(0.00239360776694572,-1.9518158806534E-18,-0.999997135316826));
#1242=DIRECTION('',(0.,0.00252366518427375,-0.999996815551948));
#1243=DIRECTION('',(-0.252839205063009,0.264228531908784,0.930728542222938));
#1244=DIRECTION('',(-0.663964010069553,0.700699846387438,-0.261096761000552));
#1245=DIRECTION('center_axis',(0.71075621197291,0.699868196661735,0.0707821619009404));
#1246=DIRECTION('ref_axis',(0.099096927640511,-8.08064544947E-17,-0.995077785367662));
#1247=DIRECTION('',(0.,0.100623110915264,-0.994924615008461));
#1248=DIRECTION('',(-0.352838021147067,0.267649564229798,0.896587442250125));
#1249=DIRECTION('',(-0.322445821330232,0.413575779455902,-0.851459785870193));
#1250=DIRECTION('center_axis',(0.712792527934082,0.697964121697378,0.0690861559543546));
#1251=DIRECTION('ref_axis',(0.0964711612879944,-7.86653298974956E-17,-0.995335780045983));
#1252=DIRECTION('',(0.,0.0985010322108397,-0.995136948692691));
#1253=DIRECTION('',(-0.691485810723144,0.682842422594912,0.235740534217745));
#1254=DIRECTION('center_axis',(0.717733886298301,0.686408809550299,0.117051333315253));
#1255=DIRECTION('ref_axis',(0.160958163074375,-1.3124986606251E-16,-0.986961230109736));
#1256=DIRECTION('',(0.,0.168100517926804,-0.985769859486858));
#1257=DIRECTION('',(-0.182531058013736,0.0232456431304323,0.982925252974934));
#1258=DIRECTION('',(-0.458086972034104,0.592058725487632,-0.663040565596546));
#1259=DIRECTION('center_axis',(0.700809723605703,0.699405337905351,0.140349223757027));
#1260=DIRECTION('ref_axis',(0.196368080023103,-1.60124119893672E-16,-0.980530253050889));
#1261=DIRECTION('',(0.,0.196747132968464,-0.980454264955122));
#1262=DIRECTION('',(-0.247530237160222,0.0539038361706773,0.96737953158907));
#1263=DIRECTION('center_axis',(0.690167037079551,0.710562651800196,0.137004302105834));
#1264=DIRECTION('ref_axis',(0.194709627866016,-1.58771770815307E-16,-0.980860928376841));
#1265=DIRECTION('',(0.,0.189323960474963,-0.981914679587832));
#1266=DIRECTION('',(-0.0144851921831071,-0.175720909203039,0.984333450247565));
#1267=DIRECTION('',(-0.723175282318648,0.670383296563493,0.166143753213919));
#1268=DIRECTION('center_axis',(0.689400032296748,0.715204132095337,0.114937569588877));
#1269=DIRECTION('ref_axis',(0.164451280879215,-1.34098253713493E-16,-0.986385206811814));
#1270=DIRECTION('',(0.,0.158670086075085,-0.987331658453696));
#1271=DIRECTION('',(-0.0254420497437215,0.182478882238317,-0.982880541898095));
#1272=DIRECTION('center_axis',(0.689400032296748,0.715204132095337,0.114937569588877));
#1273=DIRECTION('ref_axis',(0.705466775749523,-0.698915623973134,0.117616235613185));
#1274=DIRECTION('center_axis',(0.680995272087507,0.731932962152299,-0.0227942604491392));
#1275=DIRECTION('ref_axis',(-0.0334532456539018,2.72787283824327E-17,-0.99944028353635));
#1276=DIRECTION('',(-0.73126944493818,0.68135973925533,0.0315262528968203));
#1277=DIRECTION('center_axis',(0.681909433911464,0.731355551361989,0.0108895102987825));
#1278=DIRECTION('ref_axis',(0.015967108733705,-1.30200347883457E-17,-0.999872517593461));
#1279=DIRECTION('',(-0.269203924953106,0.237104906968627,0.933440147990883));
#1280=DIRECTION('',(-0.652754817784756,0.615205136000053,-0.44207893921555));
#1281=DIRECTION('center_axis',(0.820743611995786,0.528214434671056,-0.217645202964014));
#1282=DIRECTION('ref_axis',(-0.256321258165366,2.09011647254292E-16,-0.966591647290894));
#1283=DIRECTION('',(-0.172065049672561,-0.134724252447303,-0.975829387999611));
#1284=DIRECTION('center_axis',(0.820743611995786,0.528214434671056,-0.217645202964014));
#1285=DIRECTION('ref_axis',(0.233194550707927,0.0380335431905626,0.971686035256502));
#1286=DIRECTION('center_axis',(0.820743611995786,0.528214434671056,-0.217645202964014));
#1287=DIRECTION('ref_axis',(-0.571296703445863,0.758850209366414,-0.31267624850065));
#1288=DIRECTION('center_axis',(0.612345711120956,0.783769235131911,-0.10362681184187));
#1289=DIRECTION('ref_axis',(-0.16685685749579,1.36059829334854E-16,-0.985981130198053));
#1290=DIRECTION('center_axis',(0.612345711120956,0.783769235131911,-0.10362681184187));
#1291=DIRECTION('ref_axis',(0.0637989112054646,0.0816591394854704,0.994616249549287));
#1292=DIRECTION('',(-0.782506166736695,0.619551741873997,0.0619656207904));
#1293=DIRECTION('',(-0.698203609143228,0.597610809541104,0.39417387089836));
#1294=DIRECTION('center_axis',(0.648119045760269,0.761511162491852,-0.00651551403243746));
#1295=DIRECTION('ref_axis',(-0.0100524508030379,8.19705441654515E-18,-0.999949472839929));
#1296=DIRECTION('center_axis',(0.653497780965905,0.744216445113987,0.138139542110641));
#1297=DIRECTION('ref_axis',(0.206814752327387,-1.6864263373943E-16,-0.978380119493319));
#1298=DIRECTION('',(-0.385034041826699,0.169713675094948,0.907163742176881));
#1299=DIRECTION('',(-0.124977564932497,-0.0739074186835697,0.989403002687517));
#1300=DIRECTION('',(-0.623174367435283,0.632574901509585,-0.459894228874176));
#1301=DIRECTION('center_axis',(0.654427336000342,0.746947866904817,0.117446779529448));
#1302=DIRECTION('ref_axis',(0.176642880848071,-1.44039631226986E-16,-0.98427500864631));
#1303=DIRECTION('',(-0.429468410658581,0.239354017022269,0.870785012951932));
#1304=DIRECTION('',(-0.365998934744913,0.448845992488939,-0.815219022589763));
#1305=DIRECTION('',(-0.715879067049181,0.662074412527909,-0.221753542557088));
#1306=DIRECTION('center_axis',(0.667112234691298,0.737312901299263,0.106446944074711));
#1307=DIRECTION('ref_axis',(0.157570460311159,-1.28487436835939E-16,-0.987507746823958));
#1308=DIRECTION('',(-0.71452538859632,0.673718035605516,-0.188566904707912));
#1309=DIRECTION('center_axis',(0.669908078525048,0.741234742881948,0.0423582609606493));
#1310=DIRECTION('ref_axis',(0.0631039401057031,-5.14567483170012E-17,-0.998006960267881));
#1311=DIRECTION('',(-0.736213802093158,0.655828921214997,0.166966055548756));
#1312=DIRECTION('center_axis',(0.659084924404508,0.738626256970289,0.141556755178847));
#1313=DIRECTION('ref_axis',(0.209988979661081,-1.71230989026554E-16,-0.977703752892919));
#1314=DIRECTION('center_axis',(0.670349742749957,0.740557516531001,0.0469658078233919));
#1315=DIRECTION('ref_axis',(0.0698903251151594,-5.69905597530111E-17,-0.997554681436209));
#1316=DIRECTION('',(-0.249200910056348,0.16505551912428,0.954282757904439));
#1317=DIRECTION('center_axis',(0.615615930206702,0.787664622422682,0.0245248661458404));
#1318=DIRECTION('ref_axis',(0.0398063579081708,-3.24592368854454E-17,-0.999207412837839));
#1319=DIRECTION('',(-0.581104501664449,0.474755603333201,-0.661002780061507));
#1320=DIRECTION('',(-0.781916237228525,0.614405466844775,-0.105417836582045));
#1321=DIRECTION('center_axis',(0.621453179778883,0.783282842592096,0.0162460408580442));
#1322=DIRECTION('ref_axis',(0.0261330908202595,-2.13096658438278E-17,-0.99965847246156));
#1323=DIRECTION('center_axis',(0.621453179778883,0.783282842592096,0.0162460408580442));
#1324=DIRECTION('ref_axis',(0.0100974863721803,0.0127269247080697,-0.999868024369436));
#1325=DIRECTION('',(-0.670758864302901,0.521233499500052,0.527634518353389));
#1326=DIRECTION('center_axis',(0.576340609251976,0.814073852472534,-0.0715210797428828));
#1327=DIRECTION('ref_axis',(-0.12315054700762,1.00420460146661E-16,-0.992388000114735));
#1328=DIRECTION('center_axis',(0.576340609251976,0.814073852472534,-0.0715210797428828));
#1329=DIRECTION('ref_axis',(0.0413263357642724,0.0583729288273804,0.997439088442203));
#1330=DIRECTION('',(0.,0.0875186503599423,0.996162881179165));
#1331=DIRECTION('',(-0.804826529111807,0.580607316187456,0.123082908754389));
#1332=DIRECTION('center_axis',(0.588361970106271,0.807755774414803,0.0368890367481963));
#1333=DIRECTION('ref_axis',(0.0625749893519106,-5.1025426821633E-17,-0.998040265073313));
#1334=DIRECTION('',(0.,-0.0456210030168191,0.998958820013988));
#1335=DIRECTION('center_axis',(0.588361970106271,0.807755774414803,0.0368890367481963));
#1336=DIRECTION('ref_axis',(0.0217188889104628,0.0298176272816056,-0.999319367853836));
#1337=DIRECTION('',(-0.74776774495455,0.560893513528849,-0.35530531390179));
#1338=DIRECTION('center_axis',(0.608726284067684,0.788989807581328,0.0833510324946774));
#1339=DIRECTION('ref_axis',(0.135661099952945,-1.10621920992525E-16,-0.990755300747645));
#1340=DIRECTION('',(-0.714597362617001,0.499603727853961,0.489639382050966));
#1341=DIRECTION('center_axis',(0.61399682837961,0.783350650155594,0.09679697123664));
#1342=DIRECTION('ref_axis',(0.1557272811341,-1.2698445608928E-16,-0.987800088029243));
#1343=DIRECTION('',(-0.683872949182859,0.589197488313356,-0.430306994064901));
#1344=DIRECTION('',(-0.148570468295553,-0.00574364805621356,0.988885143207969));
#1345=DIRECTION('center_axis',(0.580535994103361,0.812014788758874,0.0600827961009133));
#1346=DIRECTION('ref_axis',(0.102945513472912,-8.39447008898178E-17,-0.99468699662547));
#1347=DIRECTION('center_axis',(0.580535994103361,0.812014788758874,0.0600827961009133));
#1348=DIRECTION('ref_axis',(0.0349433545356178,0.0488764192745544,-0.998193396898966));
#1349=DIRECTION('',(-0.429451008626956,0.368049180764282,-0.824688809023156));
#1350=DIRECTION('center_axis',(0.546705254599977,0.832795800169617,0.0869742479853768));
#1351=DIRECTION('ref_axis',(0.157112250993429,-1.28113799920407E-16,-0.987580751426322));
#1352=DIRECTION('center_axis',(0.546705254599977,0.832795800169617,0.0869742479853768));
#1353=DIRECTION('ref_axis',(0.0477301489160453,0.0727073084158255,-0.996210560166563));
#1354=DIRECTION('',(-0.83327468496482,0.53091321785341,0.15422209473781));
#1355=DIRECTION('center_axis',(0.605742542636425,0.784109309380513,0.13508724211847));
#1356=DIRECTION('ref_axis',(0.217664021056304,-1.77489436165282E-16,-0.976023756851031));
#1357=DIRECTION('',(-0.79136317528013,0.611346321499157,0.));
#1358=DIRECTION('',(-0.57001357846528,0.546108746322675,-0.613880898509704));
#1359=DIRECTION('',(-0.132362407690063,0.266719769899634,-0.954641690570434));
#1360=DIRECTION('center_axis',(0.619362049761962,0.776533233455877,0.11570129062902));
#1361=DIRECTION('ref_axis',(0.183630604061362,-1.49737619563265E-16,-0.98299532107333));
#1362=DIRECTION('',(-0.781783650465872,0.623549776573013,0.));
#1363=DIRECTION('',(-0.124984001128562,0.24301310220395,-0.961937436437063));
#1364=DIRECTION('center_axis',(0.645265957611693,0.756392632584082,0.10724751428349));
#1365=DIRECTION('ref_axis',(0.163957475423204,-1.33695590693958E-16,-0.986467407597864));
#1366=DIRECTION('',(-0.760780546631627,0.649009214007693,0.));
#1367=DIRECTION('',(-0.428182738487132,0.241815207290314,0.870738162701511));
#1368=DIRECTION('center_axis',(0.548551012413526,0.828718675462576,0.110982628008396));
#1369=DIRECTION('ref_axis',(0.198301750551309,-1.6170088986289E-16,-0.980141018286801));
#1370=DIRECTION('center_axis',(0.548551012413526,0.828718675462576,0.110982628008396));
#1371=DIRECTION('ref_axis',(0.0612580640518857,0.0925450879748091,-0.993822346438411));
#1372=DIRECTION('',(-0.623181035091559,0.493727144445048,-0.606530217170053));
#1373=DIRECTION('center_axis',(0.556669043239655,0.82067036781837,0.128917507280853));
#1374=DIRECTION('ref_axis',(0.225616162826877,-1.83973838834664E-16,-0.97421627325316));
#1375=DIRECTION('center_axis',(0.556669043239655,0.82067036781837,0.128917507280853));
#1376=DIRECTION('ref_axis',(-0.830734359647323,0.549925235622292,0.086386682579664));
#1377=DIRECTION('',(-0.82757622549742,0.561353356622585,0.));
#1378=DIRECTION('',(-0.241092869486855,0.0110914238920259,0.970438668128307));
#1379=DIRECTION('',(-0.162214079333202,0.259579374227717,-0.95200059923386));
#1380=DIRECTION('center_axis',(0.594859242264736,0.791766938116409,0.138735711329096));
#1381=DIRECTION('ref_axis',(0.227129038986932,-1.8520748110284E-16,-0.973864672143349));
#1382=DIRECTION('',(-0.799498535596531,0.600668037753801,0.));
#1383=DIRECTION('center_axis',(0.528904729572048,0.837353735335904,0.138197355095267));
#1384=DIRECTION('ref_axis',(0.252802460257351,-2.06142319316377E-16,-0.967517915125002));
#1385=DIRECTION('center_axis',(0.528904729572048,0.837353735335904,0.138197355095267));
#1386=DIRECTION('ref_axis',(0.073801380316581,0.11684119658192,-0.99040471073429));
#1387=DIRECTION('',(-0.252802460257351,0.,0.967517915125002));
#1388=DIRECTION('center_axis',(0.528904729572048,0.837353735335904,0.138197355095267));
#1389=DIRECTION('ref_axis',(-0.848681204597061,0.521845362599084,0.0861256668915369));
#1390=DIRECTION('center_axis',(0.662140513989581,0.739678981625019,0.120187120257491));
#1391=DIRECTION('ref_axis',(0.178594777031496,-1.45631262914061E-16,-0.983922713233651));
#1392=DIRECTION('',(-0.745079874960213,0.666975246863985,0.));
#1393=DIRECTION('center_axis',(0.662140513989581,0.739678981625019,0.120187120257491));
#1394=DIRECTION('ref_axis',(0.727786950522393,-0.672959883010997,0.132102802798204));
#1395=DIRECTION('center_axis',(-0.984807753012208,0.,-0.17364817766693));
#1396=DIRECTION('ref_axis',(0.17364817766693,0.,-0.984807753012208));
#1397=DIRECTION('',(0.,-1.,0.));
#1398=DIRECTION('',(-0.17364817766693,0.,0.984807753012208));
#1399=DIRECTION('',(0.,-1.,0.));
#1400=DIRECTION('center_axis',(0.,0.,1.));
#1401=DIRECTION('ref_axis',(-1.,0.,0.));
#1402=DIRECTION('',(0.,-1.,0.));
#1403=DIRECTION('',(1.,0.,0.));
#1404=DIRECTION('center_axis',(0.,-1.,0.));
#1405=DIRECTION('ref_axis',(0.707106781186546,0.,0.707106781186549));
#1406=DIRECTION('',(0.,1.,0.));
#1407=DIRECTION('center_axis',(0.,1.,4.44089209850062E-15));
#1408=DIRECTION('ref_axis',(1.,0.,0.));
#1409=DIRECTION('center_axis',(0.984807753012208,0.,-0.17364817766693));
#1410=DIRECTION('ref_axis',(0.17364817766693,0.,0.984807753012208));
#1411=DIRECTION('',(0.,-1.,0.));
#1412=DIRECTION('',(-0.17364817766693,0.,-0.984807753012208));
#1413=DIRECTION('center_axis',(1.93192754638263E-16,0.,1.));
#1414=DIRECTION('ref_axis',(-1.,0.,1.93192754638263E-16));
#1415=DIRECTION('',(1.,0.,-1.93192754638263E-16));
#1416=DIRECTION('center_axis',(0.,-1.,0.));
#1417=DIRECTION('ref_axis',(0.707106781186548,0.,-0.707106781186548));
#1418=DIRECTION('',(0.,-1.,0.));
#1419=DIRECTION('center_axis',(0.,1.,0.));
#1420=DIRECTION('ref_axis',(0.,0.,-1.));
#1421=DIRECTION('',(0.,-1.,0.));
#1422=DIRECTION('center_axis',(-1.,0.,0.));
#1423=DIRECTION('ref_axis',(0.,0.,-1.));
#1424=DIRECTION('',(0.,0.,-1.));
#1425=DIRECTION('center_axis',(-1.,0.,0.));
#1426=DIRECTION('ref_axis',(0.,0.,-1.));
#1427=DIRECTION('',(0.,0.,1.));
#1428=DIRECTION('center_axis',(1.,0.,0.));
#1429=DIRECTION('ref_axis',(0.,0.707106781186548,0.707106781186548));
#1430=DIRECTION('center_axis',(-0.642787609686541,0.,0.766044443118977));
#1431=DIRECTION('ref_axis',(-0.766044443118977,0.,-0.642787609686541));
#1432=DIRECTION('',(-1.,0.,0.));
#1433=DIRECTION('center_axis',(-0.17364817766693,0.,-0.984807753012208));
#1434=DIRECTION('ref_axis',(0.696364240320019,0.707106781186547,-0.122787803968974));
#1435=DIRECTION('center_axis',(-0.642787609686538,8.50480178636846E-16,
0.766044443118979));
#1436=DIRECTION('ref_axis',(0.766044443118979,-7.13637604217767E-16,0.642787609686538));
#1437=DIRECTION('',(0.17364817766693,0.,0.984807753012208));
#1438=DIRECTION('center_axis',(-1.,0.,1.93192754638263E-16));
#1439=DIRECTION('ref_axis',(0.,0.707106781186549,0.707106781186546));
#1440=DIRECTION('center_axis',(-0.642787609686539,-1.70096035727369E-15,
-0.766044443118978));
#1441=DIRECTION('ref_axis',(0.766044443118978,-1.42727520843553E-15,-0.642787609686539));
#1442=DIRECTION('',(-1.,0.,1.93192754638263E-16));
#1443=DIRECTION('center_axis',(0.17364817766693,0.,-0.984807753012208));
#1444=DIRECTION('ref_axis',(-0.696364240320019,0.707106781186547,-0.122787803968974));
#1445=DIRECTION('center_axis',(-0.642787609686539,0.,-0.766044443118978));
#1446=DIRECTION('ref_axis',(-0.766044443118978,0.,0.642787609686539));
#1447=DIRECTION('',(0.17364817766693,0.,-0.984807753012208));
#1448=DIRECTION('center_axis',(-0.816496580927727,0.408248290463864,0.40824829046386));
#1449=DIRECTION('ref_axis',(0.577350269189625,0.577350269189629,0.577350269189623));
#1450=DIRECTION('center_axis',(4.44089209850064E-15,0.,1.));
#1451=DIRECTION('ref_axis',(0.,1.,0.));
#1452=DIRECTION('center_axis',(1.,0.,0.));
#1453=DIRECTION('ref_axis',(0.,0.,1.));
#1454=DIRECTION('center_axis',(-1.,0.,0.));
#1455=DIRECTION('ref_axis',(0.,0.707106781186549,0.707106781186546));
#1456=DIRECTION('',(-1.,0.,0.));
#1457=DIRECTION('center_axis',(0.408248290463862,-0.816496580927727,-0.408248290463862));
#1458=DIRECTION('ref_axis',(0.577350269189626,0.577350269189626,-0.577350269189626));
#1459=DIRECTION('center_axis',(0.,0.,-1.));
#1460=DIRECTION('ref_axis',(1.,0.,0.));
#1461=DIRECTION('center_axis',(1.,0.,0.));
#1462=DIRECTION('ref_axis',(0.,1.,0.));
#1463=DIRECTION('center_axis',(-1.,0.,0.));
#1464=DIRECTION('ref_axis',(0.,0.707106781186549,-0.707106781186546));
#1465=DIRECTION('',(1.,0.,0.));
#1466=DIRECTION('',(-1.,0.,0.));
#1467=DIRECTION('center_axis',(0.,0.,1.));
#1468=DIRECTION('ref_axis',(0.707106781186546,0.707106781186549,0.));
#1469=DIRECTION('',(0.,0.,1.));
#1470=DIRECTION('center_axis',(0.,0.,-1.));
#1471=DIRECTION('ref_axis',(-0.707106781186546,0.707106781186549,0.));
#1472=DIRECTION('',(0.,0.,-1.));
#1473=DIRECTION('center_axis',(0.,0.,1.));
#1474=DIRECTION('ref_axis',(1.,0.,0.));
#1475=DIRECTION('center_axis',(0.,1.,0.));
#1476=DIRECTION('ref_axis',(-1.,0.,0.));
#1477=CARTESIAN_POINT('',(0.,0.,0.));
#1478=CARTESIAN_POINT('Origin',(23.0189275293013,7.69589177867483,-3.77337026167623));
#1479=CARTESIAN_POINT('',(22.7001702020746,9.40124311571138,-0.836603709482354));
#1480=CARTESIAN_POINT('',(22.2208378801918,8.46139063451774,-3.5550323921317));
#1481=CARTESIAN_POINT('',(22.1931672156565,8.40713528487309,-3.71196052884723));
#1482=CARTESIAN_POINT('',(22.6219231421063,9.81986479728087,-0.115699972078415));
#1483=CARTESIAN_POINT('',(23.0189275293013,7.69589177867483,-3.77337026167623));
#1484=CARTESIAN_POINT('',(22.1746705532609,10.0000000000001,-0.499999999999996));
#1485=CARTESIAN_POINT('Origin',(22.7808834864108,9.50000000000009,-0.499999999999996));
#1486=CARTESIAN_POINT('',(20.6167228652029,10.0000000000001,-3.11618563441738));
#1487=CARTESIAN_POINT('',(17.2047719083229,10.0000000000001,-8.84570861336483));
#1488=CARTESIAN_POINT('',(23.0189275293013,7.69589177867483,-3.77337026167623));
#1489=CARTESIAN_POINT('Origin',(23.0189275293013,7.69589177867483,-3.77337026167623));
#1490=CARTESIAN_POINT('',(22.1266442504431,8.41877871403123,-4.08923101204883));
#1491=CARTESIAN_POINT('',(22.1726750142531,8.43960240723254,-3.82817757811026));
#1492=CARTESIAN_POINT('',(20.5,10.0000000000001,-3.55576630167193));
#1493=CARTESIAN_POINT('',(18.2092665618566,10.0000000000001,-12.1827146848446));
#1494=CARTESIAN_POINT('',(20.1144695088012,9.8183806532377,-5.77258630858061));
#1495=CARTESIAN_POINT('Origin',(20.5,9.50000000000009,-5.66155625728748));
#1496=CARTESIAN_POINT('',(22.5600455134224,8.03122868716703,-4.08923101204883));
#1497=CARTESIAN_POINT('',(23.0189275293013,7.69589177867483,-3.77337026167623));
#1498=CARTESIAN_POINT('',(23.7579658020047,6.96004113032903,-4.08923101204883));
#1499=CARTESIAN_POINT('Origin',(27.1593284158369,3.56759182712148,-4.28045796919555));
#1500=CARTESIAN_POINT('',(23.1130947925994,7.56661377940207,-4.08923101204883));
#1501=CARTESIAN_POINT('',(25.5979490900134,5.12440779055032,-4.08923101204883));
#1502=CARTESIAN_POINT('',(25.7441800845307,4.98068660297906,-4.08923101204883));
#1503=CARTESIAN_POINT('',(23.7889289407394,6.63879148265432,-6.3561491923403));
#1504=CARTESIAN_POINT('',(23.7889289407394,6.63879148265432,-6.3561491923403));
#1505=CARTESIAN_POINT('',(27.1593284158369,3.56759182712148,-4.28045796919555));
#1506=CARTESIAN_POINT('',(27.1593284158369,3.56759182712148,-4.28045796919555));
#1507=CARTESIAN_POINT('',(27.1593284158369,3.56759182712148,-4.28045796919555));
#1508=CARTESIAN_POINT('Origin',(27.1593284158369,3.56759182712148,-4.28045796919555));
#1509=CARTESIAN_POINT('',(27.0474390136299,3.70385300276592,-4.08923101204883));
#1510=CARTESIAN_POINT('',(25.7469590061714,4.97837245330737,-4.08923101204883));
#1511=CARTESIAN_POINT('',(27.1593284158369,3.56759182712148,-4.28045796919555));
#1512=CARTESIAN_POINT('Origin',(19.7013282327316,10.1202916314275,-6.05696248579754));
#1513=CARTESIAN_POINT('',(22.2802936661658,8.26624730775655,-4.08923101204883));
#1514=CARTESIAN_POINT('',(20.0913479092657,9.78810322583844,-6.08550947725899));
#1515=CARTESIAN_POINT('Origin',(20.5,9.50000000000009,-5.73794399329719));
#1516=CARTESIAN_POINT('',(23.7889289407394,6.63879148265432,-6.3561491923403));
#1517=CARTESIAN_POINT('Origin',(25.7150268106122,5.32649151584219,-1.812043662555));
#1518=CARTESIAN_POINT('',(27.8160402407422,2.89425465111989,-3.76417860892589));
#1519=CARTESIAN_POINT('',(27.5173577107449,3.34929758614024,-2.07026580671526));
#1520=CARTESIAN_POINT('',(27.1155273845789,3.96148622335472,0.208627216641148));
#1521=CARTESIAN_POINT('',(29.5925282983441,1.07279292842458,-2.36757802534768));
#1522=CARTESIAN_POINT('',(29.5925282983441,1.07279292842458,-2.36757802534768));
#1523=CARTESIAN_POINT('',(29.5925282983441,1.07279292842458,-2.36757802534768));
#1524=CARTESIAN_POINT('Origin',(25.7150268106122,5.32649151584219,-1.812043662555));
#1525=CARTESIAN_POINT('',(27.4025707641913,3.31819154268386,-4.08923101204883));
#1526=CARTESIAN_POINT('',(24.9582513726746,5.9726424160543,-4.08923101204883));
#1527=CARTESIAN_POINT('',(29.5925282983441,1.07279292842458,-2.36757802534768));
#1528=CARTESIAN_POINT('Origin',(25.7150268106122,5.32649151584219,-1.812043662555));
#1529=CARTESIAN_POINT('',(27.2613856214708,3.81054433789169,-0.618575950485146));
#1530=CARTESIAN_POINT('',(27.1523139917829,4.07575475262965,4.65339572430779E-15));
#1531=CARTESIAN_POINT('',(27.0421839765297,4.34353865852679,0.624578353299695));
#1532=CARTESIAN_POINT('',(28.0628655119984,3.02482683837116,4.44089209850063E-15));
#1533=CARTESIAN_POINT('',(28.6795281915324,2.42029182216237,0.475935463421777));
#1534=CARTESIAN_POINT('',(25.6792373495292,5.77593022740142,4.44089209850063E-15));
#1535=CARTESIAN_POINT('Origin',(28.6795281915324,2.42029182216237,0.475935463421777));
#1536=CARTESIAN_POINT('',(27.0271915518549,4.23254837042541,0.709604618789656));
#1537=CARTESIAN_POINT('',(28.8323423528352,2.19475306070253,4.16333634234434E-15));
#1538=CARTESIAN_POINT('',(29.5925282983441,1.07279292842458,-2.36757802534768));
#1539=CARTESIAN_POINT('',(27.0649158612653,4.1013658484422,4.37150315946155E-15));
#1540=CARTESIAN_POINT('Origin',(29.5925282983441,1.07279292842458,-2.36757802534768));
#1541=CARTESIAN_POINT('',(29.5,1.36501258436518,4.44089209850063E-15));
#1542=CARTESIAN_POINT('',(27.5790511911611,3.7522974247833,4.44089209850063E-15));
#1543=CARTESIAN_POINT('',(30.,0.585159140463758,-2.11700400860039));
#1544=CARTESIAN_POINT('',(32.0807265786785,-1.90490968922068,-0.837464805132697));
#1545=CARTESIAN_POINT('',(30.,0.706202585713785,-0.499999999999996));
#1546=CARTESIAN_POINT('',(30.,1.52912623226609,10.4933324559491));
#1547=CARTESIAN_POINT('Origin',(29.5,1.3275842772595,-0.499999999999996));
#1548=CARTESIAN_POINT('Origin',(32.0807265786785,-1.90490968922068,-0.837464805132697));
#1549=CARTESIAN_POINT('',(30.,0.618910521846549,-3.4385654396214));
#1550=CARTESIAN_POINT('',(30.,0.215265174234537,12.3664802017703));
#1551=CARTESIAN_POINT('',(30.7321309594771,-0.196609575542706,-5.36287831831636));
#1552=CARTESIAN_POINT('Origin',(29.5925282983441,1.07279292842458,-2.36757802534768));
#1553=CARTESIAN_POINT('',(27.8733557495569,2.82588633955282,-4.08923101204883));
#1554=CARTESIAN_POINT('',(26.9300486591486,3.81231327157947,-4.08923101204883));
#1555=CARTESIAN_POINT('',(30.,0.57474242360523,-5.14107108461685));
#1556=CARTESIAN_POINT('',(30.7321309594771,-0.196609575542706,-5.36287831831636));
#1557=CARTESIAN_POINT('',(30.,0.994654820701669,11.0448924258398));
#1558=CARTESIAN_POINT('',(27.3178838086341,3.4884762651967,-0.93899309218601));
#1559=CARTESIAN_POINT('Origin',(27.7698277978561,2.92959205409597,-6.52777242232048));
#1560=CARTESIAN_POINT('',(30.,0.576028764880859,-5.65078100467986));
#1561=CARTESIAN_POINT('',(30.,0.538401318024475,9.25901260352852));
#1562=CARTESIAN_POINT('',(27.7698277978561,2.92959205409597,-6.52777242232048));
#1563=CARTESIAN_POINT('',(27.7698277978561,2.92959205409597,-6.52777242232048));
#1564=CARTESIAN_POINT('',(30.7321309594771,-0.196609575542706,-5.36287831831636));
#1565=CARTESIAN_POINT('Origin',(30.7321309594771,-0.196609575542706,-5.36287831831636));
#1566=CARTESIAN_POINT('',(30.,0.742436962509495,-7.29616455974948));
#1567=CARTESIAN_POINT('',(30.,-1.08072206543081,10.730566848905));
#1568=CARTESIAN_POINT('',(29.054627373662,1.95499173900197,-9.79254293013291));
#1569=CARTESIAN_POINT('',(29.054627373662,1.95499173900197,-9.79254293013291));
#1570=CARTESIAN_POINT('',(30.7321309594771,-0.196609575542706,-5.36287831831636));
#1571=CARTESIAN_POINT('Origin',(31.9586276559497,-0.912709314617413,-10.7825713114804));
#1572=CARTESIAN_POINT('',(30.,1.021436018244,-10.1148382607264));
#1573=CARTESIAN_POINT('',(30.,-0.778214070308276,8.06667981720655));
#1574=CARTESIAN_POINT('',(31.9586276559497,-0.912709314617413,-10.7825713114804));
#1575=CARTESIAN_POINT('Origin',(29.814729645696,1.85819141170095,-13.8856749491758));
#1576=CARTESIAN_POINT('',(30.,1.61873703614248,-13.6175124210852));
#1577=CARTESIAN_POINT('',(30.,-1.86073370584307,6.7866923173514));
#1578=CARTESIAN_POINT('',(29.814729645696,1.85819141170095,-13.8856749491758));
#1579=CARTESIAN_POINT('',(29.814729645696,1.85819141170095,-13.8856749491758));
#1580=CARTESIAN_POINT('',(31.9586276559497,-0.912709314617413,-10.7825713114804));
#1581=CARTESIAN_POINT('Origin',(29.814729645696,1.85819141170095,-13.8856749491758));
#1582=CARTESIAN_POINT('',(30.,1.81784570307052,-14.6097349695602));
#1583=CARTESIAN_POINT('',(30.,-2.49387775071039,6.87697025345371));
#1584=CARTESIAN_POINT('',(31.9817256478938,1.38629190227102,-22.3545699076718));
#1585=CARTESIAN_POINT('Origin',(31.9817256478938,1.38629190227102,-22.3545699076718));
#1586=CARTESIAN_POINT('',(30.,3.22335105680954,-21.8992842459084));
#1587=CARTESIAN_POINT('',(30.,-1.54274523768408,2.81972070281469));
#1588=CARTESIAN_POINT('',(29.9324273614558,3.28599087497304,-21.8837599711485));
#1589=CARTESIAN_POINT('',(29.9324273614558,3.28599087497304,-21.8837599711485));
#1590=CARTESIAN_POINT('',(31.9817256478938,1.38629190227102,-22.3545699076718));
#1591=CARTESIAN_POINT('Origin',(29.798231080023,4.24849144717763,-27.0680479960508));
#1592=CARTESIAN_POINT('',(30.,3.64130158946523,-24.5));
#1593=CARTESIAN_POINT('',(30.,-0.324833851269881,0.179453948868028));
#1594=CARTESIAN_POINT('',(29.8556071670426,3.8369709788188,-24.8514876139325));
#1595=CARTESIAN_POINT('',(29.9324273614558,3.28599087497304,-21.8837599711485));
#1596=CARTESIAN_POINT('Origin',(29.5,4.12326191474817,-24.5));
#1597=CARTESIAN_POINT('Origin',(27.1593284158369,3.56759182712148,-4.28045796919555));
#1598=CARTESIAN_POINT('',(27.7698277978561,2.92959205409597,-6.52777242232048));
#1599=CARTESIAN_POINT('Origin',(27.7698277978561,2.92959205409597,-6.52777242232048));
#1600=CARTESIAN_POINT('',(24.4808291940355,6.02939121028494,-8.75525044966444));
#1601=CARTESIAN_POINT('',(24.4808291940355,6.02939121028494,-8.75525044966444));
#1602=CARTESIAN_POINT('',(27.7698277978561,2.92959205409597,-6.52777242232048));
#1603=CARTESIAN_POINT('Origin',(24.7305297402993,7.97749153873037,3.36453867387071));
#1604=CARTESIAN_POINT('',(22.826299001396,9.50000000000009,-0.121291742961003));
#1605=CARTESIAN_POINT('',(22.7918044974009,9.47299134093119,-0.31691979634513));
#1606=CARTESIAN_POINT('',(22.8473345538356,9.51717027293929,-0.00029490524190403));
#1607=CARTESIAN_POINT('Origin',(21.3110448225952,9.50000000000009,-5.83533997772157));
#1608=CARTESIAN_POINT('Origin',(22.725872955719,9.50000000000009,-0.499999999999996));
#1609=CARTESIAN_POINT('Origin',(19.7013282327316,10.1202916314275,-6.05696248579754));
#1610=CARTESIAN_POINT('',(20.005339215946,9.57287460956396,-8.40084236111216));
#1611=CARTESIAN_POINT('',(20.0906281590025,9.78707959836665,-6.27674344491772));
#1612=CARTESIAN_POINT('Origin',(20.5,9.50000000000009,-6.02899931964289));
#1613=CARTESIAN_POINT('',(24.4808291940355,6.02939121028494,-8.75525044966444));
#1614=CARTESIAN_POINT('',(24.4808291940355,6.02939121028494,-8.75525044966444));
#1615=CARTESIAN_POINT('Origin',(24.4808291940355,6.02939121028494,-8.75525044966444));
#1616=CARTESIAN_POINT('Ctrl Pts',(20.0906281590025,9.78707959836665,-6.27674344491772));
#1617=CARTESIAN_POINT('Ctrl Pts',(20.0909873936801,9.78759186242923,-6.18113753644091));
#1618=CARTESIAN_POINT('Ctrl Pts',(20.0913479092657,9.78810322583844,-6.08550947725899));
#1619=CARTESIAN_POINT('Origin',(27.9634284524593,5.2846919705541,-23.3368544535705));
#1620=CARTESIAN_POINT('',(26.8678283242849,4.63679186603139,-14.663377280719));
#1621=CARTESIAN_POINT('',(29.9324273614558,3.28599087497304,-21.8837599711485));
#1622=CARTESIAN_POINT('',(27.9634284524593,5.2846919705541,-23.3368544535705));
#1623=CARTESIAN_POINT('',(27.9634284524593,5.2846919705541,-23.3368544535705));
#1624=CARTESIAN_POINT('',(29.9324273614558,3.28599087497304,-21.8837599711485));
#1625=CARTESIAN_POINT('Origin',(29.054627373662,1.95499173900197,-9.79254293013291));
#1626=CARTESIAN_POINT('',(25.0737285165454,5.63669077655386,-11.0256819682191));
#1627=CARTESIAN_POINT('',(26.8678283242849,4.63679186603139,-14.663377280719));
#1628=CARTESIAN_POINT('',(29.054627373662,1.95499173900197,-9.79254293013291));
#1629=CARTESIAN_POINT('',(29.054627373662,1.95499173900197,-9.79254293013291));
#1630=CARTESIAN_POINT('Origin',(29.814729645696,1.85819141170095,-13.8856749491758));
#1631=CARTESIAN_POINT('',(29.814729645696,1.85819141170095,-13.8856749491758));
#1632=CARTESIAN_POINT('Origin',(29.054627373662,1.95499173900197,-9.79254293013291));
#1633=CARTESIAN_POINT('',(29.054627373662,1.95499173900197,-9.79254293013291));
#1634=CARTESIAN_POINT('Origin',(29.9324273614558,3.28599087497304,-21.8837599711485));
#1635=CARTESIAN_POINT('Origin',(25.0737285165454,5.63669077655386,-11.0256819682191));
#1636=CARTESIAN_POINT('',(25.0737285165454,5.63669077655386,-11.0256819682191));
#1637=CARTESIAN_POINT('Origin',(25.0737285165454,5.63669077655386,-11.0256819682191));
#1638=CARTESIAN_POINT('',(22.1367311029102,7.94449202319693,-11.4216475443911));
#1639=CARTESIAN_POINT('',(24.4808291940355,6.02939121028494,-8.75525044966444));
#1640=CARTESIAN_POINT('',(25.0737285165454,5.63669077655386,-11.0256819682191));
#1641=CARTESIAN_POINT('Origin',(22.1367311029102,7.94449202319693,-11.4216475443911));
#1642=CARTESIAN_POINT('',(20.0095889022341,9.59745232264061,-9.74838803154175));
#1643=CARTESIAN_POINT('Origin',(20.5,9.50000000000009,-23.809340223306));
#1644=CARTESIAN_POINT('',(22.1367311029102,7.94449202319693,-11.4216475443911));
#1645=CARTESIAN_POINT('Origin',(16.2891292123461,12.1629916836889,-10.5273680644111));
#1646=CARTESIAN_POINT('',(20.,9.50000000000009,-10.9348894348355));
#1647=CARTESIAN_POINT('Origin',(20.5,9.50000000000009,-6.90572340907142));
#1648=CARTESIAN_POINT('',(20.,9.48594433149004,-11.0948751656745));
#1649=CARTESIAN_POINT('',(20.,10.9219649558541,5.25033167556312));
#1650=CARTESIAN_POINT('',(22.1367311029102,7.94449202319693,-11.4216475443911));
#1651=CARTESIAN_POINT('Origin',(16.2891292123461,12.1629916836889,-10.5273680644111));
#1652=CARTESIAN_POINT('',(20.,9.50000000000009,-11.4026508194483));
#1653=CARTESIAN_POINT('',(20.,8.74499552072928,5.12961138091578));
#1654=CARTESIAN_POINT('',(20.0020897775013,9.54566629316388,-12.4359322755923));
#1655=CARTESIAN_POINT('Origin',(20.5,9.50000000000009,-19.3774045941593));
#1656=CARTESIAN_POINT('',(22.1367311029102,7.94449202319693,-11.4216475443911));
#1657=CARTESIAN_POINT('Origin',(26.8678283242849,4.63679186603139,-14.663377280719));
#1658=CARTESIAN_POINT('',(26.8678283242849,4.63679186603139,-14.663377280719));
#1659=CARTESIAN_POINT('Origin',(22.1367311029102,7.94449202319693,-11.4216475443911));
#1660=CARTESIAN_POINT('',(22.9903268365531,7.97749153873037,-17.1031813578676));
#1661=CARTESIAN_POINT('',(26.8678283242849,4.63679186603139,-14.663377280719));
#1662=CARTESIAN_POINT('',(22.9903268365531,7.97749153873037,-17.1031813578676));
#1663=CARTESIAN_POINT('Origin',(19.1480254678395,10.1862918545873,-12.8417448954656));
#1664=CARTESIAN_POINT('',(20.0552145494492,9.72839856168191,-15.4188518190395));
#1665=CARTESIAN_POINT('Origin',(20.5,9.50000000000009,-16.6296968296335));
#1666=CARTESIAN_POINT('',(22.1367311029102,7.94449202319693,-11.4216475443911));
#1667=CARTESIAN_POINT('Origin',(19.5132302789359,10.1928912808568,-16.459641929157));
#1668=CARTESIAN_POINT('',(20.1098807078258,9.81274100766219,-16.5700697156119));
#1669=CARTESIAN_POINT('Origin',(20.5,9.50000000000009,-16.0277352676351));
#1670=CARTESIAN_POINT('',(22.9903268365531,7.97749153873037,-17.1031813578676));
#1671=CARTESIAN_POINT('Origin',(27.9634284524593,5.2846919705541,-23.3368544535705));
#1672=CARTESIAN_POINT('',(26.4191296369556,6.76422705874093,-25.));
#1673=CARTESIAN_POINT('',(25.4346411043864,7.52476717703899,-25.));
#1674=CARTESIAN_POINT('',(21.8337736250291,10.3065204307607,-25.));
#1675=CARTESIAN_POINT('',(27.9634284524593,5.2846919705541,-23.3368544535705));
#1676=CARTESIAN_POINT('',(26.8678283242849,4.63679186603139,-14.663377280719));
#1677=CARTESIAN_POINT('Origin',(27.3111295251525,6.55299178859304,-28.3572630839416));
#1678=CARTESIAN_POINT('',(27.747336867936,5.70485043756576,-25.));
#1679=CARTESIAN_POINT('',(21.5371269082862,10.6581070457125,-25.));
#1680=CARTESIAN_POINT('',(27.9634284524593,5.2846919705541,-23.3368544535705));
#1681=CARTESIAN_POINT('Origin',(27.3111295251525,6.55299178859304,-28.3572630839416));
#1682=CARTESIAN_POINT('',(28.7812750165325,4.82281502259071,-25.));
#1683=CARTESIAN_POINT('',(22.0245945227718,10.5868266235341,-25.));
#1684=CARTESIAN_POINT('',(29.798231080023,4.24849144717763,-27.0680479960508));
#1685=CARTESIAN_POINT('Origin',(19.4901275186212,10.7505916764409,-20.5098586039617));
#1686=CARTESIAN_POINT('',(20.4418106285065,9.99660245372459,-19.5836035820465));
#1687=CARTESIAN_POINT('Origin',(20.5,9.50000000000009,-16.1630332112598));
#1688=CARTESIAN_POINT('',(22.9903268365531,7.97749153873037,-17.1031813578676));
#1689=CARTESIAN_POINT('Origin',(22.9903268365531,7.97749153873037,-17.1031813578676));
#1690=CARTESIAN_POINT('',(22.574569202938,9.50000000000009,-25.));
#1691=CARTESIAN_POINT('',(21.7266715942499,9.99962696855858,-24.5193104191839));
#1692=CARTESIAN_POINT('Origin',(22.4587755290787,9.50000000000009,-24.5));
#1693=CARTESIAN_POINT('',(24.9521887540311,7.88723651712527,-25.));
#1694=CARTESIAN_POINT('',(18.7082089107885,12.1225914435929,-25.));
#1695=CARTESIAN_POINT('',(25.2618312387144,7.87299148341726,-26.2463622050355));
#1696=CARTESIAN_POINT('',(22.9903268365531,7.97749153873037,-17.1031813578676));
#1697=CARTESIAN_POINT('Origin',(26.8678283242849,4.63679186603139,-14.663377280719));
#1698=CARTESIAN_POINT('',(21.4646569939246,10.5074400142889,-25.));
#1699=CARTESIAN_POINT('Origin',(19.4901275186212,10.7505916764409,-20.5098586039617));
#1700=CARTESIAN_POINT('',(20.5,10.0000000000001,-19.8268903065669));
#1701=CARTESIAN_POINT('Origin',(20.5,9.50000000000009,-16.7973325601155));
#1702=CARTESIAN_POINT('',(21.721035403153,10.0000000000001,-24.5));
#1703=CARTESIAN_POINT('',(21.4874698563214,10.0000000000001,-23.6061050169945));
#1704=CARTESIAN_POINT('Origin',(22.5126276205391,9.50000000000009,-24.5));
#1705=CARTESIAN_POINT('Origin',(29.9324273614558,3.28599087497304,-21.8837599711485));
#1706=CARTESIAN_POINT('',(29.5,4.17943195805532,-25.));
#1707=CARTESIAN_POINT('',(23.9345117263765,9.16150574634131,-25.));
#1708=CARTESIAN_POINT('Origin',(29.5,4.09818920055974,-24.5));
#1709=CARTESIAN_POINT('Origin',(27.1523139917829,10.0000000000001,4.65339572430779E-15));
#1710=CARTESIAN_POINT('',(27.1523139917829,9.50000000000009,4.65339572430779E-15));
#1711=CARTESIAN_POINT('',(27.1523139917829,10.0000000000001,4.65339572430779E-15));
#1712=CARTESIAN_POINT('',(27.8733557495569,9.50000000000009,-4.08923101204883));
#1713=CARTESIAN_POINT('',(29.3328740075633,9.50000000000009,-12.3665703740812));
#1714=CARTESIAN_POINT('',(27.8733557495569,10.0000000000001,-4.08923101204883));
#1715=CARTESIAN_POINT('Origin',(30.,10.0000000000001,4.44089209850063E-15));
#1716=CARTESIAN_POINT('',(29.5,9.50000000000009,4.44089209850063E-15));
#1717=CARTESIAN_POINT('',(29.5,-4.99999999999991,4.44089209850063E-15));
#1718=CARTESIAN_POINT('',(30.,9.50000000000009,4.44089209850063E-15));
#1719=CARTESIAN_POINT('Origin',(29.5,-4.99999999999991,-0.499999999999996));
#1720=CARTESIAN_POINT('',(30.,9.50000000000009,-0.499999999999996));
#1721=CARTESIAN_POINT('',(30.,-4.99999999999991,-0.499999999999996));
#1722=CARTESIAN_POINT('Origin',(29.5,9.5000000000001,-0.499999999999996));
#1723=CARTESIAN_POINT('Origin',(22.1266442504431,10.0000000000001,-4.08923101204883));
#1724=CARTESIAN_POINT('',(22.1266442504431,9.50000000000009,-4.08923101204883));
#1725=CARTESIAN_POINT('',(22.1266442504431,10.0000000000001,-4.08923101204883));
#1726=CARTESIAN_POINT('',(20.4573735615849,9.50000000000009,-13.5561355217914));
#1727=CARTESIAN_POINT('Origin',(27.8733557495569,10.0000000000001,-4.08923101204883));
#1728=CARTESIAN_POINT('',(28.9366778747784,9.50000000000009,-4.08923101204883));
#1729=CARTESIAN_POINT('Origin',(29.5,-12.4999999999999,-24.5));
#1730=CARTESIAN_POINT('',(29.5,9.50000000000009,-25.));
#1731=CARTESIAN_POINT('',(29.5,-12.4999999999999,-25.));
#1732=CARTESIAN_POINT('',(30.,9.5000000000001,-24.5));
#1733=CARTESIAN_POINT('Origin',(29.5,9.5000000000001,-24.5));
#1734=CARTESIAN_POINT('',(30.,-12.4999999999999,-24.5));
#1735=CARTESIAN_POINT('Origin',(30.,-19.9999999999999,25.));
#1736=CARTESIAN_POINT('',(30.,9.50000000000009,0.));
#1737=CARTESIAN_POINT('Origin',(20.,10.0000000000001,21.));
#1738=CARTESIAN_POINT('',(20.,9.50000000000009,-2.));
#1739=CARTESIAN_POINT('Origin',(30.,9.50000000000009,-0.499999999999996));
#1740=CARTESIAN_POINT('',(22.25180921192,10.0000000000001,-0.499999999999996));
#1741=CARTESIAN_POINT('Origin',(22.25180921192,9.50000000000009,-0.499999999999996));
#1742=CARTESIAN_POINT('',(30.,10.0000000000001,-0.499999999999996));
#1743=CARTESIAN_POINT('Origin',(19.9649696850788,9.50000000000009,-13.4693114329579));
#1744=CARTESIAN_POINT('',(21.530767454146,10.0000000000001,-4.58923101204882));
#1745=CARTESIAN_POINT('Origin',(21.530767454146,9.50000000000009,-4.58923101204882));
#1746=CARTESIAN_POINT('',(19.9649696850788,10.0000000000001,-13.4693114329579));
#1747=CARTESIAN_POINT('Origin',(28.9366778747784,9.50000000000009,-4.58923101204883));
#1748=CARTESIAN_POINT('',(28.469232545854,10.0000000000001,-4.58923101204883));
#1749=CARTESIAN_POINT('Origin',(28.469232545854,9.50000000000009,-4.58923101204883));
#1750=CARTESIAN_POINT('',(28.9366778747784,10.0000000000001,-4.58923101204883));
#1751=CARTESIAN_POINT('Origin',(29.8252778840694,9.50000000000009,-12.2797462852477));
#1752=CARTESIAN_POINT('',(27.74819078808,10.0000000000001,-0.499999999999994));
#1753=CARTESIAN_POINT('Origin',(27.74819078808,9.50000000000009,-0.499999999999994));
#1754=CARTESIAN_POINT('',(29.8252778840694,10.0000000000001,-12.2797462852477));
#1755=CARTESIAN_POINT('Origin',(29.5,9.50000000000009,-0.499999999999994));
#1756=CARTESIAN_POINT('',(29.5,10.0000000000001,-0.499999999999994));
#1757=CARTESIAN_POINT('Origin',(29.5,9.50000000000009,-0.499999999999994));
#1758=CARTESIAN_POINT('Origin',(29.5,9.50000000000009,-0.499999999999994));
#1759=CARTESIAN_POINT('Origin',(30.,9.50000000000009,-0.499999999999994));
#1760=CARTESIAN_POINT('',(30.,10.0000000000001,-0.499999999999994));
#1761=CARTESIAN_POINT('Origin',(29.5,9.5000000000001,-24.5));
#1762=CARTESIAN_POINT('',(29.5,10.0000000000001,-24.5));
#1763=CARTESIAN_POINT('Origin',(29.5,9.50000000000009,-24.5));
#1764=CARTESIAN_POINT('Origin',(29.5,9.50000000000009,-24.5));
#1765=CARTESIAN_POINT('Origin',(15.,9.50000000000009,-24.5));
#1766=CARTESIAN_POINT('',(15.,10.0000000000001,-24.5));
#1767=CARTESIAN_POINT('',(15.,9.50000000000009,-25.));
#1768=CARTESIAN_POINT('Origin',(29.5,9.50000000000009,0.));
#1769=CARTESIAN_POINT('',(29.5,10.0000000000001,0.));
#1770=CARTESIAN_POINT('Origin',(20.5,9.50000000000009,-2.));
#1771=CARTESIAN_POINT('',(20.5,10.0000000000001,-2.));
#1772=CARTESIAN_POINT('Origin',(0.,-4.99999999999991,-25.));
#1773=CARTESIAN_POINT('Origin',(30.,10.0000000000001,-25.));
#1774=UNCERTAINTY_MEASURE_WITH_UNIT(LENGTH_MEASURE(0.01),#1778,
'DISTANCE_ACCURACY_VALUE',
'Maximum model space distance between geometric entities at asserted c
onnectivities');
#1775=UNCERTAINTY_MEASURE_WITH_UNIT(LENGTH_MEASURE(0.01),#1778,
'DISTANCE_ACCURACY_VALUE',
'Maximum model space distance between geometric entities at asserted c
onnectivities');
#1776=(
GEOMETRIC_REPRESENTATION_CONTEXT(3)
GLOBAL_UNCERTAINTY_ASSIGNED_CONTEXT((#1774))
GLOBAL_UNIT_ASSIGNED_CONTEXT((#1778,#1780,#1781))
REPRESENTATION_CONTEXT('','3D')
);
#1777=(
GEOMETRIC_REPRESENTATION_CONTEXT(3)
GLOBAL_UNCERTAINTY_ASSIGNED_CONTEXT((#1775))
GLOBAL_UNIT_ASSIGNED_CONTEXT((#1778,#1780,#1781))
REPRESENTATION_CONTEXT('','3D')
);
#1778=(
LENGTH_UNIT()
NAMED_UNIT(*)
SI_UNIT(.MILLI.,.METRE.)
);
#1779=(
LENGTH_UNIT()
NAMED_UNIT(*)
SI_UNIT($,.METRE.)
);
#1780=(
NAMED_UNIT(*)
PLANE_ANGLE_UNIT()
SI_UNIT($,.RADIAN.)
);
#1781=(
NAMED_UNIT(*)
SI_UNIT($,.STERADIAN.)
SOLID_ANGLE_UNIT()
);
#1782=SHAPE_DEFINITION_REPRESENTATION(#1783,#1784);
#1783=PRODUCT_DEFINITION_SHAPE('',$,#1786);
#1784=SHAPE_REPRESENTATION('',(#1075),#1776);
#1785=PRODUCT_DEFINITION_CONTEXT('part definition',#1790,'design');
#1786=PRODUCT_DEFINITION('2026-08-13-17-51-46-234',
'_export_tmp_main_base_right_eye',#1787,#1785);
#1787=PRODUCT_DEFINITION_FORMATION('',$,#1792);
#1788=PRODUCT_RELATED_PRODUCT_CATEGORY(
'_export_tmp_main_base_right_eye','_export_tmp_main_base_right_eye',(#1792));
#1789=APPLICATION_PROTOCOL_DEFINITION('international standard',
'automotive_design',2009,#1790);
#1790=APPLICATION_CONTEXT(
'Core Data for Automotive Mechanical Design Process');
#1791=PRODUCT_CONTEXT('part definition',#1790,'mechanical');
#1792=PRODUCT('2026-08-13-17-51-46-234',
'_export_tmp_main_base_right_eye',$,(#1791));
#1793=PRESENTATION_STYLE_ASSIGNMENT((#1795));
#1794=PRESENTATION_STYLE_ASSIGNMENT((#1796));
#1795=SURFACE_STYLE_USAGE(.BOTH.,#1797);
#1796=SURFACE_STYLE_USAGE(.BOTH.,#1798);
#1797=SURFACE_SIDE_STYLE('',(#1799));
#1798=SURFACE_SIDE_STYLE('',(#1800));
#1799=SURFACE_STYLE_FILL_AREA(#1801);
#1800=SURFACE_STYLE_FILL_AREA(#1802);
#1801=FILL_AREA_STYLE('\X2\76AE9769\X0\ - \X2\98CE5316\X0\',(#1803));
#1802=FILL_AREA_STYLE(
'PEKK - \X2\78B37EA47EF4589E5F3A578B805A919A916E\X0\ - HT-23 (\X2\5E266709\X0\ 
EOS P 810 3D \X2\62535370673A\X0\)',(#1804));
#1803=FILL_AREA_STYLE_COLOUR('\X2\76AE9769\X0\ - \X2\98CE5316\X0\',#1805);
#1804=FILL_AREA_STYLE_COLOUR(
'PEKK - \X2\78B37EA47EF4589E5F3A578B805A919A916E\X0\ - HT-23 (\X2\5E266709\X0\ 
EOS P 810 3D \X2\62535370673A\X0\)',#1806);
#1805=COLOUR_RGB('\X2\76AE9769\X0\ - \X2\98CE5316\X0\',0.,0.,0.);
#1806=COLOUR_RGB(
'PEKK - \X2\78B37EA47EF4589E5F3A578B805A919A916E\X0\ - HT-23 (\X2\5E266709\X0\ 
EOS P 810 3D \X2\62535370673A\X0\)',0.352941176470588,0.352941176470588,
0.352941176470588);
ENDSEC;
END-ISO-10303-21;
