ISO-10303-21;
HEADER;
/* Generated by software containing ST-Developer
 * from STEP Tools, Inc. (www.steptools.com) 
 */

FILE_DESCRIPTION(
/* description */ (''),
/* implementation_level */ '2;1');

FILE_NAME(
/* name */ 'servo_spool_1.step',
/* time_stamp */ '2026-08-13T17:51:52-04:00',
/* author */ (''),
/* organization */ (''),
/* preprocessor_version */ 'ST-DEVELOPER v20.1',
/* originating_system */ 'Autodesk Translation Framework v15.8.0.0',
/* authorisation */ '');

FILE_SCHEMA (('AUTOMOTIVE_DESIGN { 1 0 10303 214 3 1 1 }'));
ENDSEC;

DATA;
#10=MECHANICAL_DESIGN_GEOMETRIC_PRESENTATION_REPRESENTATION('',(#13),#574);
#11=SHAPE_REPRESENTATION_RELATIONSHIP('SRR','None',#581,#12);
#12=ADVANCED_BREP_SHAPE_REPRESENTATION('',(#14),#573);
#13=STYLED_ITEM('',(#591),#14);
#14=MANIFOLD_SOLID_BREP('servo spool 1',#315);
#15=FACE_BOUND('',#94,.T.);
#16=FACE_BOUND('',#95,.T.);
#17=FACE_BOUND('',#96,.T.);
#18=FACE_BOUND('',#97,.T.);
#19=FACE_BOUND('',#98,.T.);
#20=FACE_BOUND('',#101,.T.);
#21=FACE_BOUND('',#108,.T.);
#22=FACE_BOUND('',#109,.T.);
#23=FACE_BOUND('',#110,.T.);
#24=FACE_BOUND('',#111,.T.);
#25=FACE_BOUND('',#113,.T.);
#26=FACE_BOUND('',#116,.T.);
#27=FACE_BOUND('',#119,.T.);
#28=FACE_BOUND('',#122,.T.);
#29=PLANE('',#335);
#30=PLANE('',#341);
#31=PLANE('',#342);
#32=PLANE('',#359);
#33=PLANE('',#360);
#34=PLANE('',#363);
#35=PLANE('',#366);
#36=PLANE('',#369);
#37=LINE('',#496,#48);
#38=LINE('',#516,#49);
#39=LINE('',#522,#50);
#40=LINE('',#528,#51);
#41=LINE('',#534,#52);
#42=LINE('',#540,#53);
#43=LINE('',#547,#54);
#44=LINE('',#552,#55);
#45=LINE('',#557,#56);
#46=LINE('',#562,#57);
#47=LINE('',#565,#58);
#48=VECTOR('',#391,2.5);
#49=VECTOR('',#414,8.);
#50=VECTOR('',#421,1.15);
#51=VECTOR('',#428,1.15);
#52=VECTOR('',#435,1.15);
#53=VECTOR('',#442,1.15);
#54=VECTOR('',#453,2.);
#55=VECTOR('',#460,2.);
#56=VECTOR('',#467,2.);
#57=VECTOR('',#474,2.);
#58=VECTOR('',#477,10.);
#59=CYLINDRICAL_SURFACE('',#333,2.5);
#60=CYLINDRICAL_SURFACE('',#345,8.);
#61=CYLINDRICAL_SURFACE('',#347,1.15);
#62=CYLINDRICAL_SURFACE('',#350,1.15);
#63=CYLINDRICAL_SURFACE('',#353,1.15);
#64=CYLINDRICAL_SURFACE('',#356,1.15);
#65=CYLINDRICAL_SURFACE('',#362,2.);
#66=CYLINDRICAL_SURFACE('',#365,2.);
#67=CYLINDRICAL_SURFACE('',#368,2.);
#68=CYLINDRICAL_SURFACE('',#371,2.);
#69=CYLINDRICAL_SURFACE('',#372,10.);
#70=FACE_OUTER_BOUND('',#91,.T.);
#71=FACE_OUTER_BOUND('',#92,.T.);
#72=FACE_OUTER_BOUND('',#93,.T.);
#73=FACE_OUTER_BOUND('',#99,.T.);
#74=FACE_OUTER_BOUND('',#100,.T.);
#75=FACE_OUTER_BOUND('',#102,.T.);
#76=FACE_OUTER_BOUND('',#103,.T.);
#77=FACE_OUTER_BOUND('',#104,.T.);
#78=FACE_OUTER_BOUND('',#105,.T.);
#79=FACE_OUTER_BOUND('',#106,.T.);
#80=FACE_OUTER_BOUND('',#107,.T.);
#81=FACE_OUTER_BOUND('',#112,.T.);
#82=FACE_OUTER_BOUND('',#114,.T.);
#83=FACE_OUTER_BOUND('',#115,.T.);
#84=FACE_OUTER_BOUND('',#117,.T.);
#85=FACE_OUTER_BOUND('',#118,.T.);
#86=FACE_OUTER_BOUND('',#120,.T.);
#87=FACE_OUTER_BOUND('',#121,.T.);
#88=FACE_OUTER_BOUND('',#123,.T.);
#89=FACE_OUTER_BOUND('',#124,.T.);
#90=FACE_OUTER_BOUND('',#125,.T.);
#91=EDGE_LOOP('',(#216,#217,#218,#219));
#92=EDGE_LOOP('',(#220,#221,#222,#223));
#93=EDGE_LOOP('',(#224));
#94=EDGE_LOOP('',(#225));
#95=EDGE_LOOP('',(#226));
#96=EDGE_LOOP('',(#227));
#97=EDGE_LOOP('',(#228));
#98=EDGE_LOOP('',(#229));
#99=EDGE_LOOP('',(#230));
#100=EDGE_LOOP('',(#231));
#101=EDGE_LOOP('',(#232));
#102=EDGE_LOOP('',(#233,#234,#235,#236));
#103=EDGE_LOOP('',(#237,#238,#239,#240));
#104=EDGE_LOOP('',(#241,#242,#243,#244));
#105=EDGE_LOOP('',(#245,#246,#247,#248));
#106=EDGE_LOOP('',(#249,#250,#251,#252));
#107=EDGE_LOOP('',(#253));
#108=EDGE_LOOP('',(#254));
#109=EDGE_LOOP('',(#255));
#110=EDGE_LOOP('',(#256));
#111=EDGE_LOOP('',(#257));
#112=EDGE_LOOP('',(#258));
#113=EDGE_LOOP('',(#259));
#114=EDGE_LOOP('',(#260,#261,#262,#263));
#115=EDGE_LOOP('',(#264));
#116=EDGE_LOOP('',(#265));
#117=EDGE_LOOP('',(#266,#267,#268,#269));
#118=EDGE_LOOP('',(#270));
#119=EDGE_LOOP('',(#271));
#120=EDGE_LOOP('',(#272,#273,#274,#275));
#121=EDGE_LOOP('',(#276));
#122=EDGE_LOOP('',(#277));
#123=EDGE_LOOP('',(#278,#279,#280,#281));
#124=EDGE_LOOP('',(#282,#283,#284,#285,#286));
#125=EDGE_LOOP('',(#287,#288,#289,#290,#291));
#126=CIRCLE('',#330,3.);
#127=CIRCLE('',#331,0.5);
#128=CIRCLE('',#332,2.5);
#129=CIRCLE('',#334,2.5);
#130=CIRCLE('',#336,8.5);
#131=CIRCLE('',#337,2.);
#132=CIRCLE('',#338,2.);
#133=CIRCLE('',#339,2.);
#134=CIRCLE('',#340,2.);
#135=CIRCLE('',#343,10.);
#136=CIRCLE('',#344,8.);
#137=CIRCLE('',#346,8.);
#138=CIRCLE('',#348,1.15);
#139=CIRCLE('',#349,1.15);
#140=CIRCLE('',#351,1.15);
#141=CIRCLE('',#352,1.15);
#142=CIRCLE('',#354,1.15);
#143=CIRCLE('',#355,1.15);
#144=CIRCLE('',#357,1.15);
#145=CIRCLE('',#358,1.15);
#146=CIRCLE('',#361,2.);
#147=CIRCLE('',#364,2.);
#148=CIRCLE('',#367,2.);
#149=CIRCLE('',#370,2.);
#150=CIRCLE('',#373,10.);
#151=CIRCLE('',#374,10.);
#152=CIRCLE('',#376,1.5);
#153=VERTEX_POINT('',#488);
#154=VERTEX_POINT('',#490);
#155=VERTEX_POINT('',#494);
#156=VERTEX_POINT('',#498);
#157=VERTEX_POINT('',#500);
#158=VERTEX_POINT('',#502);
#159=VERTEX_POINT('',#504);
#160=VERTEX_POINT('',#506);
#161=VERTEX_POINT('',#510);
#162=VERTEX_POINT('',#512);
#163=VERTEX_POINT('',#515);
#164=VERTEX_POINT('',#519);
#165=VERTEX_POINT('',#521);
#166=VERTEX_POINT('',#525);
#167=VERTEX_POINT('',#527);
#168=VERTEX_POINT('',#531);
#169=VERTEX_POINT('',#533);
#170=VERTEX_POINT('',#537);
#171=VERTEX_POINT('',#539);
#172=VERTEX_POINT('',#544);
#173=VERTEX_POINT('',#549);
#174=VERTEX_POINT('',#554);
#175=VERTEX_POINT('',#559);
#176=VERTEX_POINT('',#564);
#177=VERTEX_POINT('',#566);
#178=EDGE_CURVE('',#153,#153,#126,.T.);
#179=EDGE_CURVE('',#153,#154,#127,.T.);
#180=EDGE_CURVE('',#154,#154,#128,.T.);
#181=EDGE_CURVE('',#155,#155,#129,.T.);
#182=EDGE_CURVE('',#155,#154,#37,.T.);
#183=EDGE_CURVE('',#156,#156,#130,.T.);
#184=EDGE_CURVE('',#157,#157,#131,.T.);
#185=EDGE_CURVE('',#158,#158,#132,.T.);
#186=EDGE_CURVE('',#159,#159,#133,.T.);
#187=EDGE_CURVE('',#160,#160,#134,.T.);
#188=EDGE_CURVE('',#161,#161,#135,.T.);
#189=EDGE_CURVE('',#162,#162,#136,.T.);
#190=EDGE_CURVE('',#162,#163,#38,.T.);
#191=EDGE_CURVE('',#163,#163,#137,.T.);
#192=EDGE_CURVE('',#164,#164,#138,.T.);
#193=EDGE_CURVE('',#164,#165,#39,.T.);
#194=EDGE_CURVE('',#165,#165,#139,.T.);
#195=EDGE_CURVE('',#166,#166,#140,.T.);
#196=EDGE_CURVE('',#166,#167,#40,.T.);
#197=EDGE_CURVE('',#167,#167,#141,.T.);
#198=EDGE_CURVE('',#168,#168,#142,.T.);
#199=EDGE_CURVE('',#168,#169,#41,.T.);
#200=EDGE_CURVE('',#169,#169,#143,.T.);
#201=EDGE_CURVE('',#170,#170,#144,.T.);
#202=EDGE_CURVE('',#170,#171,#42,.T.);
#203=EDGE_CURVE('',#171,#171,#145,.T.);
#204=EDGE_CURVE('',#172,#172,#146,.T.);
#205=EDGE_CURVE('',#160,#172,#43,.T.);
#206=EDGE_CURVE('',#173,#173,#147,.T.);
#207=EDGE_CURVE('',#159,#173,#44,.T.);
#208=EDGE_CURVE('',#174,#174,#148,.T.);
#209=EDGE_CURVE('',#158,#174,#45,.T.);
#210=EDGE_CURVE('',#175,#175,#149,.T.);
#211=EDGE_CURVE('',#157,#175,#46,.T.);
#212=EDGE_CURVE('',#161,#176,#47,.T.);
#213=EDGE_CURVE('',#177,#176,#150,.T.);
#214=EDGE_CURVE('',#176,#177,#151,.T.);
#215=EDGE_CURVE('',#156,#177,#152,.T.);
#216=ORIENTED_EDGE('',*,*,#178,.T.);
#217=ORIENTED_EDGE('',*,*,#179,.T.);
#218=ORIENTED_EDGE('',*,*,#180,.T.);
#219=ORIENTED_EDGE('',*,*,#179,.F.);
#220=ORIENTED_EDGE('',*,*,#181,.T.);
#221=ORIENTED_EDGE('',*,*,#182,.T.);
#222=ORIENTED_EDGE('',*,*,#180,.F.);
#223=ORIENTED_EDGE('',*,*,#182,.F.);
#224=ORIENTED_EDGE('',*,*,#183,.F.);
#225=ORIENTED_EDGE('',*,*,#184,.T.);
#226=ORIENTED_EDGE('',*,*,#185,.T.);
#227=ORIENTED_EDGE('',*,*,#186,.T.);
#228=ORIENTED_EDGE('',*,*,#187,.T.);
#229=ORIENTED_EDGE('',*,*,#178,.F.);
#230=ORIENTED_EDGE('',*,*,#181,.F.);
#231=ORIENTED_EDGE('',*,*,#188,.T.);
#232=ORIENTED_EDGE('',*,*,#189,.T.);
#233=ORIENTED_EDGE('',*,*,#189,.F.);
#234=ORIENTED_EDGE('',*,*,#190,.T.);
#235=ORIENTED_EDGE('',*,*,#191,.F.);
#236=ORIENTED_EDGE('',*,*,#190,.F.);
#237=ORIENTED_EDGE('',*,*,#192,.T.);
#238=ORIENTED_EDGE('',*,*,#193,.T.);
#239=ORIENTED_EDGE('',*,*,#194,.T.);
#240=ORIENTED_EDGE('',*,*,#193,.F.);
#241=ORIENTED_EDGE('',*,*,#195,.T.);
#242=ORIENTED_EDGE('',*,*,#196,.T.);
#243=ORIENTED_EDGE('',*,*,#197,.T.);
#244=ORIENTED_EDGE('',*,*,#196,.F.);
#245=ORIENTED_EDGE('',*,*,#198,.T.);
#246=ORIENTED_EDGE('',*,*,#199,.T.);
#247=ORIENTED_EDGE('',*,*,#200,.T.);
#248=ORIENTED_EDGE('',*,*,#199,.F.);
#249=ORIENTED_EDGE('',*,*,#201,.T.);
#250=ORIENTED_EDGE('',*,*,#202,.T.);
#251=ORIENTED_EDGE('',*,*,#203,.T.);
#252=ORIENTED_EDGE('',*,*,#202,.F.);
#253=ORIENTED_EDGE('',*,*,#191,.T.);
#254=ORIENTED_EDGE('',*,*,#203,.F.);
#255=ORIENTED_EDGE('',*,*,#200,.F.);
#256=ORIENTED_EDGE('',*,*,#197,.F.);
#257=ORIENTED_EDGE('',*,*,#194,.F.);
#258=ORIENTED_EDGE('',*,*,#204,.F.);
#259=ORIENTED_EDGE('',*,*,#198,.F.);
#260=ORIENTED_EDGE('',*,*,#187,.F.);
#261=ORIENTED_EDGE('',*,*,#205,.T.);
#262=ORIENTED_EDGE('',*,*,#204,.T.);
#263=ORIENTED_EDGE('',*,*,#205,.F.);
#264=ORIENTED_EDGE('',*,*,#206,.F.);
#265=ORIENTED_EDGE('',*,*,#192,.F.);
#266=ORIENTED_EDGE('',*,*,#186,.F.);
#267=ORIENTED_EDGE('',*,*,#207,.T.);
#268=ORIENTED_EDGE('',*,*,#206,.T.);
#269=ORIENTED_EDGE('',*,*,#207,.F.);
#270=ORIENTED_EDGE('',*,*,#208,.F.);
#271=ORIENTED_EDGE('',*,*,#201,.F.);
#272=ORIENTED_EDGE('',*,*,#185,.F.);
#273=ORIENTED_EDGE('',*,*,#209,.T.);
#274=ORIENTED_EDGE('',*,*,#208,.T.);
#275=ORIENTED_EDGE('',*,*,#209,.F.);
#276=ORIENTED_EDGE('',*,*,#210,.F.);
#277=ORIENTED_EDGE('',*,*,#195,.F.);
#278=ORIENTED_EDGE('',*,*,#184,.F.);
#279=ORIENTED_EDGE('',*,*,#211,.T.);
#280=ORIENTED_EDGE('',*,*,#210,.T.);
#281=ORIENTED_EDGE('',*,*,#211,.F.);
#282=ORIENTED_EDGE('',*,*,#188,.F.);
#283=ORIENTED_EDGE('',*,*,#212,.T.);
#284=ORIENTED_EDGE('',*,*,#213,.F.);
#285=ORIENTED_EDGE('',*,*,#214,.F.);
#286=ORIENTED_EDGE('',*,*,#212,.F.);
#287=ORIENTED_EDGE('',*,*,#183,.T.);
#288=ORIENTED_EDGE('',*,*,#215,.T.);
#289=ORIENTED_EDGE('',*,*,#213,.T.);
#290=ORIENTED_EDGE('',*,*,#214,.T.);
#291=ORIENTED_EDGE('',*,*,#215,.F.);
#292=TOROIDAL_SURFACE('',#329,3.,0.5);
#293=TOROIDAL_SURFACE('',#375,8.5,1.5);
#294=ADVANCED_FACE('',(#70),#292,.T.);
#295=ADVANCED_FACE('',(#71),#59,.F.);
#296=ADVANCED_FACE('',(#72,#15,#16,#17,#18,#19),#29,.T.);
#297=ADVANCED_FACE('',(#73),#30,.T.);
#298=ADVANCED_FACE('',(#74,#20),#31,.F.);
#299=ADVANCED_FACE('',(#75),#60,.F.);
#300=ADVANCED_FACE('',(#76),#61,.F.);
#301=ADVANCED_FACE('',(#77),#62,.F.);
#302=ADVANCED_FACE('',(#78),#63,.F.);
#303=ADVANCED_FACE('',(#79),#64,.F.);
#304=ADVANCED_FACE('',(#80,#21,#22,#23,#24),#32,.F.);
#305=ADVANCED_FACE('',(#81,#25),#33,.T.);
#306=ADVANCED_FACE('',(#82),#65,.F.);
#307=ADVANCED_FACE('',(#83,#26),#34,.T.);
#308=ADVANCED_FACE('',(#84),#66,.F.);
#309=ADVANCED_FACE('',(#85,#27),#35,.T.);
#310=ADVANCED_FACE('',(#86),#67,.F.);
#311=ADVANCED_FACE('',(#87,#28),#36,.T.);
#312=ADVANCED_FACE('',(#88),#68,.F.);
#313=ADVANCED_FACE('',(#89),#69,.T.);
#314=ADVANCED_FACE('',(#90),#293,.T.);
#315=CLOSED_SHELL('',(#294,#295,#296,#297,#298,#299,#300,#301,#302,#303,
#304,#305,#306,#307,#308,#309,#310,#311,#312,#313,#314));
#316=DERIVED_UNIT_ELEMENT(#318,1.);
#317=DERIVED_UNIT_ELEMENT(#576,-3.);
#318=(
MASS_UNIT()
NAMED_UNIT(*)
SI_UNIT(.KILO.,.GRAM.)
);
#319=DERIVED_UNIT((#316,#317));
#320=MEASURE_REPRESENTATION_ITEM('density measure',
POSITIVE_RATIO_MEASURE(900.),#319);
#321=PROPERTY_DEFINITION_REPRESENTATION(#326,#323);
#322=PROPERTY_DEFINITION_REPRESENTATION(#327,#324);
#323=REPRESENTATION('material name',(#325),#573);
#324=REPRESENTATION('density',(#320),#573);
#325=DESCRIPTIVE_REPRESENTATION_ITEM('\X2\76AE9769FF0C98CE5316\X0\',
'\X2\76AE9769FF0C98CE5316\X0\');
#326=PROPERTY_DEFINITION('material property','material name',#583);
#327=PROPERTY_DEFINITION('material property','density of part',#583);
#328=AXIS2_PLACEMENT_3D('',#486,#377,#378);
#329=AXIS2_PLACEMENT_3D('',#487,#379,#380);
#330=AXIS2_PLACEMENT_3D('',#489,#381,#382);
#331=AXIS2_PLACEMENT_3D('',#491,#383,#384);
#332=AXIS2_PLACEMENT_3D('',#492,#385,#386);
#333=AXIS2_PLACEMENT_3D('',#493,#387,#388);
#334=AXIS2_PLACEMENT_3D('',#495,#389,#390);
#335=AXIS2_PLACEMENT_3D('',#497,#392,#393);
#336=AXIS2_PLACEMENT_3D('',#499,#394,#395);
#337=AXIS2_PLACEMENT_3D('',#501,#396,#397);
#338=AXIS2_PLACEMENT_3D('',#503,#398,#399);
#339=AXIS2_PLACEMENT_3D('',#505,#400,#401);
#340=AXIS2_PLACEMENT_3D('',#507,#402,#403);
#341=AXIS2_PLACEMENT_3D('',#508,#404,#405);
#342=AXIS2_PLACEMENT_3D('',#509,#406,#407);
#343=AXIS2_PLACEMENT_3D('',#511,#408,#409);
#344=AXIS2_PLACEMENT_3D('',#513,#410,#411);
#345=AXIS2_PLACEMENT_3D('',#514,#412,#413);
#346=AXIS2_PLACEMENT_3D('',#517,#415,#416);
#347=AXIS2_PLACEMENT_3D('',#518,#417,#418);
#348=AXIS2_PLACEMENT_3D('',#520,#419,#420);
#349=AXIS2_PLACEMENT_3D('',#523,#422,#423);
#350=AXIS2_PLACEMENT_3D('',#524,#424,#425);
#351=AXIS2_PLACEMENT_3D('',#526,#426,#427);
#352=AXIS2_PLACEMENT_3D('',#529,#429,#430);
#353=AXIS2_PLACEMENT_3D('',#530,#431,#432);
#354=AXIS2_PLACEMENT_3D('',#532,#433,#434);
#355=AXIS2_PLACEMENT_3D('',#535,#436,#437);
#356=AXIS2_PLACEMENT_3D('',#536,#438,#439);
#357=AXIS2_PLACEMENT_3D('',#538,#440,#441);
#358=AXIS2_PLACEMENT_3D('',#541,#443,#444);
#359=AXIS2_PLACEMENT_3D('',#542,#445,#446);
#360=AXIS2_PLACEMENT_3D('',#543,#447,#448);
#361=AXIS2_PLACEMENT_3D('',#545,#449,#450);
#362=AXIS2_PLACEMENT_3D('',#546,#451,#452);
#363=AXIS2_PLACEMENT_3D('',#548,#454,#455);
#364=AXIS2_PLACEMENT_3D('',#550,#456,#457);
#365=AXIS2_PLACEMENT_3D('',#551,#458,#459);
#366=AXIS2_PLACEMENT_3D('',#553,#461,#462);
#367=AXIS2_PLACEMENT_3D('',#555,#463,#464);
#368=AXIS2_PLACEMENT_3D('',#556,#465,#466);
#369=AXIS2_PLACEMENT_3D('',#558,#468,#469);
#370=AXIS2_PLACEMENT_3D('',#560,#470,#471);
#371=AXIS2_PLACEMENT_3D('',#561,#472,#473);
#372=AXIS2_PLACEMENT_3D('',#563,#475,#476);
#373=AXIS2_PLACEMENT_3D('',#567,#478,#479);
#374=AXIS2_PLACEMENT_3D('',#568,#480,#481);
#375=AXIS2_PLACEMENT_3D('',#569,#482,#483);
#376=AXIS2_PLACEMENT_3D('',#570,#484,#485);
#377=DIRECTION('axis',(0.,0.,1.));
#378=DIRECTION('refdir',(1.,0.,0.));
#379=DIRECTION('center_axis',(5.39909621375934E-16,1.79267003756368E-15,
-1.));
#380=DIRECTION('ref_axis',(1.31957936641161E-14,-1.,-1.77635683940025E-15));
#381=DIRECTION('center_axis',(-5.39909621375934E-16,-1.79267003756368E-15,
1.));
#382=DIRECTION('ref_axis',(1.33920652345409E-14,-1.,-1.79267003756367E-15));
#383=DIRECTION('center_axis',(1.,1.33226762955019E-14,5.39909621375958E-16));
#384=DIRECTION('ref_axis',(-1.33226762955019E-14,1.,1.8239378261699E-15));
#385=DIRECTION('center_axis',(5.39909621375934E-16,1.79267003756368E-15,
-1.));
#386=DIRECTION('ref_axis',(1.33920652345409E-14,-1.,-1.79267003756367E-15));
#387=DIRECTION('center_axis',(-5.39909621375934E-16,-1.79267003756368E-15,
1.));
#388=DIRECTION('ref_axis',(1.33920652345409E-14,-1.,-1.79267003756367E-15));
#389=DIRECTION('center_axis',(5.39909621375934E-16,1.79267003756368E-15,
-1.));
#390=DIRECTION('ref_axis',(1.33920652345409E-14,-1.,-1.79267003756367E-15));
#391=DIRECTION('',(-5.39909621375934E-16,-1.79267003756368E-15,1.));
#392=DIRECTION('center_axis',(-5.39909621375934E-16,-1.79267003756368E-15,
1.));
#393=DIRECTION('ref_axis',(1.33920652345409E-14,-1.,-1.79267003756367E-15));
#394=DIRECTION('center_axis',(5.39909621375934E-16,1.79267003756368E-15,
-1.));
#395=DIRECTION('ref_axis',(1.33920652345409E-14,-1.,-1.79267003756367E-15));
#396=DIRECTION('center_axis',(5.39909621375934E-16,1.79267003756368E-15,
-1.));
#397=DIRECTION('ref_axis',(1.33920652345409E-14,-1.,-1.79267003756367E-15));
#398=DIRECTION('center_axis',(5.39909621375934E-16,1.79267003756368E-15,
-1.));
#399=DIRECTION('ref_axis',(1.33920652345409E-14,-1.,-1.79267003756367E-15));
#400=DIRECTION('center_axis',(5.39909621375934E-16,1.79267003756368E-15,
-1.));
#401=DIRECTION('ref_axis',(1.33920652345409E-14,-1.,-1.79267003756367E-15));
#402=DIRECTION('center_axis',(5.39909621375934E-16,1.79267003756368E-15,
-1.));
#403=DIRECTION('ref_axis',(1.33920652345409E-14,-1.,-1.79267003756367E-15));
#404=DIRECTION('center_axis',(-5.39909621375934E-16,-1.79267003756368E-15,
1.));
#405=DIRECTION('ref_axis',(-1.33920652345409E-14,1.,1.79267003756367E-15));
#406=DIRECTION('center_axis',(-5.39909621375934E-16,-1.79267003756368E-15,
1.));
#407=DIRECTION('ref_axis',(1.33920652345409E-14,-1.,-1.79267003756367E-15));
#408=DIRECTION('center_axis',(5.39909621375934E-16,1.79267003756368E-15,
-1.));
#409=DIRECTION('ref_axis',(1.33920652345409E-14,-1.,-1.79267003756367E-15));
#410=DIRECTION('center_axis',(-5.39909621375934E-16,-1.79267003756368E-15,
1.));
#411=DIRECTION('ref_axis',(1.33920652345409E-14,-1.,-1.79267003756367E-15));
#412=DIRECTION('center_axis',(5.39909621375934E-16,1.79267003756368E-15,
-1.));
#413=DIRECTION('ref_axis',(1.33920652345409E-14,-1.,-1.79267003756367E-15));
#414=DIRECTION('',(-5.39909621375934E-16,-1.79267003756368E-15,1.));
#415=DIRECTION('center_axis',(5.39909621375934E-16,1.79267003756368E-15,
-1.));
#416=DIRECTION('ref_axis',(1.33920652345409E-14,-1.,-1.79267003756367E-15));
#417=DIRECTION('center_axis',(-5.39909621375934E-16,-1.79267003756368E-15,
1.));
#418=DIRECTION('ref_axis',(1.33920652345409E-14,-1.,-1.79267003756367E-15));
#419=DIRECTION('center_axis',(-5.39909621375934E-16,-1.79267003756368E-15,
1.));
#420=DIRECTION('ref_axis',(1.33920652345409E-14,-1.,-1.79267003756367E-15));
#421=DIRECTION('',(5.39909621375934E-16,1.79267003756368E-15,-1.));
#422=DIRECTION('center_axis',(5.39909621375934E-16,1.79267003756368E-15,
-1.));
#423=DIRECTION('ref_axis',(1.33920652345409E-14,-1.,-1.79267003756367E-15));
#424=DIRECTION('center_axis',(-5.39909621375934E-16,-1.79267003756368E-15,
1.));
#425=DIRECTION('ref_axis',(1.33920652345409E-14,-1.,-1.79267003756367E-15));
#426=DIRECTION('center_axis',(-5.39909621375934E-16,-1.79267003756368E-15,
1.));
#427=DIRECTION('ref_axis',(1.33920652345409E-14,-1.,-1.79267003756367E-15));
#428=DIRECTION('',(5.39909621375934E-16,1.79267003756368E-15,-1.));
#429=DIRECTION('center_axis',(5.39909621375934E-16,1.79267003756368E-15,
-1.));
#430=DIRECTION('ref_axis',(1.33920652345409E-14,-1.,-1.79267003756367E-15));
#431=DIRECTION('center_axis',(-5.39909621375934E-16,-1.79267003756368E-15,
1.));
#432=DIRECTION('ref_axis',(1.33920652345409E-14,-1.,-1.79267003756367E-15));
#433=DIRECTION('center_axis',(-5.39909621375934E-16,-1.79267003756368E-15,
1.));
#434=DIRECTION('ref_axis',(1.33920652345409E-14,-1.,-1.79267003756367E-15));
#435=DIRECTION('',(5.39909621375934E-16,1.79267003756368E-15,-1.));
#436=DIRECTION('center_axis',(5.39909621375934E-16,1.79267003756368E-15,
-1.));
#437=DIRECTION('ref_axis',(1.33920652345409E-14,-1.,-1.79267003756367E-15));
#438=DIRECTION('center_axis',(-5.39909621375934E-16,-1.79267003756368E-15,
1.));
#439=DIRECTION('ref_axis',(1.33920652345409E-14,-1.,-1.79267003756367E-15));
#440=DIRECTION('center_axis',(-5.39909621375934E-16,-1.79267003756368E-15,
1.));
#441=DIRECTION('ref_axis',(1.33920652345409E-14,-1.,-1.79267003756367E-15));
#442=DIRECTION('',(5.39909621375934E-16,1.79267003756368E-15,-1.));
#443=DIRECTION('center_axis',(5.39909621375934E-16,1.79267003756368E-15,
-1.));
#444=DIRECTION('ref_axis',(1.33920652345409E-14,-1.,-1.79267003756367E-15));
#445=DIRECTION('center_axis',(-5.39909621375934E-16,-1.79267003756368E-15,
1.));
#446=DIRECTION('ref_axis',(1.33920652345409E-14,-1.,-1.79267003756367E-15));
#447=DIRECTION('center_axis',(-5.39909621375934E-16,-1.79267003756368E-15,
1.));
#448=DIRECTION('ref_axis',(1.33920652345409E-14,-1.,-1.79267003756367E-15));
#449=DIRECTION('center_axis',(5.39909621375934E-16,1.79267003756368E-15,
-1.));
#450=DIRECTION('ref_axis',(1.33920652345409E-14,-1.,-1.79267003756367E-15));
#451=DIRECTION('center_axis',(5.39909621375934E-16,1.79267003756368E-15,
-1.));
#452=DIRECTION('ref_axis',(1.33920652345409E-14,-1.,-1.79267003756367E-15));
#453=DIRECTION('',(5.39909621375934E-16,1.79267003756368E-15,-1.));
#454=DIRECTION('center_axis',(-5.39909621375934E-16,-1.79267003756368E-15,
1.));
#455=DIRECTION('ref_axis',(1.33920652345409E-14,-1.,-1.79267003756367E-15));
#456=DIRECTION('center_axis',(5.39909621375934E-16,1.79267003756368E-15,
-1.));
#457=DIRECTION('ref_axis',(1.33920652345409E-14,-1.,-1.79267003756367E-15));
#458=DIRECTION('center_axis',(5.39909621375934E-16,1.79267003756368E-15,
-1.));
#459=DIRECTION('ref_axis',(1.33920652345409E-14,-1.,-1.79267003756367E-15));
#460=DIRECTION('',(5.39909621375934E-16,1.79267003756368E-15,-1.));
#461=DIRECTION('center_axis',(-5.39909621375934E-16,-1.79267003756368E-15,
1.));
#462=DIRECTION('ref_axis',(1.33920652345409E-14,-1.,-1.79267003756367E-15));
#463=DIRECTION('center_axis',(5.39909621375934E-16,1.79267003756368E-15,
-1.));
#464=DIRECTION('ref_axis',(1.33920652345409E-14,-1.,-1.79267003756367E-15));
#465=DIRECTION('center_axis',(5.39909621375934E-16,1.79267003756368E-15,
-1.));
#466=DIRECTION('ref_axis',(1.33920652345409E-14,-1.,-1.79267003756367E-15));
#467=DIRECTION('',(5.39909621375934E-16,1.79267003756368E-15,-1.));
#468=DIRECTION('center_axis',(-5.39909621375934E-16,-1.79267003756368E-15,
1.));
#469=DIRECTION('ref_axis',(1.33920652345409E-14,-1.,-1.79267003756367E-15));
#470=DIRECTION('center_axis',(5.39909621375934E-16,1.79267003756368E-15,
-1.));
#471=DIRECTION('ref_axis',(1.33920652345409E-14,-1.,-1.79267003756367E-15));
#472=DIRECTION('center_axis',(5.39909621375934E-16,1.79267003756368E-15,
-1.));
#473=DIRECTION('ref_axis',(1.33920652345409E-14,-1.,-1.79267003756367E-15));
#474=DIRECTION('',(5.39909621375934E-16,1.79267003756368E-15,-1.));
#475=DIRECTION('center_axis',(5.39909621375934E-16,1.79267003756368E-15,
-1.));
#476=DIRECTION('ref_axis',(1.33920652345409E-14,-1.,-1.79267003756367E-15));
#477=DIRECTION('',(-5.39909621375934E-16,-1.79267003756368E-15,1.));
#478=DIRECTION('center_axis',(-5.39909621375934E-16,-1.79267003756368E-15,
1.));
#479=DIRECTION('ref_axis',(1.33920652345409E-14,-1.,-1.79267003756367E-15));
#480=DIRECTION('center_axis',(-5.39909621375934E-16,-1.79267003756368E-15,
1.));
#481=DIRECTION('ref_axis',(1.33920652345409E-14,-1.,-1.79267003756367E-15));
#482=DIRECTION('center_axis',(-5.39909621375934E-16,-1.79267003756368E-15,
1.));
#483=DIRECTION('ref_axis',(-1.35003119794419E-14,1.,1.77635683940025E-15));
#484=DIRECTION('center_axis',(1.,1.35447209004269E-14,5.39909621375959E-16));
#485=DIRECTION('ref_axis',(1.35447209004269E-14,-1.,-1.77635683940025E-15));
#486=CARTESIAN_POINT('',(0.,0.,0.));
#487=CARTESIAN_POINT('Origin',(-18.6156033038373,-50.3312925211513,-1.7227762722683));
#488=CARTESIAN_POINT('',(-18.6156033038373,-47.3312925211513,-1.22277627226829));
#489=CARTESIAN_POINT('Origin',(-18.6156033038373,-50.3312925211513,-1.2227762722683));
#490=CARTESIAN_POINT('',(-18.6156033038373,-47.8312925211513,-1.72277627226829));
#491=CARTESIAN_POINT('Origin',(-18.6156033038373,-47.3312925211513,-1.72277627226829));
#492=CARTESIAN_POINT('Origin',(-18.6156033038373,-50.3312925211513,-1.7227762722683));
#493=CARTESIAN_POINT('Origin',(-18.6156033038373,-50.3312925211513,-5.2227762722683));
#494=CARTESIAN_POINT('',(-18.6156033038373,-47.8312925211513,-6.2227762722683));
#495=CARTESIAN_POINT('Origin',(-18.6156033038373,-50.3312925211513,-6.2227762722683));
#496=CARTESIAN_POINT('',(-18.6156033038373,-47.8312925211513,-5.2227762722683));
#497=CARTESIAN_POINT('Origin',(-18.6156033038373,-50.3312925211513,-1.2227762722683));
#498=CARTESIAN_POINT('',(-18.6156033038372,-58.8312925211513,-1.22277627226832));
#499=CARTESIAN_POINT('Origin',(-18.6156033038373,-50.3312925211513,-1.2227762722683));
#500=CARTESIAN_POINT('',(-12.6156033043213,-48.3312163119243,-1.22277627226829));
#501=CARTESIAN_POINT('Origin',(-12.6156033043213,-50.3312163119243,-1.2227762722683));
#502=CARTESIAN_POINT('',(-18.6156795130643,-42.3312925216353,-1.22277627226829));
#503=CARTESIAN_POINT('Origin',(-18.6156795130643,-44.3312925216353,-1.22277627226829));
#504=CARTESIAN_POINT('',(-18.6155270946103,-54.3312925206673,-1.22277627226831));
#505=CARTESIAN_POINT('Origin',(-18.6155270946103,-56.3312925206673,-1.22277627226831));
#506=CARTESIAN_POINT('',(-24.6156033033533,-48.3313687303783,-1.2227762722683));
#507=CARTESIAN_POINT('Origin',(-24.6156033033533,-50.3313687303783,-1.2227762722683));
#508=CARTESIAN_POINT('Origin',(-18.6156033038373,-50.3312925211513,-6.2227762722683));
#509=CARTESIAN_POINT('Origin',(-18.6156033038373,-50.3312925211513,-9.7227762722683));
#510=CARTESIAN_POINT('',(-18.6156033038374,-40.3312925211513,-9.72277627226828));
#511=CARTESIAN_POINT('Origin',(-18.6156033038373,-50.3312925211513,-9.7227762722683));
#512=CARTESIAN_POINT('',(-18.6156033038374,-42.3312925211513,-9.72277627226829));
#513=CARTESIAN_POINT('Origin',(-18.6156033038373,-50.3312925211513,-9.7227762722683));
#514=CARTESIAN_POINT('Origin',(-18.6156033038373,-50.3312925211513,-7.7227762722683));
#515=CARTESIAN_POINT('',(-18.6156033038374,-42.3312925211513,-7.72277627226829));
#516=CARTESIAN_POINT('',(-18.6156033038374,-42.3312925211513,-7.72277627226828));
#517=CARTESIAN_POINT('Origin',(-18.6156033038373,-50.3312925211513,-7.7227762722683));
#518=CARTESIAN_POINT('Origin',(-18.6155270946103,-56.3312925206673,-7.72277627226831));
#519=CARTESIAN_POINT('',(-18.6155270946103,-55.1812925206673,-2.82277627226831));
#520=CARTESIAN_POINT('Origin',(-18.6155270946103,-56.3312925206673,-2.82277627226831));
#521=CARTESIAN_POINT('',(-18.6155270946103,-55.1812925206673,-7.72277627226831));
#522=CARTESIAN_POINT('',(-18.6155270946103,-55.1812925206673,-7.72277627226831));
#523=CARTESIAN_POINT('Origin',(-18.6155270946103,-56.3312925206673,-7.72277627226831));
#524=CARTESIAN_POINT('Origin',(-12.6156033043213,-50.3312163119243,-7.7227762722683));
#525=CARTESIAN_POINT('',(-12.6156033043213,-49.1812163119243,-2.82277627226829));
#526=CARTESIAN_POINT('Origin',(-12.6156033043213,-50.3312163119243,-2.8227762722683));
#527=CARTESIAN_POINT('',(-12.6156033043213,-49.1812163119243,-7.72277627226829));
#528=CARTESIAN_POINT('',(-12.6156033043213,-49.1812163119243,-7.72277627226829));
#529=CARTESIAN_POINT('Origin',(-12.6156033043213,-50.3312163119243,-7.7227762722683));
#530=CARTESIAN_POINT('Origin',(-24.6156033033533,-50.3313687303783,-7.7227762722683));
#531=CARTESIAN_POINT('',(-24.6156033033533,-49.1813687303783,-2.8227762722683));
#532=CARTESIAN_POINT('Origin',(-24.6156033033533,-50.3313687303783,-2.8227762722683));
#533=CARTESIAN_POINT('',(-24.6156033033533,-49.1813687303783,-7.7227762722683));
#534=CARTESIAN_POINT('',(-24.6156033033533,-49.1813687303783,-7.7227762722683));
#535=CARTESIAN_POINT('Origin',(-24.6156033033533,-50.3313687303783,-7.7227762722683));
#536=CARTESIAN_POINT('Origin',(-18.6156795130643,-44.3312925216353,-7.72277627226829));
#537=CARTESIAN_POINT('',(-18.6156795130643,-43.1812925216353,-2.82277627226829));
#538=CARTESIAN_POINT('Origin',(-18.6156795130643,-44.3312925216353,-2.82277627226829));
#539=CARTESIAN_POINT('',(-18.6156795130643,-43.1812925216353,-7.72277627226829));
#540=CARTESIAN_POINT('',(-18.6156795130643,-43.1812925216353,-7.72277627226829));
#541=CARTESIAN_POINT('Origin',(-18.6156795130643,-44.3312925216353,-7.72277627226829));
#542=CARTESIAN_POINT('Origin',(-18.6156033038373,-50.3312925211513,-7.7227762722683));
#543=CARTESIAN_POINT('Origin',(-24.6156033033533,-50.3313687303783,-2.8227762722683));
#544=CARTESIAN_POINT('',(-24.6156033033533,-48.3313687303783,-2.8227762722683));
#545=CARTESIAN_POINT('Origin',(-24.6156033033533,-50.3313687303783,-2.8227762722683));
#546=CARTESIAN_POINT('Origin',(-24.6156033033533,-50.3313687303783,-1.2227762722683));
#547=CARTESIAN_POINT('',(-24.6156033033533,-48.3313687303783,-1.2227762722683));
#548=CARTESIAN_POINT('Origin',(-18.6155270946103,-56.3312925206673,-2.82277627226831));
#549=CARTESIAN_POINT('',(-18.6155270946103,-54.3312925206673,-2.82277627226831));
#550=CARTESIAN_POINT('Origin',(-18.6155270946103,-56.3312925206673,-2.82277627226831));
#551=CARTESIAN_POINT('Origin',(-18.6155270946103,-56.3312925206673,-1.22277627226831));
#552=CARTESIAN_POINT('',(-18.6155270946103,-54.3312925206673,-1.22277627226831));
#553=CARTESIAN_POINT('Origin',(-18.6156795130643,-44.3312925216353,-2.82277627226829));
#554=CARTESIAN_POINT('',(-18.6156795130643,-42.3312925216353,-2.82277627226829));
#555=CARTESIAN_POINT('Origin',(-18.6156795130643,-44.3312925216353,-2.82277627226829));
#556=CARTESIAN_POINT('Origin',(-18.6156795130643,-44.3312925216353,-1.22277627226829));
#557=CARTESIAN_POINT('',(-18.6156795130643,-42.3312925216353,-1.22277627226829));
#558=CARTESIAN_POINT('Origin',(-12.6156033043213,-50.3312163119243,-2.8227762722683));
#559=CARTESIAN_POINT('',(-12.6156033043213,-48.3312163119243,-2.82277627226829));
#560=CARTESIAN_POINT('Origin',(-12.6156033043213,-50.3312163119243,-2.8227762722683));
#561=CARTESIAN_POINT('Origin',(-12.6156033043213,-50.3312163119243,-1.2227762722683));
#562=CARTESIAN_POINT('',(-12.6156033043213,-48.3312163119243,-1.22277627226829));
#563=CARTESIAN_POINT('Origin',(-18.6156033038373,-50.3312925211513,-7.7227762722683));
#564=CARTESIAN_POINT('',(-18.6156033038374,-40.3312925211513,-2.72277627226828));
#565=CARTESIAN_POINT('',(-18.6156033038374,-40.3312925211513,-7.72277627226828));
#566=CARTESIAN_POINT('',(-18.6156033038372,-60.3312925211513,-2.72277627226832));
#567=CARTESIAN_POINT('Origin',(-18.6156033038373,-50.3312925211513,-2.7227762722683));
#568=CARTESIAN_POINT('Origin',(-18.6156033038373,-50.3312925211513,-2.7227762722683));
#569=CARTESIAN_POINT('Origin',(-18.6156033038373,-50.3312925211513,-2.7227762722683));
#570=CARTESIAN_POINT('Origin',(-18.6156033038372,-58.8312925211513,-2.72277627226832));
#571=UNCERTAINTY_MEASURE_WITH_UNIT(LENGTH_MEASURE(0.01),#575,
'DISTANCE_ACCURACY_VALUE',
'Maximum model space distance between geometric entities at asserted c
onnectivities');
#572=UNCERTAINTY_MEASURE_WITH_UNIT(LENGTH_MEASURE(0.01),#575,
'DISTANCE_ACCURACY_VALUE',
'Maximum model space distance between geometric entities at asserted c
onnectivities');
#573=(
GEOMETRIC_REPRESENTATION_CONTEXT(3)
GLOBAL_UNCERTAINTY_ASSIGNED_CONTEXT((#571))
GLOBAL_UNIT_ASSIGNED_CONTEXT((#575,#577,#578))
REPRESENTATION_CONTEXT('','3D')
);
#574=(
GEOMETRIC_REPRESENTATION_CONTEXT(3)
GLOBAL_UNCERTAINTY_ASSIGNED_CONTEXT((#572))
GLOBAL_UNIT_ASSIGNED_CONTEXT((#575,#577,#578))
REPRESENTATION_CONTEXT('','3D')
);
#575=(
LENGTH_UNIT()
NAMED_UNIT(*)
SI_UNIT(.MILLI.,.METRE.)
);
#576=(
LENGTH_UNIT()
NAMED_UNIT(*)
SI_UNIT($,.METRE.)
);
#577=(
NAMED_UNIT(*)
PLANE_ANGLE_UNIT()
SI_UNIT($,.RADIAN.)
);
#578=(
NAMED_UNIT(*)
SI_UNIT($,.STERADIAN.)
SOLID_ANGLE_UNIT()
);
#579=SHAPE_DEFINITION_REPRESENTATION(#580,#581);
#580=PRODUCT_DEFINITION_SHAPE('',$,#583);
#581=SHAPE_REPRESENTATION('',(#328),#573);
#582=PRODUCT_DEFINITION_CONTEXT('part definition',#587,'design');
#583=PRODUCT_DEFINITION('2026-08-13-17-51-52-885',
'_export_tmp_servo_spool_1',#584,#582);
#584=PRODUCT_DEFINITION_FORMATION('',$,#589);
#585=PRODUCT_RELATED_PRODUCT_CATEGORY('_export_tmp_servo_spool_1',
'_export_tmp_servo_spool_1',(#589));
#586=APPLICATION_PROTOCOL_DEFINITION('international standard',
'automotive_design',2009,#587);
#587=APPLICATION_CONTEXT(
'Core Data for Automotive Mechanical Design Process');
#588=PRODUCT_CONTEXT('part definition',#587,'mechanical');
#589=PRODUCT('2026-08-13-17-51-52-885','_export_tmp_servo_spool_1',$,(#588));
#590=PRESENTATION_STYLE_ASSIGNMENT((#592));
#591=PRESENTATION_STYLE_ASSIGNMENT((#593));
#592=SURFACE_STYLE_USAGE(.BOTH.,#594);
#593=SURFACE_STYLE_USAGE(.BOTH.,#595);
#594=SURFACE_SIDE_STYLE('',(#596));
#595=SURFACE_SIDE_STYLE('',(#597));
#596=SURFACE_STYLE_FILL_AREA(#598);
#597=SURFACE_STYLE_FILL_AREA(#599);
#598=FILL_AREA_STYLE('\X2\76AE9769\X0\ - \X2\98CE5316\X0\',(#600));
#599=FILL_AREA_STYLE('PEEK',(#601));
#600=FILL_AREA_STYLE_COLOUR('\X2\76AE9769\X0\ - \X2\98CE5316\X0\',#602);
#601=FILL_AREA_STYLE_COLOUR('PEEK',#603);
#602=COLOUR_RGB('\X2\76AE9769\X0\ - \X2\98CE5316\X0\',0.,0.,0.);
#603=COLOUR_RGB('PEEK',0.6,0.509803921568627,0.368627450980392);
ENDSEC;
END-ISO-10303-21;
