ISO-10303-21;
HEADER;
/* Generated by software containing ST-Developer
 * from STEP Tools, Inc. (www.steptools.com) 
 */

FILE_DESCRIPTION(
/* description */ (''),
/* implementation_level */ '2;1');

FILE_NAME(
/* name */ 'servo_spool_2.step',
/* time_stamp */ '2026-08-13T17:51:53-04:00',
/* author */ (''),
/* organization */ (''),
/* preprocessor_version */ 'ST-DEVELOPER v20.1',
/* originating_system */ 'Autodesk Translation Framework v15.8.0.0',
/* authorisation */ '');

FILE_SCHEMA (('AUTOMOTIVE_DESIGN { 1 0 10303 214 3 1 1 }'));
ENDSEC;

DATA;
#10=MECHANICAL_DESIGN_GEOMETRIC_PRESENTATION_REPRESENTATION('',(#13),#158);
#11=SHAPE_REPRESENTATION_RELATIONSHIP('SRR','None',#165,#12);
#12=ADVANCED_BREP_SHAPE_REPRESENTATION('',(#14),#157);
#13=STYLED_ITEM('',(#175),#14);
#14=MANIFOLD_SOLID_BREP('servo spool 2',#79);
#15=FACE_BOUND('',#34,.T.);
#16=LINE('',#146,#17);
#17=VECTOR('',#122,2.5);
#18=CYLINDRICAL_SURFACE('',#98,2.5);
#19=PLANE('',#97);
#20=PLANE('',#100);
#21=PLANE('',#105);
#22=FACE_OUTER_BOUND('',#28,.T.);
#23=FACE_OUTER_BOUND('',#29,.T.);
#24=FACE_OUTER_BOUND('',#30,.T.);
#25=FACE_OUTER_BOUND('',#31,.T.);
#26=FACE_OUTER_BOUND('',#32,.T.);
#27=FACE_OUTER_BOUND('',#33,.T.);
#28=EDGE_LOOP('',(#55,#56,#57,#58));
#29=EDGE_LOOP('',(#59));
#30=EDGE_LOOP('',(#60,#61,#62,#63));
#31=EDGE_LOOP('',(#64));
#32=EDGE_LOOP('',(#65,#66,#67,#68));
#33=EDGE_LOOP('',(#69));
#34=EDGE_LOOP('',(#70));
#35=CIRCLE('',#94,1.8);
#36=CIRCLE('',#95,0.7);
#37=CIRCLE('',#96,2.5);
#38=CIRCLE('',#99,2.5);
#39=CIRCLE('',#101,8.5);
#40=CIRCLE('',#103,1.5);
#41=CIRCLE('',#104,8.5);
#42=VERTEX_POINT('',#137);
#43=VERTEX_POINT('',#139);
#44=VERTEX_POINT('',#144);
#45=VERTEX_POINT('',#148);
#46=VERTEX_POINT('',#151);
#47=EDGE_CURVE('',#42,#42,#35,.T.);
#48=EDGE_CURVE('',#42,#43,#36,.T.);
#49=EDGE_CURVE('',#43,#43,#37,.T.);
#50=EDGE_CURVE('',#44,#44,#38,.T.);
#51=EDGE_CURVE('',#44,#43,#16,.T.);
#52=EDGE_CURVE('',#45,#45,#39,.T.);
#53=EDGE_CURVE('',#45,#46,#40,.T.);
#54=EDGE_CURVE('',#46,#46,#41,.T.);
#55=ORIENTED_EDGE('',*,*,#47,.T.);
#56=ORIENTED_EDGE('',*,*,#48,.T.);
#57=ORIENTED_EDGE('',*,*,#49,.T.);
#58=ORIENTED_EDGE('',*,*,#48,.F.);
#59=ORIENTED_EDGE('',*,*,#47,.F.);
#60=ORIENTED_EDGE('',*,*,#50,.T.);
#61=ORIENTED_EDGE('',*,*,#51,.T.);
#62=ORIENTED_EDGE('',*,*,#49,.F.);
#63=ORIENTED_EDGE('',*,*,#51,.F.);
#64=ORIENTED_EDGE('',*,*,#52,.F.);
#65=ORIENTED_EDGE('',*,*,#52,.T.);
#66=ORIENTED_EDGE('',*,*,#53,.T.);
#67=ORIENTED_EDGE('',*,*,#54,.T.);
#68=ORIENTED_EDGE('',*,*,#53,.F.);
#69=ORIENTED_EDGE('',*,*,#54,.F.);
#70=ORIENTED_EDGE('',*,*,#50,.F.);
#71=TOROIDAL_SURFACE('',#93,1.8,0.7);
#72=TOROIDAL_SURFACE('',#102,8.5,1.5);
#73=ADVANCED_FACE('',(#22),#71,.T.);
#74=ADVANCED_FACE('',(#23),#19,.F.);
#75=ADVANCED_FACE('',(#24),#18,.T.);
#76=ADVANCED_FACE('',(#25),#20,.T.);
#77=ADVANCED_FACE('',(#26),#72,.T.);
#78=ADVANCED_FACE('',(#27,#15),#21,.F.);
#79=CLOSED_SHELL('',(#73,#74,#75,#76,#77,#78));
#80=DERIVED_UNIT_ELEMENT(#82,1.);
#81=DERIVED_UNIT_ELEMENT(#160,-3.);
#82=(
MASS_UNIT()
NAMED_UNIT(*)
SI_UNIT(.KILO.,.GRAM.)
);
#83=DERIVED_UNIT((#80,#81));
#84=MEASURE_REPRESENTATION_ITEM('density measure',
POSITIVE_RATIO_MEASURE(900.),#83);
#85=PROPERTY_DEFINITION_REPRESENTATION(#90,#87);
#86=PROPERTY_DEFINITION_REPRESENTATION(#91,#88);
#87=REPRESENTATION('material name',(#89),#157);
#88=REPRESENTATION('density',(#84),#157);
#89=DESCRIPTIVE_REPRESENTATION_ITEM('\X2\76AE9769FF0C98CE5316\X0\',
'\X2\76AE9769FF0C98CE5316\X0\');
#90=PROPERTY_DEFINITION('material property','material name',#167);
#91=PROPERTY_DEFINITION('material property','density of part',#167);
#92=AXIS2_PLACEMENT_3D('',#135,#106,#107);
#93=AXIS2_PLACEMENT_3D('',#136,#108,#109);
#94=AXIS2_PLACEMENT_3D('',#138,#110,#111);
#95=AXIS2_PLACEMENT_3D('',#140,#112,#113);
#96=AXIS2_PLACEMENT_3D('',#141,#114,#115);
#97=AXIS2_PLACEMENT_3D('',#142,#116,#117);
#98=AXIS2_PLACEMENT_3D('',#143,#118,#119);
#99=AXIS2_PLACEMENT_3D('',#145,#120,#121);
#100=AXIS2_PLACEMENT_3D('',#147,#123,#124);
#101=AXIS2_PLACEMENT_3D('',#149,#125,#126);
#102=AXIS2_PLACEMENT_3D('',#150,#127,#128);
#103=AXIS2_PLACEMENT_3D('',#152,#129,#130);
#104=AXIS2_PLACEMENT_3D('',#153,#131,#132);
#105=AXIS2_PLACEMENT_3D('',#154,#133,#134);
#106=DIRECTION('axis',(0.,0.,1.));
#107=DIRECTION('refdir',(1.,0.,0.));
#108=DIRECTION('center_axis',(5.39909621375934E-16,1.79267003756368E-15,
-1.));
#109=DIRECTION('ref_axis',(1.4210854715202E-14,-1.,-1.77635683940025E-15));
#110=DIRECTION('center_axis',(-5.39909621375934E-16,-1.79267003756368E-15,
1.));
#111=DIRECTION('ref_axis',(1.33920652345409E-14,-1.,-1.79267003756367E-15));
#112=DIRECTION('center_axis',(1.,1.33226762955019E-14,5.39909621375958E-16));
#113=DIRECTION('ref_axis',(-1.33226762955019E-14,1.,1.77635683940025E-15));
#114=DIRECTION('center_axis',(5.39909621375934E-16,1.79267003756368E-15,
-1.));
#115=DIRECTION('ref_axis',(1.33920652345409E-14,-1.,-1.79267003756367E-15));
#116=DIRECTION('center_axis',(-5.39909621375934E-16,-1.79267003756368E-15,
1.));
#117=DIRECTION('ref_axis',(-1.33920652345409E-14,1.,1.79267003756367E-15));
#118=DIRECTION('center_axis',(-5.39909621375934E-16,-1.79267003756368E-15,
1.));
#119=DIRECTION('ref_axis',(1.33920652345409E-14,-1.,-1.79267003756367E-15));
#120=DIRECTION('center_axis',(5.39909621375934E-16,1.79267003756368E-15,
-1.));
#121=DIRECTION('ref_axis',(1.33920652345409E-14,-1.,-1.79267003756367E-15));
#122=DIRECTION('',(5.39909621375934E-16,1.79267003756368E-15,-1.));
#123=DIRECTION('center_axis',(-5.39909621375934E-16,-1.79267003756368E-15,
1.));
#124=DIRECTION('ref_axis',(1.33920652345409E-14,-1.,-1.79267003756367E-15));
#125=DIRECTION('center_axis',(5.39909621375934E-16,1.79267003756368E-15,
-1.));
#126=DIRECTION('ref_axis',(1.33920652345409E-14,-1.,-1.79267003756367E-15));
#127=DIRECTION('center_axis',(-5.39909621375934E-16,-1.79267003756368E-15,
1.));
#128=DIRECTION('ref_axis',(-1.35003119794419E-14,1.,1.77635683940025E-15));
#129=DIRECTION('center_axis',(1.,1.35447209004269E-14,5.39909621375959E-16));
#130=DIRECTION('ref_axis',(1.35447209004269E-14,-1.,-1.80411241501588E-15));
#131=DIRECTION('center_axis',(-5.39909621375934E-16,-1.79267003756368E-15,
1.));
#132=DIRECTION('ref_axis',(1.33920652345409E-14,-1.,-1.79267003756367E-15));
#133=DIRECTION('center_axis',(-5.39909621375934E-16,-1.79267003756368E-15,
1.));
#134=DIRECTION('ref_axis',(1.33920652345409E-14,-1.,-1.79267003756367E-15));
#135=CARTESIAN_POINT('',(0.,0.,0.));
#136=CARTESIAN_POINT('Origin',(-18.6156033038373,-50.3312925211513,-3.9227762722683));
#137=CARTESIAN_POINT('',(-18.6156033038373,-48.5312925211513,-4.6227762722683));
#138=CARTESIAN_POINT('Origin',(-18.6156033038373,-50.3312925211513,-4.6227762722683));
#139=CARTESIAN_POINT('',(-18.6156033038373,-47.8312925211513,-3.9227762722683));
#140=CARTESIAN_POINT('Origin',(-18.6156033038373,-48.5312925211513,-3.9227762722683));
#141=CARTESIAN_POINT('Origin',(-18.6156033038373,-50.3312925211513,-3.9227762722683));
#142=CARTESIAN_POINT('Origin',(-18.6156033038373,-50.3312925211513,-4.6227762722683));
#143=CARTESIAN_POINT('Origin',(-18.6156033038373,-50.3312925211513,-0.622776272268299));
#144=CARTESIAN_POINT('',(-18.6156033038373,-47.8312925211513,0.877223727731704));
#145=CARTESIAN_POINT('Origin',(-18.6156033038373,-50.3312925211513,0.8772237277317));
#146=CARTESIAN_POINT('',(-18.6156033038373,-47.8312925211513,-0.622776272268295));
#147=CARTESIAN_POINT('Origin',(-18.6156033038373,-50.3312925211513,3.8772237277317));
#148=CARTESIAN_POINT('',(-18.6156033038372,-58.8312925211513,3.87722372773168));
#149=CARTESIAN_POINT('Origin',(-18.6156033038373,-50.3312925211513,3.8772237277317));
#150=CARTESIAN_POINT('Origin',(-18.6156033038373,-50.3312925211513,2.3772237277317));
#151=CARTESIAN_POINT('',(-18.6156033038372,-58.8312925211513,0.877223727731684));
#152=CARTESIAN_POINT('Origin',(-18.6156033038372,-58.8312925211513,2.37722372773168));
#153=CARTESIAN_POINT('Origin',(-18.6156033038373,-50.3312925211513,0.8772237277317));
#154=CARTESIAN_POINT('Origin',(-18.6156033038373,-50.3312925211513,0.8772237277317));
#155=UNCERTAINTY_MEASURE_WITH_UNIT(LENGTH_MEASURE(0.01),#159,
'DISTANCE_ACCURACY_VALUE',
'Maximum model space distance between geometric entities at asserted c
onnectivities');
#156=UNCERTAINTY_MEASURE_WITH_UNIT(LENGTH_MEASURE(0.01),#159,
'DISTANCE_ACCURACY_VALUE',
'Maximum model space distance between geometric entities at asserted c
onnectivities');
#157=(
GEOMETRIC_REPRESENTATION_CONTEXT(3)
GLOBAL_UNCERTAINTY_ASSIGNED_CONTEXT((#155))
GLOBAL_UNIT_ASSIGNED_CONTEXT((#159,#161,#162))
REPRESENTATION_CONTEXT('','3D')
);
#158=(
GEOMETRIC_REPRESENTATION_CONTEXT(3)
GLOBAL_UNCERTAINTY_ASSIGNED_CONTEXT((#156))
GLOBAL_UNIT_ASSIGNED_CONTEXT((#159,#161,#162))
REPRESENTATION_CONTEXT('','3D')
);
#159=(
LENGTH_UNIT()
NAMED_UNIT(*)
SI_UNIT(.MILLI.,.METRE.)
);
#160=(
LENGTH_UNIT()
NAMED_UNIT(*)
SI_UNIT($,.METRE.)
);
#161=(
NAMED_UNIT(*)
PLANE_ANGLE_UNIT()
SI_UNIT($,.RADIAN.)
);
#162=(
NAMED_UNIT(*)
SI_UNIT($,.STERADIAN.)
SOLID_ANGLE_UNIT()
);
#163=SHAPE_DEFINITION_REPRESENTATION(#164,#165);
#164=PRODUCT_DEFINITION_SHAPE('',$,#167);
#165=SHAPE_REPRESENTATION('',(#92),#157);
#166=PRODUCT_DEFINITION_CONTEXT('part definition',#171,'design');
#167=PRODUCT_DEFINITION('2026-08-13-17-51-53-677',
'_export_tmp_servo_spool_2',#168,#166);
#168=PRODUCT_DEFINITION_FORMATION('',$,#173);
#169=PRODUCT_RELATED_PRODUCT_CATEGORY('_export_tmp_servo_spool_2',
'_export_tmp_servo_spool_2',(#173));
#170=APPLICATION_PROTOCOL_DEFINITION('international standard',
'automotive_design',2009,#171);
#171=APPLICATION_CONTEXT(
'Core Data for Automotive Mechanical Design Process');
#172=PRODUCT_CONTEXT('part definition',#171,'mechanical');
#173=PRODUCT('2026-08-13-17-51-53-677','_export_tmp_servo_spool_2',$,(#172));
#174=PRESENTATION_STYLE_ASSIGNMENT((#176));
#175=PRESENTATION_STYLE_ASSIGNMENT((#177));
#176=SURFACE_STYLE_USAGE(.BOTH.,#178);
#177=SURFACE_STYLE_USAGE(.BOTH.,#179);
#178=SURFACE_SIDE_STYLE('',(#180));
#179=SURFACE_SIDE_STYLE('',(#181));
#180=SURFACE_STYLE_FILL_AREA(#182);
#181=SURFACE_STYLE_FILL_AREA(#183);
#182=FILL_AREA_STYLE('\X2\76AE9769\X0\ - \X2\98CE5316\X0\',(#184));
#183=FILL_AREA_STYLE('PEEK',(#185));
#184=FILL_AREA_STYLE_COLOUR('\X2\76AE9769\X0\ - \X2\98CE5316\X0\',#186);
#185=FILL_AREA_STYLE_COLOUR('PEEK',#187);
#186=COLOUR_RGB('\X2\76AE9769\X0\ - \X2\98CE5316\X0\',0.,0.,0.);
#187=COLOUR_RGB('PEEK',0.6,0.509803921568627,0.368627450980392);
ENDSEC;
END-ISO-10303-21;
